<?xml version="1.0" standalone="no"?>
<!DOCTYPE svg PUBLIC "-//W3C//DTD SVG 1.1//EN" "http://www.w3.org/Graphics/SVG/1.1/DTD/svg11.dtd" >
<svg xmlns="http://www.w3.org/2000/svg">
<metadata></metadata>
<defs>
<font id="nexalightregular" horiz-adv-x="1245" >
<font-face units-per-em="2048" ascent="1638" descent="-410" />
<missing-glyph horiz-adv-x="563" />
<glyph horiz-adv-x="0" />
<glyph unicode="&#xd;" horiz-adv-x="681" />
<glyph unicode=" "  horiz-adv-x="563" />
<glyph unicode="&#x09;" horiz-adv-x="563" />
<glyph unicode="&#xa0;" horiz-adv-x="563" />
<glyph unicode="!" horiz-adv-x="399" d="M98 72q0 37 24.5 58.5t57.5 21.5t56.5 -21.5t23.5 -58.5t-23.5 -58.5t-56.5 -21.5t-57.5 21.5t-24.5 58.5zM123 289v1145h104v-1145h-104z" />
<glyph unicode="&#x22;" horiz-adv-x="653" d="M111 918v524h92v-524h-92zM397 918v524h90v-524h-90z" />
<glyph unicode="#" horiz-adv-x="1259" d="M59 350v82h183l149 580h-174v78h193l84 344h94l-84 -344h411l86 344h95l-86 -344h186v-78h-205l-147 -580h194v-82h-213l-86 -350h-94l86 350h-412l-86 -350h-94l86 350h-166zM336 432h414l147 580h-412z" />
<glyph unicode="$" horiz-adv-x="1296" d="M41 274l98 50q59 -115 197.5 -169.5t290.5 -54.5q74 0 147.5 14.5t146 44t117.5 87t45 135.5q0 51 -16 93t-54 73t-74 51t-101.5 38.5t-106.5 28t-118.5 23.5t-113.5 22.5t-104.5 27t-102.5 33.5t-82 45t-70.5 62.5t-40 81t-17.5 105.5q0 123 80 210t187.5 125t232.5 44 v205h92v-205q154 -8 282.5 -69.5t194.5 -178.5l-96 -53q-53 100 -174 148t-254 50q-68 0 -138.5 -14t-139 -45t-112.5 -87t-44 -128q0 -55 24.5 -97t58 -69t98 -49.5t116 -33.5t141.5 -27q268 -51 366 -101q197 -96 197 -311q0 -127 -85 -216t-196.5 -126t-240.5 -43v-199 h-90v199q-174 6 -322.5 75.5t-218.5 204.5z" />
<glyph unicode="%" horiz-adv-x="1478" d="M43 1143q0 123 82 212t229.5 89t230.5 -89t83 -212t-83 -213t-230.5 -90t-229.5 90t-82 213zM135 1145q0 -86 58.5 -150.5t162.5 -64.5q102 0 158.5 62.5t56.5 148.5t-57 150.5t-159.5 64.5t-161 -62.5t-58.5 -148.5zM188 0l914 1438l112 2l-911 -1440h-115zM741 291 q0 123 82 212t229.5 89t230.5 -89t83 -212t-83 -213t-230.5 -90t-229.5 90t-82 213zM836 293q0 -88 58 -153.5t160.5 -65.5t160 63.5t57.5 151.5t-58.5 153.5t-161 65.5t-159.5 -63.5t-57 -151.5z" />
<glyph unicode="&#x26;" horiz-adv-x="1474" d="M156 381q0 125 85 218t203 132q-115 35 -189.5 124t-74.5 206q0 170 135.5 275.5t374.5 105.5q461 -1 461 -355h-96q0 66 -20.5 114t-53.5 77t-82 45t-98 22.5t-113 6.5q-197 0 -300 -80t-103 -205q0 -80 37.5 -139.5t101 -91t130.5 -46t138 -14.5h608v-88h-131v-313 q0 -289 174 -289h5v-86q-10 -2 -31 -2q-76 0 -131.5 50t-77.5 134q-123 -201 -422 -200q-258 0 -394 106.5t-136 292.5zM260 381q0 -143 106.5 -223t317.5 -80q68 0 131.5 13t126 44t100 92.5t37.5 147.5v313h-393q-199 0 -312.5 -93t-113.5 -214z" />
<glyph unicode="'" horiz-adv-x="428" d="M150 918v524h90v-524h-90z" />
<glyph unicode="(" horiz-adv-x="788" d="M180 663.5q0 276.5 117 521.5t334 384l53 -78q-193 -133 -295 -354.5t-102 -470.5q0 -246 101 -466t296 -362l-53 -80q-217 139 -334 384t-117 521.5z" />
<glyph unicode=")" horiz-adv-x="714" d="M37 -162q195 141 296 361.5t101 466.5q0 250 -102 471t-295 354l53 78q217 -139 334 -384t117 -521.5t-117 -521t-334 -384.5z" />
<glyph unicode="*" horiz-adv-x="602" d="M59 1249l23 74l162 -53l-4 166h84l-5 -166l175 51l22 -74l-176 -45l113 -143l-68 -49l-104 149l-109 -149l-68 47l117 145z" />
<glyph unicode="+" horiz-adv-x="1030" d="M100 651v99h359v352h96v-352h358v-99h-358v-362h-96v362h-359z" />
<glyph unicode="," horiz-adv-x="405" d="M78 -182l63 170q-49 18 -49 73q0 37 23.5 58.5t56.5 21.5t57.5 -21.5t24.5 -58.5q0 -16 -6 -34l-82 -209h-88z" />
<glyph unicode="-" horiz-adv-x="978" d="M119 592v106h717v-106h-717z" />
<glyph unicode="." horiz-adv-x="391" d="M74 61.5q0 36.5 24.5 58t57 21.5t56.5 -21.5t24 -58t-24 -58t-56.5 -21.5t-57 21.5t-24.5 58z" />
<glyph unicode="/" horiz-adv-x="892" d="M-25 -168l764 1722h111l-766 -1722h-109z" />
<glyph unicode="0" horiz-adv-x="1300" d="M72 547v342q0 266 162.5 414.5t386 148.5t386 -148.5t162.5 -414.5v-342q0 -266 -162.5 -414.5t-386 -148.5t-386 148.5t-162.5 414.5zM180 547q0 -217 131 -339t310 -122q180 0 310 122t130 339v342q0 217 -130 338t-310 121q-178 0 -309.5 -121t-131.5 -338v-342z" />
<glyph unicode="1" horiz-adv-x="671" d="M8 0v96h242v1239h-242v99h352v-1338h242v-96h-594z" />
<glyph unicode="2" horiz-adv-x="1353" d="M86 0v324q0 115 48 195.5t132 123.5t176.5 61.5t200.5 18.5q76 0 149.5 15.5t144.5 49t114 97t43 149.5q0 90 -42 155.5t-111 100.5t-143.5 50.5t-154.5 15.5q-78 0 -150.5 -14.5t-140 -47t-108.5 -95t-41 -146.5h-109q0 109 48 189.5t130 124.5t174.5 64.5t196.5 20.5 q143 0 262 -38t205 -136t86 -244q0 -139 -87 -235.5t-207 -136t-255 -39.5q-453 -4 -452 -297v-220h987v-106h-1096z" />
<glyph unicode="3" horiz-adv-x="1310" d="M66 365h106q0 -74 32 -128.5t76 -83t110.5 -45t119.5 -20.5t119 -4q215 0 329.5 85t114.5 214q0 123 -118.5 215t-327.5 92h-238v92h232q201 0 315.5 90.5t114.5 204.5q0 119 -112 201t-314 82q-432 -1 -432 -277h-105q0 106 49 182t131 115t169 55.5t186 16.5 q248 0 387 -106.5t141 -272.5q0 -121 -88 -216t-215 -118q135 -25 232.5 -125t97.5 -227q0 -176 -145.5 -290.5t-405.5 -114.5q-102 0 -193.5 17t-178.5 56t-138 119t-51 191z" />
<glyph unicode="4" horiz-adv-x="1308" d="M27 457l829 977h182v-1000h181v-110h-181v-324h-110v324h-879zM145 434h783v918z" />
<glyph unicode="5" horiz-adv-x="1304" d="M76 395h110q0 -295 445 -295q221 0 333.5 92.5t112.5 242t-92 246.5t-311 97h-563v656h997v-99h-895v-458h461q139 0 242.5 -37t161 -100.5t84 -139.5t26.5 -164q0 -190 -143.5 -318t-413.5 -128q-106 0 -197.5 19.5t-175.5 62.5t-133 126t-49 197z" />
<glyph unicode="6" horiz-adv-x="1351" d="M100 430v627q0 190 161 293.5t384 103.5q225 0 380 -94t167 -268h-111q-8 125 -130 194.5t-306 69.5q-176 0 -306 -79t-130 -220v-391q141 203 459 202q106 0 202.5 -25.5t178 -75.5t130 -138t48.5 -203q0 -117 -49.5 -206t-131 -138t-178 -73.5t-202.5 -24.5 q-145 0 -268.5 42t-210.5 146t-87 258zM211 424q0 -121 73.5 -200t171 -107.5t210.5 -28.5q84 0 158.5 16.5t143 53.5t109.5 105.5t41 162.5q0 164 -138 253t-312 89t-315.5 -90t-141.5 -254z" />
<glyph unicode="7" horiz-adv-x="1210" d="M63 1331v103h1045l14 -91l-778 -1343h-125l774 1331h-930z" />
<glyph unicode="8" horiz-adv-x="1392" d="M70 377q0 139 94 236.5t229 125.5q-299 92 -299 332q0 106 52.5 186t139.5 123t181 63.5t194.5 20.5t193.5 -19.5t180 -61.5t140.5 -122.5t53.5 -189.5q0 -127 -86 -210t-225 -126q135 -29 234 -126t99 -232q0 -111 -54 -194t-143 -127t-187.5 -65.5t-205 -21.5 t-205 21.5t-188.5 65.5t-144 127t-54 194zM180 377q0 -111 89 -183.5t190.5 -96t202.5 -23.5q72 0 147.5 14t153 47t129 95.5t51.5 146.5t-51.5 149.5t-129 100.5t-154.5 52t-146.5 17t-146.5 -16t-155.5 -50t-129 -100.5t-50.5 -152.5zM203 1071q0 -78 46 -135t119.5 -88 t147.5 -44t145.5 -13t145.5 13t147.5 44t119.5 88t46 135q0 82 -46 143.5t-118.5 93t-147 47t-146.5 15.5q-74 0 -147 -14.5t-146.5 -46t-119.5 -93t-46 -145.5z" />
<glyph unicode="9" horiz-adv-x="1376" d="M82 1012q0 117 49 206t131 138t178.5 73.5t202.5 24.5q145 0 268 -42t210 -146.5t87 -257.5v-627q0 -190 -160.5 -293.5t-383.5 -103.5q-225 0 -380 94t-167 268h110q8 -125 130 -194.5t307 -69.5q176 0 307 79t131 220v391q-141 -203 -461 -203q-106 0 -202.5 26 t-178.5 76t-130 138t-48 203zM190 1012q0 -90 41 -160t109 -107.5t143.5 -56t157.5 -18.5q111 0 211 34.5t173 115.5t73 194q0 121 -74 199.5t-171 107.5t-210 29q-84 0 -158.5 -16.5t-143.5 -53.5t-110 -105.5t-41 -162.5z" />
<glyph unicode=":" horiz-adv-x="430" d="M106 61.5q0 36.5 25 58t57.5 21.5t56 -21.5t23.5 -58t-23.5 -58t-56 -21.5t-57.5 21.5t-25 58zM106 676q0 37 25 58.5t57.5 21.5t56 -21.5t23.5 -58.5t-23.5 -58.5t-56 -21.5t-57.5 21.5t-25 58.5z" />
<glyph unicode=";" horiz-adv-x="430" d="M92 -182l64 170q-50 18 -50 73q0 37 25 58.5t57.5 21.5t56 -21.5t23.5 -58.5q0 -16 -6 -34l-82 -209h-88zM106 676q0 37 25 58.5t57.5 21.5t56 -21.5t23.5 -58.5t-23.5 -58.5t-56 -21.5t-57.5 21.5t-25 58.5z" />
<glyph unicode="&#x3c;" horiz-adv-x="727" d="M68 610v80l432 381l61 -70l-393 -350l401 -352l-69 -70z" />
<glyph unicode="=" horiz-adv-x="1007" d="M109 424v100h751v-100h-751zM109 782v103h751v-103h-751z" />
<glyph unicode="&#x3e;" horiz-adv-x="735" d="M90 299l402 352l-394 350l62 70l432 -381v-80l-432 -381z" />
<glyph unicode="?" horiz-adv-x="1325" d="M68 1040q0 90 32.5 163t86 119t126 78t148.5 45t155 13q84 0 159 -12t148.5 -42t127 -76t86 -120.5t32.5 -169.5q0 -98 -25.5 -169.5t-75.5 -113.5t-92 -62.5t-104 -39.5q-162 -49 -203.5 -110.5t-41.5 -253.5h-105q0 211 67.5 307t256.5 152q106 31 162.5 91t56.5 199 q0 96 -41 163t-111.5 99.5t-141.5 46t-155 13.5q-78 0 -149.5 -14.5t-140 -48t-110.5 -100.5t-42 -157h-106zM504 74q0 37 23.5 58.5t56 21.5t56.5 -21.5t24 -58.5t-24 -58.5t-56.5 -21.5t-56 21.5t-23.5 58.5z" />
<glyph unicode="@" horiz-adv-x="1896" d="M109 629q0 338 217.5 566t582.5 228q362 0 578.5 -211t216.5 -577q0 -215 -82 -379q-61 -119 -168 -119q-59 0 -101 46t-42 128v-2q-72 -98 -181.5 -153.5t-232.5 -55.5q-213 0 -363.5 150.5t-150.5 363.5q0 229 147.5 371.5t366.5 142.5q127 0 239.5 -58t174.5 -167v174 h90v-764q-2 -80 53 -80q51 0 86 64q68 121 68 338q0 334 -186.5 514t-512.5 180q-315 0 -505.5 -196.5t-190.5 -503.5t189.5 -495.5t506.5 -188.5q145 0 314 84l53 -78q-162 -100 -367 -101q-367 0 -583.5 218.5t-216.5 560.5zM483 614q0 -172 121 -293.5t293 -121.5 q197 0 306.5 122.5t109.5 292.5t-109.5 294t-306.5 124q-176 0 -295 -114.5t-119 -303.5z" />
<glyph unicode="A" horiz-adv-x="1421" d="M-16 0l643 1434h121l643 -1434h-119l-158 352h-856l-156 -352h-118zM301 455h770l-385 872z" />
<glyph unicode="B" horiz-adv-x="1374" d="M133 0v1434h588q199 0 335 -99.5t136 -292.5q0 -111 -62.5 -191.5t-171.5 -115.5q133 -37 208 -135t75 -225q0 -106 -45 -182t-124 -117t-165 -58.5t-186 -17.5h-588zM244 106h477q412 0 412 271q-2 156 -118 229.5t-280 73.5h-491v-574zM244 784h491q96 0 170 20.5 t128 81t54 156.5q0 145 -108.5 221t-257.5 76h-477v-555z" />
<glyph unicode="C" horiz-adv-x="1378" d="M55 709v10q0 191 78 353q80 166 252 272t408 106q307 0 522 -215l-76 -66q-182 182 -446 183q-301 0 -467 -184q-164 -181 -164 -449v-6q4 -266 169 -446.5t462 -180.5q262 0 448 182l74 -69q-215 -215 -522 -215q-346 0 -541 208.5t-197 516.5z" />
<glyph unicode="D" horiz-adv-x="1452" d="M121 0v1434h485q176 0 316.5 -59.5t227.5 -160t133 -223.5t50 -258v-18q0 -137 -45 -263t-132 -228.5t-229.5 -163t-320.5 -60.5h-485zM231 106h375q152 0 272.5 52.5t194.5 140.5t112 195.5t38 224.5v14q-4 246 -165 421t-452 175h-375v-1223z" />
<glyph unicode="E" horiz-adv-x="1257" d="M131 0v1434h989v-105h-880v-557h839v-100h-839v-566h905v-106h-1014z" />
<glyph unicode="F" horiz-adv-x="1208" d="M131 -2v1436h965v-111h-854v-571h825v-105h-825v-649h-111z" />
<glyph unicode="G" horiz-adv-x="1507" d="M59 717q0 332 206 534.5t534 202.5q307 0 524 -215l-63 -70q-188 184 -461 185q-299 0 -467 -186q-166 -185 -166 -447v-6q0 -268 166 -448.5t467 -180.5q256 0 436 166v401h-500v97h604v-537q-231 -231 -540 -231q-236 0 -407 102t-252 266t-81 367z" />
<glyph unicode="H" horiz-adv-x="1452" d="M133 0v1434h111v-682h913v682h111v-1434h-111v651h-913v-651h-111z" />
<glyph unicode="I" horiz-adv-x="425" d="M133 0v1434h109v-1434h-109z" />
<glyph unicode="J" horiz-adv-x="1390" d="M74 541h102q0 -203 131 -332t332 -129q205 0 332 122t127 339v796h-549v97h657v-893q0 -260 -158.5 -412t-408.5 -152q-246 0 -405.5 158t-159.5 406z" />
<glyph unicode="K" horiz-adv-x="1153" d="M133 2v1432h111v-654l696 654h133v-11l-721 -675l787 -740v-8h-140l-755 707v-705h-111z" />
<glyph unicode="L" horiz-adv-x="1126" d="M131 0v1434h111v-1330h807v-104h-918z" />
<glyph unicode="M" horiz-adv-x="1675" d="M133 0v1434h131l549 -836l543 836h135v-1434h-109v1274l-548 -840h-37l-553 840v-1274h-111z" />
<glyph unicode="N" horiz-adv-x="1441" d="M133 0v1434h47l965 -1186v1186h108v-1434h-43l-966 1184v-1184h-111z" />
<glyph unicode="O" horiz-adv-x="1646" d="M70 719q0 199 77.5 362.5t246 269t399.5 105.5q174 0 314 -60.5t228 -164t134.5 -234.5t46.5 -278q0 -145 -46.5 -277.5t-133.5 -237t-227 -167t-316 -62.5q-174 0 -314.5 62.5t-228.5 168t-134 236.5t-46 277zM178 721q0 -264 162 -453.5t453 -189.5q197 0 340 94 t209.5 235.5t66.5 309.5q0 266 -162 451.5t-454.5 185.5t-453.5 -182.5t-161 -450.5z" />
<glyph unicode="P" horiz-adv-x="1339" d="M131 0v1434h629q221 0 344 -139.5t123 -330t-123 -329.5t-344 -139h-518v-496h-111zM242 596h518q168 0 263 108.5t95 258t-95 259t-263 109.5h-518v-735z" />
<glyph unicode="Q" horiz-adv-x="1599" d="M68 719q0 147 46 278t134 233.5t229.5 162t315.5 59.5q344 0 533.5 -211t189.5 -520q0 -289 -168 -494l182 -176l-70 -71l-180 172q-188 -166 -487 -166q-346 0 -535.5 211t-189.5 522zM176 729v-13q0 -261 158 -442q162 -184 459 -184q293 0 453.5 181.5t160.5 445.5 q0 268 -160.5 449.5t-453.5 181.5q-270 0 -443.5 -176.5t-173.5 -442.5z" />
<glyph unicode="R" horiz-adv-x="1329" d="M133 0v1434h631q223 0 347 -133.5t124 -317.5t-121 -309t-344 -125l506 -549h-146l-495 543h-391v-543h-111zM244 647h508q182 0 272 93.5t90 252.5q0 135 -92 236.5t-258 101.5h-520v-684z" />
<glyph unicode="S" horiz-adv-x="1296" d="M39 289l98 49q61 -123 203.5 -191.5t286.5 -68.5q76 0 147.5 12t145 43t118.5 94.5t45 153.5q0 51 -16 93t-54 73t-74 51t-101.5 38.5t-106.5 28t-119 23.5q-86 16 -132 26.5t-119.5 32t-113.5 46t-83 61.5t-62.5 88t-19.5 115v8q0 103 48 181q50 80 135 123.5t175 64 t187 20.5q178 0 302 -49.5t222 -194.5l-90 -53q-72 115 -179.5 154t-254.5 41q-98 0 -189.5 -22.5t-168 -92.5t-76.5 -176q0 -53 24.5 -94t58 -67t98 -48.5t117 -33.5t140.5 -27q268 -51 366 -101q197 -96 197 -311q0 -115 -54.5 -198t-142.5 -125t-179 -60.5t-191 -18.5 q-182 0 -346 79t-242 233z" />
<glyph unicode="T" d="M20 1333v99h1147v-99h-518v-1333h-110v1333h-519z" />
<glyph unicode="U" horiz-adv-x="1398" d="M131 543v891h109v-891q0 -217 131 -339t309 -122q180 0 310 122t130 339v891h109v-891q0 -266 -163 -414.5t-386 -148.5t-386 148t-163 415z" />
<glyph unicode="V" horiz-adv-x="1380" d="M23 1434h118l531 -1311l530 1311h119l-590 -1438h-119z" />
<glyph unicode="W" horiz-adv-x="2140" d="M16 1434h117l442 -1311l441 1311h61l439 -1311l444 1311h119l-506 -1438h-119l-227 672l-180 567l-181 -563l-229 -676h-119z" />
<glyph unicode="X" horiz-adv-x="1323" d="M61 0v2l527 733l-488 695v2h121l434 -613l437 613h118v-2l-487 -695l526 -733v-2h-131l-463 655l-462 -655h-132z" />
<glyph unicode="Y" horiz-adv-x="1308" d="M8 1432v2h129l486 -754l487 754h129v-2l-561 -859v-573h-111v573z" />
<glyph unicode="Z" horiz-adv-x="1183" d="M27 0v47l911 1284h-862v103h1038v-39l-924 -1286h924v-109h-1087z" />
<glyph unicode="[" horiz-adv-x="567" d="M160 -246v1807h370v-99h-264v-1609h264v-99h-370z" />
<glyph unicode="\" horiz-adv-x="892" d="M-8 1554h108l764 -1722h-106z" />
<glyph unicode="]" horiz-adv-x="622" d="M35 -147h264v1609h-264v99h371v-1807h-371v99z" />
<glyph unicode="^" horiz-adv-x="1056" d="M25 786l430 648h102l430 -648l-4 -6h-106l-371 568l-371 -568h-106z" />
<glyph unicode="_" horiz-adv-x="1052" d="M27 -53h958v-94h-958v94z" />
<glyph unicode="`" horiz-adv-x="479" d="M59 1434v2h134l153 -246v-8h-98z" />
<glyph unicode="a" d="M57 506q0 227 148.5 372.5t365.5 145.5q129 0 241 -59.5t173 -173.5v221h100v-1012h-100v215q-143 -231 -414 -231q-215 0 -364.5 147.5t-149.5 374.5zM158 505.5q0 -186.5 118.5 -305t294.5 -118.5q201 0 311.5 125t110.5 297t-110.5 298t-311.5 126q-176 0 -294.5 -118 t-118.5 -304.5z" />
<glyph unicode="b" horiz-adv-x="1271" d="M113 0v1434h98v-643q59 119 171 178t249 59q219 0 363.5 -139t144.5 -383t-143.5 -383t-362.5 -139q-131 0 -246 63.5t-176 175.5v-223h-98zM213 508q0 -188 116.5 -307t297.5 -119q178 0 295.5 110.5t117.5 313.5q0 205 -116.5 315.5t-296.5 110.5q-178 0 -296 -119 t-118 -305z" />
<glyph unicode="c" horiz-adv-x="1034" d="M53 506q0 236 147.5 376t372.5 140q213 0 369 -152l-65 -63q-121 121 -304 121q-180 0 -300.5 -113t-120.5 -309.5t120.5 -309t300.5 -112.5q176 0 301 125l68 -68q-151 -151 -366 -151h-3q-221 0 -370.5 141t-149.5 375z" />
<glyph unicode="d" horiz-adv-x="1259" d="M57 506q0 244 144.5 383t363.5 139q137 0 249 -59.5t171 -177.5v643h98v-1434h-98v223q-61 -113 -176 -176t-246 -63q-219 0 -362.5 139t-143.5 383zM156 506q0 -203 117.5 -313.5t295.5 -110.5q180 0 297 118.5t117 307.5q0 186 -118 305t-296 119q-180 0 -296.5 -110.5 t-116.5 -315.5z" />
<glyph unicode="e" horiz-adv-x="1216" d="M55 506q0 225 149.5 373.5t364.5 148.5t359.5 -125t144.5 -366q0 -25 -4 -78h-911q14 -172 132 -273.5t279 -101.5q104 0 207 41t158 113l72 -58q-72 -94 -191 -144t-246 -50q-219 0 -366.5 142t-147.5 378zM158 547h821q-2 184 -112.5 286.5t-297.5 102.5 q-162 0 -278.5 -104.5t-132.5 -284.5z" />
<glyph unicode="f" horiz-adv-x="772" d="M10 915v89h207v90q0 346 303 346q109 0 201 -70l-49 -74q-86 51 -156 52q-201 0 -201 -254v-90h334v-89h-334v-915h-98v915h-207z" />
<glyph unicode="g" horiz-adv-x="1112" d="M61 -256h101q0 -147 108.5 -226t270.5 -79q166 0 274.5 76.5t108.5 228.5t-113 227.5t-270 75.5q-215 0 -345 140.5t-130 349.5q0 229 135 361t340 132q157 0 286 -92l99 115l65 -58l-98 -114q125 -135 125 -344q0 -135 -75 -255t-198 -176q276 -98 277 -362 q0 -197 -135 -300t-346 -103q-207 0 -343.5 108.5t-136.5 294.5zM166 537q0 -162 103.5 -276t271.5 -114q156 0 267.5 116t111.5 274q0 184 -107.5 288.5t-271.5 104.5t-269.5 -101.5t-105.5 -291.5z" />
<glyph unicode="h" horiz-adv-x="1146" d="M113 0v1434h96v-611q113 199 364 203q207 0 315.5 -121t108.5 -325v-580h-98v580q0 164 -81 257t-245 93q-158 0 -259 -107.5t-101 -267.5v-555h-100z" />
<glyph unicode="i" horiz-adv-x="387" d="M84 1341.5q0 36.5 23.5 58t56.5 21.5t57.5 -21.5t24.5 -58t-24.5 -58t-57.5 -21.5t-56.5 21.5t-23.5 58zM113 0v1016h100v-1016h-100z" />
<glyph unicode="j" horiz-adv-x="391" d="M-221 -395l28 86q72 -41 154 -41q106 0 139 64.5t33 187.5v1112h98v-1112v-13q0 -160 -58 -246.5t-212 -86.5q-90 0 -182 49zM100 1352q0 37 23.5 58.5t56.5 21.5t57.5 -21.5t24.5 -58.5t-24.5 -58.5t-57.5 -21.5t-56.5 21.5t-23.5 58.5z" />
<glyph unicode="k" horiz-adv-x="897" d="M113 0v1434h98v-865l477 443h133v-4l-512 -473l572 -529v-6h-127l-543 496v-496h-98z" />
<glyph unicode="l" horiz-adv-x="380" d="M113 0v1434h100v-1434h-100z" />
<glyph unicode="m" horiz-adv-x="1882" d="M113 0v1012h94l2 -168q98 188 330 188q127 0 230 -61.5t144 -188.5q45 119 148.5 184.5t226.5 65.5q186 0 305 -118.5t119 -307.5v-606h-100v606q0 145 -90 238.5t-233.5 93.5t-234.5 -95t-91 -243v-600h-101v600q0 147 -91 241.5t-234.5 94.5t-233.5 -94t-90 -242v-600 h-100z" />
<glyph unicode="n" horiz-adv-x="1177" d="M113 0v1012h98v-181q109 195 360 199q205 0 331 -119.5t126 -326.5v-584h-100v582q0 168 -94.5 259t-260.5 91h-6q-156 -2 -255 -106.5t-99 -262.5v-563h-100z" />
<glyph unicode="o" horiz-adv-x="1212" d="M66 503.5q0 235.5 147 381t366.5 145.5t367 -145.5t147.5 -381t-147.5 -376.5t-367 -141t-366.5 141t-147 376.5zM164 504q0 -190 118.5 -305t297 -115t297 114.5t118.5 305.5q0 193 -119.5 312.5t-296 119.5t-296 -120t-119.5 -312z" />
<glyph unicode="p" horiz-adv-x="1273" d="M113 -422v1434h98v-240q61 117 177 185.5t261 68.5q215 -8 353.5 -146.5t138.5 -373.5q0 -246 -145.5 -385t-368.5 -139q-133 0 -244 64.5t-174 186.5v-655h-96zM217 504q0 -184 118 -305t292 -121q180 0 296.5 111.5t116.5 316.5t-116.5 314.5t-296.5 109.5 q-176 0 -293 -120t-117 -306z" />
<glyph unicode="q" horiz-adv-x="1259" d="M59 506q0 236 138.5 374t353.5 146q145 0 261 -68.5t177 -185.5v240h98v-1434h-96v655q-63 -123 -173.5 -187t-244.5 -64q-223 0 -368.5 139t-145.5 385zM160 506q0 -205 116.5 -316.5t296.5 -111.5q174 0 292 120.5t118 305.5q0 186 -116.5 306t-293.5 120 q-180 0 -296.5 -109.5t-116.5 -314.5z" />
<glyph unicode="r" horiz-adv-x="802" d="M113 0v1012h94l4 -181q45 96 137 143.5t199 47.5h10q111 0 207 -59l-45 -82q-76 47 -172 47q-141 -2 -237.5 -100.5t-96.5 -237.5v-590h-100z" />
<glyph unicode="s" horiz-adv-x="1021" d="M53 186l74 66q59 -86 160.5 -129t210.5 -43q121 0 218 45t97 154q0 41 -20.5 72.5t-46 49t-78 34t-86 22.5t-99.5 16q-76 12 -118.5 21.5t-102 30t-92.5 47t-56.5 71.5t-23.5 105q0 137 116 208.5t279 71.5h7q233 0 376 -135l-61 -66q-121 106 -315 107h-9 q-125 0 -211 -47t-86 -135q0 -47 27 -82t72 -53.5t92 -30t100 -21.5q10 -2 17 -2q205 -37 276 -69q141 -68 141 -213v-15q-2 -104 -71.5 -170.5t-156.5 -89t-187 -22.5q-139 0 -259 52t-184 150z" />
<glyph unicode="t" horiz-adv-x="806" d="M31 928v84h215v295l98 10v-305h344v-84h-344v-617q0 -117 38 -175t148 -58q70 0 156 41l35 -82q-106 -51 -191 -51q-154 0 -219 84t-65 241v617h-215z" />
<glyph unicode="u" horiz-adv-x="1177" d="M111 430v584h100v-582q0 -168 94 -259t260 -91h6q156 2 255.5 106.5t99.5 262.5v563h100v-1014h-98v182q-109 -195 -361 -198q-205 0 -330.5 119.5t-125.5 326.5z" />
<glyph unicode="v" horiz-adv-x="1028" d="M16 1012h111l369 -895l368 895h111l-424 -1012h-111z" />
<glyph unicode="w" horiz-adv-x="1566" d="M-2 1012h111l305 -895l309 895h72l307 -895l303 895h111l-359 -1012h-110l-164 442l-123 394l-127 -396l-164 -440h-111z" />
<glyph unicode="x" horiz-adv-x="995" d="M18 0v4l392 520l-363 484v4h121l301 -414l301 414h121v-4l-363 -484l392 -520v-4h-119l-332 453l-332 -453h-119z" />
<glyph unicode="y" horiz-adv-x="1058" d="M35 1012h108l236 -598l119 -293l116 295l254 596h109l-617 -1434h-106l186 434z" />
<glyph unicode="z" horiz-adv-x="940" d="M49 0v35l645 887h-612v90h762v-39l-639 -879h639v-94h-795z" />
<glyph unicode="{" horiz-adv-x="653" d="M66 598v80q162 0 161 242v276q0 150 47.5 220.5t161.5 70.5q53 0 103 -10v-70q-43 6 -76 6q-86 0 -116 -48t-30 -169v-276q0 -41 -2 -69t-10 -67t-22.5 -63.5t-43 -48t-69.5 -33.5q49 -12 82 -42t45 -74t16 -79.5t4 -87.5v-301q0 -115 30 -162t108 -47q41 1 84 9v-78 q-51 -8 -101 -8q-123 0 -167 66.5t-44 219.5v301q0 242 -161 242z" />
<glyph unicode="|" horiz-adv-x="516" d="M180 -242v1686h109v-1686h-109z" />
<glyph unicode="}" horiz-adv-x="610" d="M37 -145q43 -8 84 -9q78 0 107.5 47.5t29.5 161.5v301q0 51 4 87t16.5 80t45 74t82.5 42q-41 10 -70 33.5t-43 48t-22.5 63.5t-10.5 67t-2 69v276q0 121 -29.5 169t-115.5 48q-33 0 -76 -6v70q49 10 102 10q115 0 162 -70.5t47 -220.5v-276q0 -242 162 -242v-80 q-162 0 -162 -242v-301q0 -154 -44 -220t-167 -66q-49 0 -100 8v78z" />
<glyph unicode="~" horiz-adv-x="1136" d="M29 573q43 96 114.5 152.5t159.5 56.5q76 0 158 -45l209 -119q70 -37 127 -36q109 0 155 135l84 -33q-78 -203 -243 -203q-70 0 -152 41l-223 129q-59 31 -115 31q-66 0 -118 -40t-81 -105z" />
<glyph unicode="&#xa1;" horiz-adv-x="399" d="M96 950q0 37 23.5 58.5t56.5 21.5t57.5 -21.5t24.5 -58.5t-24.5 -58.5t-57.5 -21.5t-56.5 21.5t-23.5 58.5zM129 -412v1145h104v-1145h-104z" />
<glyph unicode="&#xa2;" horiz-adv-x="1177" d="M121 485q0 217 133 356.5t340 157.5v123h98v-123q186 -20 320 -149l-70 -64q-125 123 -299 123q-182 0 -303 -111.5t-121 -312.5q0 -205 120 -313.5t304 -108.5q168 0 299 127l70 -71q-136 -132 -320 -148v-145h-98v145q-207 18 -340 153.5t-133 360.5z" />
<glyph unicode="&#xa3;" horiz-adv-x="1357" d="M121 0v92q203 211 203 406q0 61 -17 133h-186v88h164q-55 207 -56 319q0 201 138.5 304.5t351.5 103.5q203 0 332 -86t131 -285h-95q0 106 -59 171t-135 85.5t-174 20.5q-176 0 -282.5 -81t-106.5 -233q0 -39 6 -85t12 -75.5t19.5 -84t17.5 -74.5h530v-88h-512 q14 -86 15 -150q0 -219 -174 -383h952v-98h-1075z" />
<glyph unicode="&#xa4;" horiz-adv-x="1150" d="M88 279l123 122q-90 115 -90 267q0 147 88 264l-121 121l72 71l121 -123q106 80 256 80q147 0 254 -80l122 123l72 -71l-121 -121q86 -113 86 -264q0 -154 -88 -267l123 -122l-72 -72l-125 123q-102 -76 -251.5 -76t-253.5 76l-123 -123zM223 668q0 -129 83 -223.5 t230.5 -94.5t229.5 94.5t82 223.5q0 131 -82 225t-229.5 94t-230.5 -95t-83 -224z" />
<glyph unicode="&#xa5;" horiz-adv-x="1284" d="M8 1432v2h125l490 -754l491 754h125v-2l-520 -793h285v-84h-328v-129h328v-84h-328v-342h-109v342h-315v84h315v129h-315v84h272z" />
<glyph unicode="&#xa6;" horiz-adv-x="399" d="M109 -180v743h110v-743h-110zM109 700v746h110v-746h-110z" />
<glyph unicode="&#xa7;" horiz-adv-x="1103" d="M94 164l74 63q59 -84 160.5 -126t210.5 -42q53 0 101 8.5t99.5 28t83 58.5t33.5 94q2 63 -51 104t-99.5 52.5t-160.5 29.5q-12 2 -21 4q-395 61 -395 279q0 74 52 141.5t138 97.5q-190 68 -190 234q0 135 115.5 204.5t279.5 69.5h8q236 0 377 -133l-61 -63 q-121 104 -316 104h-8q-123 0 -210 -47t-87 -131q0 -33 12.5 -60.5t40 -47t51 -33t66.5 -23.5t66.5 -15t68.5 -14q68 -10 114 -20t109.5 -31.5t101.5 -48.5t66.5 -71t28.5 -101v-12q-6 -178 -209 -228q209 -61 209 -235v-12q-2 -102 -71.5 -168t-155.5 -87.5t-188 -21.5 q-139 0 -259 51.5t-184 147.5zM227 715q2 -84 100.5 -133.5t227.5 -49.5q127 0 215 49.5t86 141.5q-2 84 -105.5 136t-234.5 52q-125 0 -209 -50t-80 -146z" />
<glyph unicode="&#xa8;" horiz-adv-x="931" d="M131 1388.5q0 36.5 24.5 58t57.5 21.5t56.5 -21.5t23.5 -58t-23.5 -58t-56.5 -21.5t-57.5 21.5t-24.5 58zM569 1388.5q0 36.5 24.5 58t57.5 21.5t56.5 -21.5t23.5 -58t-23.5 -58t-56.5 -21.5t-57.5 21.5t-24.5 58z" />
<glyph unicode="&#xa9;" horiz-adv-x="1804" d="M131 713q0 319 197.5 533t541.5 214q342 0 541 -214t199 -533q0 -317 -199 -532.5t-541 -215.5q-344 0 -541.5 215t-197.5 533zM233 713q0 -283 171 -469.5t466 -186.5t465 186.5t170 469.5q0 285 -170 471t-465 186t-466 -186t-171 -471zM494 719q0 170 115.5 284.5 t285.5 114.5q168 0 281 -117l-72 -73q-90 86 -209 86q-125 0 -211 -85t-86 -210t86 -211t211 -86q121 0 209 88l72 -76q-113 -117 -281 -117q-170 0 -285.5 116t-115.5 286z" />
<glyph unicode="&#xaa;" horiz-adv-x="956" d="M80 1106q0 156 97 248t241 92q172 0 260 -137v127h90v-664h-90v129q-92 -137 -260 -137q-143 0 -240.5 93t-97.5 249zM104 547v98h684v-98h-684zM182 1105.5q0 -108.5 70 -178t172 -69.5q115 0 179.5 74t64.5 174t-64.5 173t-179.5 73q-102 0 -172 -69t-70 -177.5z" />
<glyph unicode="&#xab;" horiz-adv-x="761" d="M61 649l283 449h107v-11l-277 -438l277 -438v-12h-107zM254 649l283 449h106v-11l-276 -438l276 -438v-12h-106z" />
<glyph unicode="&#xac;" horiz-adv-x="925" d="M78 637v104h710v-383h-102v279h-608z" />
<glyph unicode="&#xad;" horiz-adv-x="978" d="M119 592v106h717v-106h-717z" />
<glyph unicode="&#xae;" horiz-adv-x="1871" d="M166 713q0 319 198.5 533t540.5 214q344 0 542 -214t198 -533q0 -317 -198 -532.5t-542 -215.5q-342 0 -540.5 215t-198.5 533zM270 713q0 -283 170 -469.5t465 -186.5t466 186.5t171 469.5q0 285 -171 471t-466 186t-465 -186t-170 -471zM633 332v784h348 q123 0 191.5 -72.5t68.5 -171.5q0 -90 -59.5 -161.5t-165.5 -83.5l246 -279v-16h-107l-256 295h-170v-295h-96zM729 713h246q80 0 125 47t45 110q0 61 -43 106.5t-121 45.5h-252v-309z" />
<glyph unicode="&#xb0;" horiz-adv-x="724" d="M119 1284q0 82 57 141.5t159.5 59.5t159 -59.5t56.5 -141.5t-56.5 -141.5t-159 -59.5t-159.5 59.5t-57 141.5zM209 1282q0 -49 33 -84t94 -35q57 0 88 37t31 86t-31 85t-88 36t-92 -38t-35 -87z" />
<glyph unicode="&#xb1;" horiz-adv-x="1062" d="M150 707v92h333v336h95v-336h331v-92h-331v-340h-95v340h-333zM166 96v97h733v-97h-733z" />
<glyph unicode="&#xb2;" horiz-adv-x="946" d="M195 877v163q0 106 82.5 165t199.5 59q174 0 174 135q0 131 -178 131q-84 0 -132 -26.5t-48 -104.5h-94q0 217 276 217q115 0 194 -49t79 -168q0 -221 -271 -221q-68 0 -126 -31t-58 -109v-75h442v-86h-540z" />
<glyph unicode="&#xb3;" horiz-adv-x="829" d="M117 1090h98q0 -127 180 -127q186 0 187 133q0 43 -45.5 80.5t-135.5 37.5h-112v89h104q70 0 123 27.5t53 86.5q0 45 -47 81t-129 36q-66 0 -122 -30.5t-56 -102.5h-88q0 109 77 162t189.5 53t191.5 -52.5t79 -148.5q0 -61 -33 -102t-86 -56q61 -16 97 -63t36 -98 q0 -225 -285 -226q-119 0 -196.5 52.5t-79.5 167.5z" />
<glyph unicode="&#xb4;" horiz-adv-x="458" d="M80 1182v8l153 246h134v-2l-189 -252h-98z" />
<glyph unicode="&#xb6;" horiz-adv-x="1660" d="M92 907q0 211 134 368t372 157h956v-91h-217v-1783h-96v1783h-551v-1783h-100v841q-236 0 -367 149.5t-131 358.5z" />
<glyph unicode="&#xb7;" horiz-adv-x="366" d="M74 694q0 37 24.5 58.5t57 21.5t56.5 -21.5t24 -58.5t-24 -58.5t-56.5 -21.5t-57 21.5t-24.5 58.5z" />
<glyph unicode="&#xb8;" horiz-adv-x="606" d="M45 -315l57 55q55 -80 154 -80q109 0 129 78q4 20 4 29q0 41 -32.5 68.5t-94.5 27.5q-36 0 -69 -8l-13 10l41 180h80l-27 -119h17q90 0 136 -45t46 -112q0 -25 -6 -50q-18 -72 -77.5 -107.5t-133.5 -35.5q-152 0 -211 109z" />
<glyph unicode="&#xb9;" horiz-adv-x="577" d="M104 1513v86h211v-638h105v-87h-311v87h108v552h-113z" />
<glyph unicode="&#xba;" horiz-adv-x="833" d="M102 1184v106q0 152 88.5 238t209 86t208.5 -86t88 -238v-106q0 -152 -88 -238t-208.5 -86t-209 86t-88.5 238zM199 1184q0 -109 59 -170.5t141 -61.5q80 0 138.5 61.5t58.5 170.5v106q0 111 -59.5 174.5t-139.5 63.5t-139 -63.5t-59 -174.5v-106z" />
<glyph unicode="&#xbb;" horiz-adv-x="761" d="M63 199v12l277 438l-277 438v11h107l283 -449l-283 -450h-107zM256 199v12l276 438l-276 438v11h106l283 -449l-283 -450h-106z" />
<glyph unicode="&#xbc;" horiz-adv-x="1589" d="M133 1348v86h211v-633h105v-86h-312v86h109v547h-113zM297 -14l764 1462h110l-765 -1462h-109zM829 238l359 491h133v-477h86v-90h-86v-160h-92v160h-393zM944 252h285v387z" />
<glyph unicode="&#xbd;" horiz-adv-x="1662" d="M133 1348v86h211v-633h105v-86h-312v86h109v547h-113zM297 -14l764 1462h110l-765 -1462h-109zM958 0v164q0 106 83 164.5t200 58.5q174 0 174 135q0 131 -178 131q-84 0 -132 -26.5t-48 -104.5h-94q0 217 276 217q115 0 193.5 -49t78.5 -168q0 -221 -270 -221 q-68 0 -126 -30.5t-58 -108.5v-76h442v-86h-541z" />
<glyph unicode="&#xbe;" horiz-adv-x="1634" d="M111 942h96q0 -125 176 -125q184 0 184 131q0 41 -45 79t-133 38h-110v86h102q68 0 121 26.5t53 86.5q0 45 -47 79.5t-127 34.5q-63 0 -118.5 -29.5t-55.5 -101.5h-86q0 106 74.5 158.5t185.5 52.5q113 0 189.5 -50t76.5 -146q0 -123 -117 -156q61 -14 96.5 -61.5 t35.5 -96.5q0 -121 -80 -171t-201 -50q-115 0 -191.5 51t-78.5 164zM395 -14l789 1462h108l-792 -1462h-105zM911 238l359 491h133v-477h86v-90h-86v-160h-92v160h-393zM1026 252h285v387z" />
<glyph unicode="&#xbf;" horiz-adv-x="1325" d="M84 -31q0 168 87 261.5t210 129.5q162 49 204 112t42 255h102q0 -213 -66.5 -308t-254.5 -151q-219 -66 -220 -299q0 -313 449 -313q78 0 149.5 14.5t140 48t110.5 100t42 156.5h107q0 -90 -33 -162.5t-86 -118.5t-126 -78t-148.5 -45t-155.5 -13q-84 0 -159 11 t-148.5 40t-126.5 74t-86 118.5t-33 167.5zM590 942q0 37 23.5 58.5t56 21.5t56.5 -21.5t24 -58.5t-24 -58.5t-56.5 -21.5t-56 21.5t-23.5 58.5z" />
<glyph unicode="&#xc0;" horiz-adv-x="1421" d="M-16 0l643 1434h121l643 -1434h-119l-158 352h-856l-156 -352h-118zM301 455h770l-385 872zM457 1833v2h133l153 -246v-8h-98z" />
<glyph unicode="&#xc1;" horiz-adv-x="1421" d="M-16 0l643 1434h121l643 -1434h-119l-158 352h-856l-156 -352h-118zM301 455h770l-385 872zM621 1579v8l153 246h133v-2l-188 -252h-98z" />
<glyph unicode="&#xc2;" horiz-adv-x="1421" d="M-16 0l643 1434h121l643 -1434h-119l-158 352h-856l-156 -352h-118zM301 455h770l-385 872zM354 1554v15l291 270h82l291 -270v-15h-109l-223 197l-223 -197h-109z" />
<glyph unicode="&#xc3;" horiz-adv-x="1421" d="M-16 0l643 1434h121l643 -1434h-119l-158 352h-856l-156 -352h-118zM301 455h770l-385 872zM430 1630q8 66 50 102.5t100 36.5q35 0 79 -20l84 -45q25 -12 50 -12q61 0 75 65l70 -22q-6 -66 -48 -103t-99 -37q-43 0 -82 21l-84 45q-20 10 -50 10q-61 0 -75 -63z" />
<glyph unicode="&#xc4;" horiz-adv-x="1421" d="M-16 0l643 1434h121l643 -1434h-119l-158 352h-856l-156 -352h-118zM301 455h770l-385 872zM389 1661q0 37 24.5 58.5t57.5 21.5t56.5 -21.5t23.5 -58.5t-23.5 -58.5t-56.5 -21.5t-57.5 21.5t-24.5 58.5zM827 1661q0 37 25 58.5t57.5 21.5t56 -21.5t23.5 -58.5 t-23.5 -58.5t-56 -21.5t-57.5 21.5t-25 58.5z" />
<glyph unicode="&#xc5;" horiz-adv-x="1421" d="M-16 0l637 1419q-146 37 -146 195q0 92 63.5 144t151.5 52t153.5 -52t65.5 -144q0 -76 -42 -128t-113 -69l637 -1417h-119l-158 352h-856l-156 -352h-118zM301 455h770l-385 872zM567 1610q0 -49 32 -85t89 -36q61 0 94 36t33 85q0 51 -33 87t-94 36q-57 0 -89 -36 t-32 -87z" />
<glyph unicode="&#xc6;" horiz-adv-x="1959" d="M25 0l872 1434h918v-101h-748v-561h707v-100h-707v-568h776v-104h-878v508h-512l-301 -508h-127zM512 608h453v742h-11z" />
<glyph unicode="&#xc7;" horiz-adv-x="1378" d="M55 719q0 143 48.5 274t137.5 233.5t232 163t320 60.5q307 0 522 -215l-76 -66q-182 182 -446 183q-301 0 -467 -183.5t-164 -455.5q4 -266 169 -446.5t462 -180.5q262 0 448 182l74 -69q-209 -209 -506 -215l-25 -109h17q90 0 137 -46t47 -114q0 -23 -6 -47 q-18 -72 -78.5 -109.5t-134.5 -37.5q-66 0 -125 28.5t-88 81.5l59 58q55 -80 154 -80q109 0 129 78q4 20 4 28q0 41 -34 69t-95 28q-37 -1 -70 -9l-12 11l43 172q-322 20 -499 228t-177 505z" />
<glyph unicode="&#xc8;" horiz-adv-x="1257" d="M131 0v1434h989v-105h-880v-557h839v-100h-839v-566h905v-106h-1014zM461 1851v2h133l154 -245v-9h-99z" />
<glyph unicode="&#xc9;" horiz-adv-x="1257" d="M131 0v1434h989v-105h-880v-557h839v-100h-839v-566h905v-106h-1014zM559 1593v9l154 245h133v-2l-189 -252h-98z" />
<glyph unicode="&#xca;" horiz-adv-x="1257" d="M131 0v1434h989v-105h-880v-557h839v-100h-839v-566h905v-106h-1014zM313 1583v14l291 271h82l291 -271v-14h-109l-223 197l-223 -197h-109z" />
<glyph unicode="&#xcb;" horiz-adv-x="1257" d="M131 0v1434h989v-105h-880v-557h839v-100h-839v-566h905v-106h-1014zM358 1675q0 37 24 58.5t56.5 21.5t57 -21.5t24.5 -58.5t-24.5 -58.5t-57 -21.5t-56.5 21.5t-24 58.5zM797 1675q0 37 23.5 58.5t56 21.5t57 -21.5t24.5 -58.5t-24.5 -58.5t-57 -21.5t-56 21.5 t-23.5 58.5z" />
<glyph unicode="&#xcc;" horiz-adv-x="425" d="M-35 1845v2h133l154 -245v-9h-98zM133 0v1434h109v-1434h-109z" />
<glyph unicode="&#xcd;" horiz-adv-x="425" d="M129 1591v8l154 246h133v-2l-189 -252h-98zM133 0v1434h109v-1434h-109z" />
<glyph unicode="&#xce;" horiz-adv-x="425" d="M-119 1556v15l262 268h74l260 -268v-15h-96l-201 195l-200 -195h-99zM133 0v1434h109v-1434h-109z" />
<glyph unicode="&#xcf;" horiz-adv-x="425" d="M-57 1659q0 37 24.5 58.5t57 21.5t56 -21.5t23.5 -58.5t-23.5 -58.5t-56 -21.5t-57 21.5t-24.5 58.5zM133 0v1434h109v-1434h-109zM270 1659q0 37 24.5 58.5t57.5 21.5t56.5 -21.5t23.5 -58.5t-23.5 -58.5t-56.5 -21.5t-57.5 21.5t-24.5 58.5z" />
<glyph unicode="&#xd0;" horiz-adv-x="1452" d="M-16 649v101h137v684h485q176 0 316.5 -59.5t227.5 -160t133 -223.5t50 -258v-18q0 -137 -45 -263t-132 -228.5t-229.5 -163t-320.5 -60.5h-485v649h-137zM231 106h375q152 0 272.5 52.5t194.5 140.5t112 195.5t38 224.5v14q-4 246 -165 421t-452 175h-375v-579h334v-101 h-334v-543z" />
<glyph unicode="&#xd1;" horiz-adv-x="1441" d="M133 0v1434h47l965 -1186v1186h108v-1434h-43l-966 1184v-1184h-111zM473 1624q8 66 50 102.5t100 36.5q35 0 79 -20l84 -45q25 -12 50 -12q61 0 75 65l70 -22q-6 -66 -48 -103t-99 -37q-43 0 -82 21l-84 45q-20 10 -50 10q-61 0 -75 -63z" />
<glyph unicode="&#xd2;" horiz-adv-x="1646" d="M70 719q0 199 77.5 362.5t246 269t399.5 105.5q174 0 314 -60.5t228 -164t134.5 -234.5t46.5 -278q0 -145 -46.5 -277.5t-133.5 -237t-227 -167t-316 -62.5q-174 0 -314.5 62.5t-228.5 168t-134 236.5t-46 277zM178 721q0 -264 162 -453.5t453 -189.5q197 0 340 94 t209.5 235.5t66.5 309.5q0 266 -162 451.5t-454.5 185.5t-453.5 -182.5t-161 -450.5zM575 1855v3h134l153 -246v-8h-98z" />
<glyph unicode="&#xd3;" horiz-adv-x="1646" d="M70 719q0 199 77.5 362.5t246 269t399.5 105.5q174 0 314 -60.5t228 -164t134.5 -234.5t46.5 -278q0 -145 -46.5 -277.5t-133.5 -237t-227 -167t-316 -62.5q-174 0 -314.5 62.5t-228.5 168t-134 236.5t-46 277zM178 721q0 -264 162 -453.5t453 -189.5q197 0 340 94 t209.5 235.5t66.5 309.5q0 266 -162 451.5t-454.5 185.5t-453.5 -182.5t-161 -450.5zM735 1604v8l154 246h133v-3l-188 -251h-99z" />
<glyph unicode="&#xd4;" horiz-adv-x="1646" d="M70 719q0 199 77.5 362.5t246 269t399.5 105.5q174 0 314 -60.5t228 -164t134.5 -234.5t46.5 -278q0 -145 -46.5 -277.5t-133.5 -237t-227 -167t-316 -62.5q-174 0 -314.5 62.5t-228.5 168t-134 236.5t-46 277zM178 721q0 -264 162 -453.5t453 -189.5q197 0 340 94 t209.5 235.5t66.5 309.5q0 266 -162 451.5t-454.5 185.5t-453.5 -182.5t-161 -450.5zM475 1595v15l291 270h82l291 -270v-15h-109l-223 197l-223 -197h-109z" />
<glyph unicode="&#xd5;" horiz-adv-x="1646" d="M70 719q0 199 77.5 362.5t246 269t399.5 105.5q174 0 314 -60.5t228 -164t134.5 -234.5t46.5 -278q0 -145 -46.5 -277.5t-133.5 -237t-227 -167t-316 -62.5q-174 0 -314.5 62.5t-228.5 168t-134 236.5t-46 277zM178 721q0 -264 162 -453.5t453 -189.5q197 0 340 94 t209.5 235.5t66.5 309.5q0 266 -162 451.5t-454.5 185.5t-453.5 -182.5t-161 -450.5zM539 1657q8 66 50 102.5t99 36.5q35 0 80 -20l84 -45q25 -12 49 -13q61 0 76 66l70 -23q-6 -66 -48.5 -102.5t-99.5 -36.5q-43 0 -82 20l-84 46q-20 10 -49 10q-62 -1 -76 -64z" />
<glyph unicode="&#xd6;" horiz-adv-x="1646" d="M70 719q0 199 77.5 362.5t246 269t399.5 105.5q174 0 314 -60.5t228 -164t134.5 -234.5t46.5 -278q0 -145 -46.5 -277.5t-133.5 -237t-227 -167t-316 -62.5q-174 0 -314.5 62.5t-228.5 168t-134 236.5t-46 277zM178 721q0 -264 162 -453.5t453 -189.5q197 0 340 94 t209.5 235.5t66.5 309.5q0 266 -162 451.5t-454.5 185.5t-453.5 -182.5t-161 -450.5zM516 1683.5q0 36.5 24.5 58t57.5 21.5t56.5 -21.5t23.5 -58t-23.5 -58t-56.5 -21.5t-57.5 21.5t-24.5 58zM954 1683.5q0 36.5 25 58t57.5 21.5t56 -21.5t23.5 -58t-23.5 -58t-56 -21.5 t-57.5 21.5t-25 58z" />
<glyph unicode="&#xd7;" horiz-adv-x="870" d="M78 401l260 263l-254 251l63 64l254 -252l250 250l70 -68l-252 -252l254 -251l-64 -64l-253 252l-261 -260z" />
<glyph unicode="&#xd8;" horiz-adv-x="1646" d="M70 719q0 199 77.5 362.5t245.5 269t400 105.5q197 0 348 -78l102 181h111l-131 -228q143 -100 218 -263t75 -353q0 -143 -47.5 -274.5t-134.5 -236t-227 -167t-314 -62.5q-162 0 -308 58l-110 -195h-109l135 238q-162 98 -246.5 270t-84.5 373zM178 721 q0 -172 70.5 -318.5t206.5 -232.5l635 1118q-135 66 -297 66q-293 0 -454 -182.5t-161 -450.5zM539 125q113 -47 254 -47q197 0 340 94t209.5 235.5t66.5 309.5q0 158 -61.5 295t-176.5 225z" />
<glyph unicode="&#xd9;" horiz-adv-x="1398" d="M131 543v891h109v-891q0 -217 131 -339t309 -122q180 0 310 122t130 339v891h109v-891q0 -266 -163 -414.5t-386 -148.5t-386 148t-163 415zM481 1837v2h133l154 -246v-8h-98z" />
<glyph unicode="&#xda;" horiz-adv-x="1398" d="M131 543v891h109v-891q0 -217 131 -339t309 -122q180 0 310 122t130 339v891h109v-891q0 -266 -163 -414.5t-386 -148.5t-386 148t-163 415zM596 1587v8l154 246h133v-2l-189 -252h-98z" />
<glyph unicode="&#xdb;" horiz-adv-x="1398" d="M131 543v891h109v-891q0 -217 131 -339t309 -122q180 0 310 122t130 339v891h109v-891q0 -266 -163 -414.5t-386 -148.5t-386 148t-163 415zM348 1573v14l291 271h82l291 -271v-14h-109l-223 196l-223 -196h-109z" />
<glyph unicode="&#xdc;" horiz-adv-x="1398" d="M131 543v891h109v-891q0 -217 131 -339t309 -122q180 0 310 122t130 339v891h109v-891q0 -266 -163 -414.5t-386 -148.5t-386 148t-163 415zM381 1677q0 37 24.5 58.5t57.5 21.5t56.5 -21.5t23.5 -58.5t-23.5 -58.5t-56.5 -21.5t-57.5 21.5t-24.5 58.5zM819 1677 q0 37 24.5 58.5t57.5 21.5t56.5 -21.5t23.5 -58.5t-23.5 -58.5t-56.5 -21.5t-57.5 21.5t-24.5 58.5z" />
<glyph unicode="&#xdd;" horiz-adv-x="1308" d="M8 1432v2h129l486 -754l487 754h129v-2l-561 -859v-573h-111v573zM541 1591v8l153 246h133v-2l-188 -252h-98z" />
<glyph unicode="&#xde;" horiz-adv-x="1339" d="M137 0v1432h103v-250h526q221 0 344 -139.5t123 -330t-123 -329.5t-344 -139h-524v-244h-105zM242 344h524q168 0 263 109.5t95 259t-95 258t-263 108.5h-524v-735z" />
<glyph unicode="&#xdf;" horiz-adv-x="1202" d="M117 0v1061q0 195 119.5 295t304.5 100q193 0 314.5 -91t121.5 -278q0 -111 -62.5 -192.5t-166.5 -108.5q324 -68 323 -411q0 -205 -121 -306.5t-305 -101.5q-143 0 -283 58v94q129 -63 263 -64q152 0 251 84t99 234q0 358 -438 358h-175v90h166q61 0 116.5 11.5t111 39 t89.5 83t34 132.5q0 276 -334 277q-172 0 -248 -81t-82 -224v-1059h-98z" />
<glyph unicode="&#xe0;" d="M57 506q0 227 148.5 372.5t365.5 145.5q129 0 241 -59.5t173 -173.5v221h100v-1012h-100v215q-143 -231 -414 -231q-215 0 -364.5 147.5t-149.5 374.5zM158 505.5q0 -186.5 118.5 -305t294.5 -118.5q201 0 311.5 125t110.5 297t-110.5 298t-311.5 126q-176 0 -294.5 -118 t-118.5 -304.5zM389 1448v2h133l154 -246v-8h-98z" />
<glyph unicode="&#xe1;" d="M57 506q0 227 148.5 372.5t365.5 145.5q129 0 241 -59.5t173 -173.5v221h100v-1012h-100v215q-143 -231 -414 -231q-215 0 -364.5 147.5t-149.5 374.5zM158 505.5q0 -186.5 118.5 -305t294.5 -118.5q201 0 311.5 125t110.5 297t-110.5 298t-311.5 126q-176 0 -294.5 -118 t-118.5 -304.5zM508 1192v8l154 246h133v-2l-189 -252h-98z" />
<glyph unicode="&#xe2;" d="M57 506q0 227 148.5 372.5t365.5 145.5q129 0 241 -59.5t173 -173.5v221h100v-1012h-100v215q-143 -231 -414 -231q-215 0 -364.5 147.5t-149.5 374.5zM158 505.5q0 -186.5 118.5 -305t294.5 -118.5q201 0 311.5 125t110.5 297t-110.5 298t-311.5 126q-176 0 -294.5 -118 t-118.5 -304.5zM260 1155v14l291 271h82l291 -271v-14h-109l-223 197l-223 -197h-109z" />
<glyph unicode="&#xe3;" d="M57 506q0 227 148.5 372.5t365.5 145.5q129 0 241 -59.5t173 -173.5v221h100v-1012h-100v215q-143 -231 -414 -231q-215 0 -364.5 147.5t-149.5 374.5zM158 505.5q0 -186.5 118.5 -305t294.5 -118.5q201 0 311.5 125t110.5 297t-110.5 298t-311.5 126q-176 0 -294.5 -118 t-118.5 -304.5zM342 1298q8 66 50 103t100 37q35 0 79 -21l84 -45q25 -12 50 -12q61 0 75 65l70 -22q-6 -66 -48 -102.5t-100 -36.5q-43 0 -81 20l-84 45q-20 10 -50 10q-61 0 -75 -63z" />
<glyph unicode="&#xe4;" d="M57 506q0 227 148.5 372.5t365.5 145.5q129 0 241 -59.5t173 -173.5v221h100v-1012h-100v215q-143 -231 -414 -231q-215 0 -364.5 147.5t-149.5 374.5zM158 505.5q0 -186.5 118.5 -305t294.5 -118.5q201 0 311.5 125t110.5 297t-110.5 298t-311.5 126q-176 0 -294.5 -118 t-118.5 -304.5zM311 1368q0 37 24.5 58.5t57.5 21.5t56.5 -21.5t23.5 -58.5t-23.5 -58.5t-56.5 -21.5t-57.5 21.5t-24.5 58.5zM750 1368q0 37 24.5 58.5t57 21.5t56 -21.5t23.5 -58.5t-23.5 -58.5t-56 -21.5t-57 21.5t-24.5 58.5z" />
<glyph unicode="&#xe5;" d="M57 506q0 227 148.5 372.5t365.5 145.5q129 0 241 -59.5t173 -173.5v221h100v-1012h-100v215q-143 -231 -414 -231q-215 0 -364.5 147.5t-149.5 374.5zM158 505.5q0 -186.5 118.5 -305t294.5 -118.5q201 0 311.5 125t110.5 297t-110.5 298t-311.5 126q-176 0 -294.5 -118 t-118.5 -304.5zM385 1335q0 88 62.5 137.5t150.5 49.5t153.5 -49.5t65.5 -137.5q0 -90 -62.5 -141t-158.5 -51q-98 0 -154.5 51t-56.5 141zM475 1335q0 -47 32 -79.5t89 -32.5q61 0 94 32.5t33 79.5t-33 80t-94 33q-57 0 -89 -33t-32 -80z" />
<glyph unicode="&#xe6;" horiz-adv-x="2134" d="M57 506q0 227 148.5 372.5t365.5 145.5q129 0 245 -60.5t175 -172.5v221h84v-213q63 109 171 169t241 60q215 0 359.5 -125t144.5 -366q0 -25 -4 -78h-916q14 -172 133 -273.5t283 -101.5q104 0 206.5 41t157.5 113l72 -58q-72 -94 -190.5 -144t-245.5 -50 q-135 0 -243.5 57t-172.5 162v-205h-84v215q-143 -231 -416 -231q-215 0 -364.5 147.5t-149.5 374.5zM158 505.5q0 -186.5 118.5 -305t294.5 -118.5q201 0 312.5 125t111.5 297t-111.5 298t-312.5 126q-176 0 -294.5 -118t-118.5 -304.5zM1071 547h825q-2 184 -112.5 286.5 t-296.5 102.5q-162 0 -281 -104.5t-135 -284.5z" />
<glyph unicode="&#xe7;" horiz-adv-x="1034" d="M53 506q0 236 147.5 376t372.5 140q213 0 369 -152l-65 -63q-121 121 -304 121q-180 0 -300.5 -113t-120.5 -309.5t120.5 -309t300.5 -112.5q176 0 301 125l68 -68q-152 -152 -369 -151h-2l-22 -99h16q90 0 136.5 -45t46.5 -112q0 -25 -7 -49q-18 -72 -77.5 -108 t-133.5 -36q-152 0 -211 109l58 55q55 -80 153 -80q109 0 129 78q4 20 5 29q0 41 -33 68.5t-94 27.5q-37 0 -70 -8l-12 10l37 166q-190 25 -314.5 162t-124.5 348z" />
<glyph unicode="&#xe8;" horiz-adv-x="1216" d="M55 506q0 225 149.5 373.5t364.5 148.5t359.5 -125t144.5 -366q0 -25 -4 -78h-911q14 -172 132 -273.5t279 -101.5q104 0 207 41t158 113l72 -58q-72 -94 -191 -144t-246 -50q-219 0 -366.5 142t-147.5 378zM158 547h821q-2 184 -112.5 286.5t-297.5 102.5 q-162 0 -278.5 -104.5t-132.5 -284.5zM395 1434v2h133l154 -246v-8h-98z" />
<glyph unicode="&#xe9;" horiz-adv-x="1216" d="M55 506q0 225 149.5 373.5t364.5 148.5t359.5 -125t144.5 -366q0 -25 -4 -78h-911q14 -172 132 -273.5t279 -101.5q104 0 207 41t158 113l72 -58q-72 -94 -191 -144t-246 -50q-219 0 -366.5 142t-147.5 378zM158 547h821q-2 184 -112.5 286.5t-297.5 102.5 q-162 0 -278.5 -104.5t-132.5 -284.5zM500 1182v8l153 246h133v-2l-188 -252h-98z" />
<glyph unicode="&#xea;" horiz-adv-x="1216" d="M55 506q0 225 149.5 373.5t364.5 148.5t359.5 -125t144.5 -366q0 -25 -4 -78h-911q14 -172 132 -273.5t279 -101.5q104 0 207 41t158 113l72 -58q-72 -94 -191 -144t-246 -50q-219 0 -366.5 142t-147.5 378zM158 547h821q-2 184 -112.5 286.5t-297.5 102.5 q-162 0 -278.5 -104.5t-132.5 -284.5zM254 1151v14l291 271h82l291 -271v-14h-109l-223 197l-224 -197h-108z" />
<glyph unicode="&#xeb;" horiz-adv-x="1216" d="M55 506q0 225 149.5 373.5t364.5 148.5t359.5 -125t144.5 -366q0 -25 -4 -78h-911q14 -172 132 -273.5t279 -101.5q104 0 207 41t158 113l72 -58q-72 -94 -191 -144t-246 -50q-219 0 -366.5 142t-147.5 378zM158 547h821q-2 184 -112.5 286.5t-297.5 102.5 q-162 0 -278.5 -104.5t-132.5 -284.5zM285 1354q0 37 23.5 58.5t56 21.5t57 -21.5t24.5 -58.5t-24.5 -58.5t-57 -21.5t-56 21.5t-23.5 58.5zM723 1354q0 37 23.5 58.5t56.5 21.5t57.5 -21.5t24.5 -58.5t-24.5 -58.5t-57.5 -21.5t-56.5 21.5t-23.5 58.5z" />
<glyph unicode="&#xec;" horiz-adv-x="352" d="M-18 1434v2h114l115 -240v-8h-94zM106 0v1016h101v-1016h-101z" />
<glyph unicode="&#xed;" horiz-adv-x="360" d="M84 1188v8l115 240h114v-2l-135 -246h-94zM94 0v1016h101v-1016h-101z" />
<glyph unicode="&#xee;" horiz-adv-x="393" d="M-61 1176v14l200 246h64l190 -246v-14h-86l-137 172l-143 -172h-88zM113 0v1016h100v-1016h-100z" />
<glyph unicode="&#xef;" horiz-adv-x="395" d="M-55 1347.5q0 34.5 22.5 54t53 19.5t54 -19.5t23.5 -54t-23.5 -54t-54 -19.5t-53 19.5t-22.5 54zM113 0v1016h100v-1016h-100zM227 1347.5q0 34.5 22.5 54t53.5 19.5t53.5 -19.5t22.5 -54t-22.5 -54t-53.5 -19.5t-53.5 19.5t-22.5 54z" />
<glyph unicode="&#xf0;" horiz-adv-x="1220" d="M63 487.5q0 208.5 137.5 360t383.5 151.5q211 0 379 -159q-63 213 -301 372l-87 -122l-65 45l84 120q-111 61 -213 88l29 87q139 -45 237 -101l96 137l66 -45l-94 -133q389 -260 389 -780q0 -238 -141.5 -384.5t-378.5 -146.5q-246 0 -383.5 151t-137.5 359.5zM166 489 q0 -170 110.5 -293.5t307 -123.5t307 123.5t110.5 293.5t-110.5 294t-307 124t-307 -124t-110.5 -294z" />
<glyph unicode="&#xf1;" horiz-adv-x="1177" d="M113 0v1012h98v-181q109 195 360 199q205 0 331 -119.5t126 -326.5v-584h-100v582q0 168 -94.5 259t-260.5 91h-6q-156 -2 -255 -106.5t-99 -262.5v-563h-100zM315 1300q8 61 49.5 95.5t98.5 34.5q41 0 80 -19l84 -43q27 -10 49 -10q61 0 76 59l69 -20q-6 -61 -47 -95 t-100 -34q-43 0 -82 18l-84 43q-25 10 -47 10q-62 0 -76 -59z" />
<glyph unicode="&#xf2;" horiz-adv-x="1212" d="M66 503.5q0 235.5 147 381t366.5 145.5t367 -145.5t147.5 -381t-147.5 -376.5t-367 -141t-366.5 141t-147 376.5zM164 504q0 -190 118.5 -305t297 -115t297 114.5t118.5 305.5q0 193 -119.5 312.5t-296 119.5t-296 -120t-119.5 -312zM377 1444v2h133l154 -238v-8h-99z " />
<glyph unicode="&#xf3;" horiz-adv-x="1212" d="M66 503.5q0 235.5 147 381t366.5 145.5t367 -145.5t147.5 -381t-147.5 -376.5t-367 -141t-366.5 141t-147 376.5zM164 504q0 -190 118.5 -305t297 -115t297 114.5t118.5 305.5q0 193 -119.5 312.5t-296 119.5t-296 -120t-119.5 -312zM514 1188v8l148 229h129v-2 l-183 -235h-94z" />
<glyph unicode="&#xf4;" horiz-adv-x="1212" d="M66 503.5q0 235.5 147 381t366.5 145.5t367 -145.5t147.5 -381t-147.5 -376.5t-367 -141t-366.5 141t-147 376.5zM164 504q0 -190 118.5 -305t297 -115t297 114.5t118.5 305.5q0 193 -119.5 312.5t-296 119.5t-296 -120t-119.5 -312zM262 1171v15l291 270h82l291 -270 v-15h-109l-223 197l-223 -197h-109z" />
<glyph unicode="&#xf5;" horiz-adv-x="1212" d="M66 503.5q0 235.5 147 381t366.5 145.5t367 -145.5t147.5 -381t-147.5 -376.5t-367 -141t-366.5 141t-147 376.5zM164 504q0 -190 118.5 -305t297 -115t297 114.5t118.5 305.5q0 193 -119.5 312.5t-296 119.5t-296 -120t-119.5 -312zM336 1294q8 63 50 98t99 35 q43 0 82 -18l84 -43q25 -12 49 -12q61 0 76 63l70 -20q-6 -63 -47 -99t-99 -36q-45 0 -84 20l-84 43q-27 10 -49 10q-63 0 -77 -61z" />
<glyph unicode="&#xf6;" horiz-adv-x="1212" d="M66 503.5q0 235.5 147 381t366.5 145.5t367 -145.5t147.5 -381t-147.5 -376.5t-367 -141t-366.5 141t-147 376.5zM164 504q0 -190 118.5 -305t297 -115t297 114.5t118.5 305.5q0 193 -119.5 312.5t-296 119.5t-296 -120t-119.5 -312zM291 1317q0 37 24.5 58.5t57.5 21.5 t56.5 -21.5t23.5 -58.5t-23.5 -58.5t-56.5 -21.5t-57.5 21.5t-24.5 58.5zM729 1317q0 37 24.5 58.5t57.5 21.5t56.5 -21.5t23.5 -58.5t-23.5 -58.5t-56.5 -21.5t-57.5 21.5t-24.5 58.5z" />
<glyph unicode="&#xf7;" horiz-adv-x="993" d="M74 633v102h827v-102h-827zM412 366.5q0 36.5 23.5 58t56 21.5t57 -21.5t24.5 -58t-24.5 -58t-57 -21.5t-56 21.5t-23.5 58zM412 991q0 37 23.5 58.5t56 21.5t57 -21.5t24.5 -58.5t-24.5 -58.5t-57 -21.5t-56 21.5t-23.5 58.5z" />
<glyph unicode="&#xf8;" horiz-adv-x="1212" d="M66 504q0 236 147 381t367 145q127 0 237 -53l76 127h104l-104 -174q201 -150 201 -426q0 -236 -147.5 -377t-366.5 -141q-127 0 -226 45l-84 -142h-102l111 185q-213 141 -213 430zM164 504q0 -229 166 -344l436 733q-90 43 -186 43q-176 0 -296 -120t-120 -312z M408 117q74 -33 172 -33q178 0 296.5 114.5t118.5 305.5q0 219 -153 342z" />
<glyph unicode="&#xf9;" horiz-adv-x="1177" d="M111 430v584h100v-582q0 -168 94 -259t260 -91h6q156 2 255.5 106.5t99.5 262.5v563h100v-1014h-98v182q-109 -195 -361 -198q-205 0 -330.5 119.5t-125.5 326.5zM379 1434v2h133l154 -246v-8h-99z" />
<glyph unicode="&#xfa;" horiz-adv-x="1177" d="M111 430v584h100v-582q0 -168 94 -259t260 -91h6q156 2 255.5 106.5t99.5 262.5v563h100v-1014h-98v182q-109 -195 -361 -198q-205 0 -330.5 119.5t-125.5 326.5zM506 1182v8l153 246h134v-2l-189 -252h-98z" />
<glyph unicode="&#xfb;" horiz-adv-x="1177" d="M111 430v584h100v-582q0 -168 94 -259t260 -91h6q156 2 255.5 106.5t99.5 262.5v563h100v-1014h-98v182q-109 -195 -361 -198q-205 0 -330.5 119.5t-125.5 326.5zM256 1161v15l281 260h79l281 -260v-15h-104l-218 189l-215 -189h-104z" />
<glyph unicode="&#xfc;" horiz-adv-x="1177" d="M111 430v584h100v-582q0 -168 94 -259t260 -91h6q156 2 255.5 106.5t99.5 262.5v563h100v-1014h-98v182q-109 -195 -361 -198q-205 0 -330.5 119.5t-125.5 326.5zM287 1354q0 37 24.5 58.5t57 21.5t56.5 -21.5t24 -58.5t-24 -58.5t-56.5 -21.5t-57 21.5t-24.5 58.5z M725 1354q0 37 24.5 58.5t57.5 21.5t56.5 -21.5t23.5 -58.5t-23.5 -58.5t-56.5 -21.5t-57.5 21.5t-24.5 58.5z" />
<glyph unicode="&#xfd;" horiz-adv-x="1058" d="M35 1012h108l236 -598l119 -293l116 295l254 596h109l-617 -1434h-106l186 434zM436 1196v8l144 232h127v-2l-179 -238h-92z" />
<glyph unicode="&#xfe;" horiz-adv-x="1273" d="M119 -422v1854h94l2 -660q61 117 178 185.5t262 68.5q215 -8 353.5 -146.5t138.5 -373.5q0 -246 -145.5 -385t-368.5 -139q-133 0 -243.5 64.5t-174.5 186.5v-655h-96zM223 504q0 -184 118 -305t292 -121q180 0 297 111.5t117 316.5t-117 314.5t-297 109.5 q-176 0 -293 -120t-117 -306z" />
<glyph unicode="&#x152;" horiz-adv-x="1998" d="M109 719q0 199 77.5 359.5t244.5 264t400 103.5q78 0 146 -12h831v-99h-741v-563h696v-100h-696v-574h772v-98h-866q-76 -10 -142 -10q-174 0 -314 60.5t-228 162.5t-134 231t-46 275zM217 721q0 -264 162 -451.5t452 -187.5q74 0 142 12v1254q-68 12 -142 12 q-293 0 -453.5 -185.5t-160.5 -453.5z" />
<glyph unicode="&#x153;" horiz-adv-x="2209" d="M102 503.5q0 235.5 147.5 381t366.5 145.5q160 0 280 -82t175 -227q55 137 176 222t275 85q213 0 354 -125t141 -364q0 -23 -4 -80q-594 0 -897 -2q14 -172 129 -272.5t277 -100.5q104 0 202.5 41t153.5 113l72 -58q-72 -94 -187.5 -144t-240.5 -50q-156 0 -277 82 t-174 217q-55 -143 -175 -221t-280 -78q-219 0 -366.5 141t-147.5 376.5zM201 504q0 -190 118.5 -305t296.5 -115q176 0 294 113.5t118 306t-117.5 312.5t-294 120t-296 -120t-119.5 -312zM1116 547h807q-2 184 -109.5 286.5t-291.5 102.5q-162 0 -276 -104.5t-130 -284.5z " />
<glyph unicode="&#x178;" horiz-adv-x="1308" d="M8 1432v2h129l486 -754l487 754h129v-2l-561 -859v-573h-111v573zM322 1651q0 37 23.5 58.5t56 21.5t57 -21.5t24.5 -58.5t-24.5 -58.5t-57 -21.5t-56 21.5t-23.5 58.5zM760 1651q0 37 23.5 58.5t56 21.5t57.5 -21.5t25 -58.5t-25 -58.5t-57.5 -21.5t-56 21.5t-23.5 58.5 z" />
<glyph unicode="&#x2c6;" horiz-adv-x="862" d="M74 1151v14l291 271h81l291 -271v-14h-108l-223 197l-224 -197h-108z" />
<glyph unicode="&#x2dc;" horiz-adv-x="665" d="M63 1309q8 66 50.5 102.5t99.5 36.5q35 0 80 -21l84 -45q25 -12 49 -12q61 0 76 66l69 -23q-6 -66 -48 -102.5t-99 -36.5q-43 0 -82 20l-84 45q-20 10 -49 11q-62 -1 -76 -64z" />
<glyph unicode="&#x2000;" horiz-adv-x="940" />
<glyph unicode="&#x2001;" horiz-adv-x="1880" />
<glyph unicode="&#x2002;" horiz-adv-x="940" />
<glyph unicode="&#x2003;" horiz-adv-x="1880" />
<glyph unicode="&#x2004;" horiz-adv-x="626" />
<glyph unicode="&#x2005;" horiz-adv-x="470" />
<glyph unicode="&#x2006;" horiz-adv-x="313" />
<glyph unicode="&#x2007;" horiz-adv-x="313" />
<glyph unicode="&#x2008;" horiz-adv-x="235" />
<glyph unicode="&#x2009;" horiz-adv-x="376" />
<glyph unicode="&#x200a;" horiz-adv-x="104" />
<glyph unicode="&#x2010;" horiz-adv-x="978" d="M119 592v106h717v-106h-717z" />
<glyph unicode="&#x2011;" horiz-adv-x="978" d="M119 592v106h717v-106h-717z" />
<glyph unicode="&#x2012;" horiz-adv-x="978" d="M119 592v106h717v-106h-717z" />
<glyph unicode="&#x2013;" horiz-adv-x="1124" d="M66 573v105h913v-105h-913z" />
<glyph unicode="&#x2014;" horiz-adv-x="1339" d="M80 573v105h1132v-105h-1132z" />
<glyph unicode="&#x2018;" horiz-adv-x="419" d="M86 1055l133 385h90l-106 -385h-117z" />
<glyph unicode="&#x201a;" horiz-adv-x="405" d="M78 -182l63 170q-49 18 -49 73q0 37 23.5 58.5t56.5 21.5t57.5 -21.5t24.5 -58.5q0 -16 -6 -34l-82 -209h-88z" />
<glyph unicode="&#x201c;" horiz-adv-x="704" d="M82 1051l133 385h90l-106 -385h-117zM340 1051l133 385h90l-106 -385h-117z" />
<glyph unicode="&#x201d;" horiz-adv-x="686" d="M84 1051l106 385h117l-133 -385h-90zM342 1051l107 385h116l-133 -385h-90z" />
<glyph unicode="&#x2026;" horiz-adv-x="1085" d="M74 61.5q0 36.5 24.5 58t57 21.5t56.5 -21.5t24 -58t-24 -58t-56.5 -21.5t-57 21.5t-24.5 58zM428 61.5q0 36.5 23.5 58t56.5 21.5t57.5 -21.5t24.5 -58t-24.5 -58t-57.5 -21.5t-56.5 21.5t-23.5 58zM778 61.5q0 36.5 24.5 58t57.5 21.5t56.5 -21.5t23.5 -58t-23.5 -58 t-56.5 -21.5t-57.5 21.5t-24.5 58z" />
<glyph unicode="&#x202f;" horiz-adv-x="376" />
<glyph unicode="&#x2039;" horiz-adv-x="608" d="M61 649l283 449h107v-11l-277 -438l277 -438v-12h-107z" />
<glyph unicode="&#x203a;" horiz-adv-x="608" d="M102 199v12l277 438l-277 438v11h107l283 -449l-283 -450h-107z" />
<glyph unicode="&#x205f;" horiz-adv-x="470" />
<glyph unicode="&#x20ac;" horiz-adv-x="1200" d="M25 557v94h118q-2 14 -2 57.5t2 63.5h-118v94h131q35 260 215 422t483 162q94 0 203 -31l-23 -88q-88 25 -180 25q-508 0 -588 -490h559l-26 -94h-547q-2 -18 -2 -59q0 -47 2 -62h518l-20 -94h-484q35 -229 182.5 -350t405.5 -121q114 0 225 41l29 -98q-129 -45 -254 -45 q-594 0 -698 573h-131z" />
<glyph unicode="&#x2122;" horiz-adv-x="1552" d="M61 1352v82h560v-82h-234v-492h-96v492h-230zM731 860v574h90l236 -301l237 301h86v-574h-96v414l-221 -270h-19l-217 278v-422h-96z" />
<glyph unicode="&#x25fc;" horiz-adv-x="1013" d="M0 0v1014h1014v-1014h-1014z" />
</font>
</defs>
</svg>
