<?xml version="1.0" encoding="UTF-8" standalone="no"?>
<!-- Generator: Adobe Illustrator 16.0.0, SVG Export Plug-In . SVG Version: 6.00 Build 0)  -->

<svg
   xmlns:dc="http://purl.org/dc/elements/1.1/"
   xmlns:cc="http://creativecommons.org/ns#"
   xmlns:rdf="http://www.w3.org/1999/02/22-rdf-syntax-ns#"
   xmlns:svg="http://www.w3.org/2000/svg"
   xmlns="http://www.w3.org/2000/svg"
   xmlns:xlink="http://www.w3.org/1999/xlink"
   xmlns:sodipodi="http://sodipodi.sourceforge.net/DTD/sodipodi-0.dtd"
   xmlns:inkscape="http://www.inkscape.org/namespaces/inkscape"
   version="1.1"
   id="Camada_1"
   x="0px"
   y="0px"
   width="228"
   height="60"
   viewBox="0 0 228 60.000001"
   enable-background="new 0 0 654.065 171.017"
   xml:space="preserve"
   inkscape:version="0.48.5 r10040"
   sodipodi:docname="mapasculturais_logo-site.svg"><metadata
     id="metadata53"><rdf:RDF><cc:Work
         rdf:about=""><dc:format>image/svg+xml</dc:format><dc:type
           rdf:resource="http://purl.org/dc/dcmitype/StillImage" /><dc:title /></cc:Work></rdf:RDF></metadata><defs
     id="defs51" /><sodipodi:namedview
     pagecolor="#ffffff"
     bordercolor="#666666"
     borderopacity="1"
     objecttolerance="10"
     gridtolerance="10"
     guidetolerance="10"
     inkscape:pageopacity="0"
     inkscape:pageshadow="2"
     inkscape:window-width="1920"
     inkscape:window-height="1041"
     id="namedview49"
     showgrid="false"
     inkscape:zoom="9.5726767"
     inkscape:cx="69.896667"
     inkscape:cy="35.478848"
     inkscape:window-x="1920"
     inkscape:window-y="0"
     inkscape:window-maximized="1"
     inkscape:current-layer="g5" /><g
     id="g3"
     transform="translate(0,-111.017)"><g
       id="g5"><path
         d="m 18.416484,149.27269 c -2.060049,2.03118 -4.721317,2.97576 -7.611228,2.97576 -7.4395579,0 -10.58734743,-5.12128 -10.61620597,-10.33023 -0.0284858,-5.23596 3.37680737,-10.55849 10.61620597,-10.55849 2.718611,0 5.294043,1.03003 7.354092,3.06233 l -2.518823,2.43153 c -1.315651,-1.28717 -3.089704,-1.88839 -4.835269,-1.88839 -4.8356383,0 -6.9245459,3.60545 -6.896427,6.95302 0.028486,3.3191 1.9457237,6.78212 6.896427,6.78212 1.745936,0 3.71978,-0.71591 5.036537,-2.0312 l 2.574691,2.60355 z"
         id="path7"
         inkscape:connector-curvature="0"
         style="fill:#00317b" /><path
         d="m 36.38271,131.78892 v 11.47455 c 0,5.92413 -3.633572,8.95611 -8.67048,8.95611 -4.806781,0 -8.899129,-2.91802 -8.899129,-8.95611 v -11.47455 h 3.748639 v 11.47455 c 0,3.60584 2.060047,5.52271 5.179348,5.52271 3.118931,0 4.892985,-2.0889 4.892985,-5.52271 v -11.47455 h 3.748637 z"
         id="path9"
         inkscape:connector-curvature="0"
         style="fill:#00317b" /><path
         d="m 42.416712,131.76041 v 16.53924 h 10.301351 v 3.49111 H 38.639217 v -20.03035 h 3.777495 z"
         id="path11"
         inkscape:connector-curvature="0"
         style="fill:#00317b" /><path
         d="m 56.149259,135.1942 h -6.352185 v -3.43379 c 5.780195,0 10.67318,0 16.481866,0 v 3.43379 h -6.352186 v 16.59656 H 56.149259 V 135.1942 z"
         id="path13"
         inkscape:connector-curvature="0"
         style="fill:#00317b" /><path
         d="m 85.30442,131.78892 v 11.47455 c 0,5.92413 -3.633574,8.95611 -8.670109,8.95611 -4.807151,0 -8.899498,-2.91802 -8.899498,-8.95611 v -11.47455 h 3.748635 v 11.47455 c 0,3.60584 2.060049,5.52271 5.178979,5.52271 3.119302,0 4.893357,-2.0889 4.893357,-5.52271 v -11.47455 h 3.748636 z"
         id="path15"
         inkscape:connector-curvature="0"
         style="fill:#00317b" /><path
         d="m 105.33069,151.79076 h -4.49266 l -5.837176,-6.69589 h -3.633942 v 6.69589 h -3.776756 v -20.05881 c 3.175909,0 6.351816,0.0288 9.528464,0.0288 4.72168,0.0285 7.21054,3.17553 7.21054,6.63856 0,2.74709 -1.25868,5.52307 -5.064657,6.29521 l 6.066187,6.83832 v 0.25787 z M 91.366912,135.27969 v 6.40952 h 5.751708 c 2.403764,0 3.4334,-1.60275 3.4334,-3.20477 0,-1.60276 -1.05813,-3.20475 -3.4334,-3.20475 h -5.751708 z"
         id="path17"
         inkscape:connector-curvature="0"
         style="fill:#00317b" /><path
         d="m 119.6626,148.01364 h -10.47265 l -1.71743,3.77712 h -4.09162 l 8.98496,-20.03035 h 4.1201 l 8.9857,20.03035 h -4.12048 l -1.68858,-3.77712 z m -5.23594,-12.04766 -3.72052,8.52844 h 7.44065 l -3.72013,-8.52844 z"
         id="path19"
         inkscape:connector-curvature="0"
         style="fill:#00317b" /><path
         d="m 205.69476,137.28313 -6.5246,8.69932 h -0.7433 l -6.38213,-8.72782 v 14.56536 h -3.7775 v -20.03107 h 4.34947 l 6.26821,8.61312 6.26635,-8.61312 h 4.32026 v 20.03107 h -3.77676 v -14.53686 z"
         id="path21"
         inkscape:connector-curvature="0"
         style="fill:#0e9ad8" /><path
         d="m 216.76419,135.1942 h -6.35403 v -3.43379 c 5.78168,0 10.67429,0 16.48259,0 v 3.43379 h -6.35181 v 16.59656 h -3.77675 V 135.1942 z"
         id="path23"
         inkscape:connector-curvature="0"
         style="fill:#0e9ad8" /></g><g
       id="g25"
       transform="matrix(0.36997998,0,0,0.36997998,-8.2072749,109.44842)"><g
         id="g27"><path
           clip-rule="evenodd"
           d="m 401.269,25.324 c -0.774,-1.513 -0.592,-3.104 -0.08,-4.569 0.942,-2.691 1.738,-5.327 0.438,-8.117 -0.212,-0.453 -0.319,-1.009 0,-1.451 1.273,-1.771 2.126,-3.666 2.427,-5.884 0.173,-1.288 1.087,-1.35 2,-0.388 1.948,2.109 2.43,4.866 3.276,7.433 0.319,0.964 0.686,1.88 1.249,2.715 -0.098,1.128 0.976,1.853 0.892,3.057 -0.366,5.612 1.391,8.289 6.494,10.045 0.655,0.226 1.234,0.569 1.552,1.102 1.106,1.871 1.723,4.231 4.623,4.031 0.044,-0.01 0.137,0.087 0.147,0.139 0.352,2.222 1.986,1.58 3.431,1.678 7.197,0.489 14.371,1.076 21.565,1.637 11.71,0.912 23.414,1.931 35.137,2.724 11.801,0.816 23.61,1.439 35.413,2.069 1.866,0.104 2.03,1.125 1.261,2.208 -1.717,2.421 -1.747,5.417 -3.076,7.966 -0.463,0.892 -1.266,1.652 -1.313,2.877 -0.057,2.128 -0.128,4.355 -0.798,6.338 -1.148,3.388 -0.925,6.767 -0.787,10.198 0.18,4.202 1.801,8.372 0.247,12.608 -0.117,0.325 0.166,0.816 0.319,1.21 0.784,2.012 3.034,3.758 1.109,6.255 -0.104,0.146 -0.034,0.428 -0.016,0.643 0.221,2.135 -0.829,3.789 -1.784,5.607 -0.941,1.787 -2.404,3.488 -1.869,5.951 0.202,0.901 0.507,2.245 -0.299,3.223 -1.237,1.509 -1.78,3.264 -1.668,5.165 0.158,2.63 -0.957,4.922 -1.819,7.271 -0.281,0.759 -1.021,1.768 -1.934,1.377 -2.092,-0.889 -3.188,0.646 -4.571,1.518 -2.622,1.642 -2.268,4.789 -2.979,7.156 -1.019,3.375 -2.946,4.477 -5.969,4.706 -0.922,0.077 -1.473,0.499 -1.79,1.307 -0.504,1.297 -1.585,1.871 -2.71,2.595 -1.475,0.937 -3.861,2.332 -3.189,3.969 1.154,2.871 -0.977,4.34 -2.159,5.316 -2.001,1.64 -3.271,3.392 -4.237,5.722 -1.573,3.825 -3.413,7.495 -0.557,11.491 0.281,0.396 0.288,0.962 0.504,1.415 0.457,0.932 0.096,1.278 -0.8,1.054 -2.558,-0.683 -5.187,-0.142 -7.755,-0.42 -1.18,-0.128 -2.372,-0.813 -2.655,-1.846 -0.252,-0.914 0.631,-1.83 1.687,-2.237 0.592,-0.229 1.359,-0.351 1.432,-1.148 0.149,-1.719 0.36,-3.449 0.293,-5.171 -0.057,-1.186 -0.955,-1.443 -1.814,-0.646 -1.509,1.39 -2.961,2.841 -4.333,4.363 -0.944,1.053 -3.454,1.583 -4.18,0.733 -2.065,-2.383 -3.73,-2.554 -6.332,-0.639 -1.73,1.262 -4.837,1.18 -6.755,0.434 -3.393,-1.306 -6.01,-4.108 -9.674,-4.861 -0.416,-0.074 -0.867,-0.236 -1.176,-0.504 -1.452,-1.281 -2.972,-0.993 -4.384,-0.086 -1.784,1.142 -3.735,1.513 -5.758,1.456 -1.622,-0.039 -2.407,0.826 -3.228,2.024 -1.715,2.497 -3.248,5.112 -6.735,5.766 -2.869,0.536 -3.709,0.504 -4.818,-2.296 -0.612,-1.523 -1.532,-2.337 -3.065,-2.604 l -0.067,-0.036 c -1.661,-0.356 -3.218,-0.715 -4.723,-1.798 -3.804,-2.733 -5.185,-8.628 -2.604,-12.536 0.623,-0.949 0.683,-2.059 0.793,-3.088 0.119,-1.133 -0.726,-1.67 -1.687,-1.081 -0.859,0.536 -1.647,0.342 -2.489,0.339 -5.984,-0.01 -11.959,-0.591 -17.957,-0.463 -5.748,0.135 -5.745,0.049 -5.987,-5.833 -0.148,-3.639 -0.427,-7.217 -3.611,-9.74 -0.347,-0.278 -0.796,-0.665 -0.63,-1.427 0.579,-0.057 1.198,-0.123 1.822,-0.159 0.964,-0.052 1.626,-0.273 1.66,-1.481 0.107,-3.889 -0.642,-7.544 -2.688,-10.898 -0.724,-1.181 -0.755,-2.417 -0.171,-3.701 0.892,-1.954 0.075,-4.163 -1.865,-5.213 -2.173,-1.179 -2.204,-1.236 -0.014,-2.601 1.496,-0.931 2.567,-1.858 3.105,-3.786 0.54,-1.949 1.086,-4.217 3.163,-5.473 0.692,-0.427 0.798,-1.341 0.759,-2.165 -0.117,-2.285 0.514,-4.031 2.84,-5.039 1.457,-0.629 1.616,-2.411 0.562,-3.63 -0.397,-0.459 -0.538,-0.969 -0.726,-1.525 -0.478,-1.399 -0.845,-2.97 -1.723,-4.107 -1.91,-2.462 -2.006,-3.813 0.18,-6.112 0.59,-0.631 1.325,-1.148 1.226,-2.167 -0.309,-3.228 -0.914,-3.828 -4.277,-4.228 -0.358,-0.04 -0.719,-0.102 -1.049,-0.239 -3.024,-1.273 -6.162,-1.694 -9.441,-1.456 -2.227,0.165 -4.475,-0.005 -6.709,0.074 -1.78,0.07 -2.279,-0.361 -2.056,-2.37 0.301,-2.654 1.278,-5.452 -0.654,-8.116 -0.677,-0.948 -0.522,-2.462 -0.193,-3.887 0.642,-2.78 1.55,-5.623 0.206,-8.562 -0.347,-0.759 -1.328,-1.879 -0.551,-2.729 0.8,-0.87 0.618,-1.601 0.512,-2.549 -0.183,-1.513 0.734,-2.862 1.033,-4.309 0.115,-0.598 1.983,-0.231 3.054,-0.239 13.209,-0.063 26.418,-0.107 39.621,-0.183 1.078,-0.008 2.422,0.377 2.906,-1.172 z"
           id="path29"
           inkscape:connector-curvature="0"
           style="fill:#00317b;fill-rule:evenodd" /><g
           id="g31"><defs
             id="defs33"><path
               id="SVGID_1_"
               d="m 401.269,25.324 c -0.774,-1.513 -0.592,-3.104 -0.08,-4.569 0.942,-2.691 1.738,-5.327 0.438,-8.117 -0.212,-0.453 -0.319,-1.009 0,-1.451 1.273,-1.771 2.126,-3.666 2.427,-5.884 0.173,-1.288 1.087,-1.35 2,-0.388 1.948,2.109 2.43,4.866 3.276,7.433 0.319,0.964 0.686,1.88 1.249,2.715 -0.098,1.128 0.976,1.853 0.892,3.057 -0.366,5.612 1.391,8.289 6.494,10.045 0.655,0.226 1.234,0.569 1.552,1.102 1.106,1.871 1.723,4.231 4.623,4.031 0.044,-0.01 0.137,0.087 0.147,0.139 0.352,2.222 1.986,1.58 3.431,1.678 7.197,0.489 14.371,1.076 21.565,1.637 11.71,0.912 23.414,1.931 35.137,2.724 11.801,0.816 23.61,1.439 35.413,2.069 1.866,0.104 2.03,1.125 1.261,2.208 -1.717,2.421 -1.747,5.417 -3.076,7.966 -0.463,0.892 -1.266,1.652 -1.313,2.877 -0.057,2.128 -0.128,4.355 -0.798,6.338 -1.148,3.388 -0.925,6.767 -0.787,10.198 0.18,4.202 1.801,8.372 0.247,12.608 -0.117,0.325 0.166,0.816 0.319,1.21 0.784,2.012 3.034,3.758 1.109,6.255 -0.104,0.146 -0.034,0.428 -0.016,0.643 0.221,2.135 -0.829,3.789 -1.784,5.607 -0.941,1.787 -2.404,3.488 -1.869,5.951 0.202,0.901 0.507,2.245 -0.299,3.223 -1.237,1.509 -1.78,3.264 -1.668,5.165 0.158,2.63 -0.957,4.922 -1.819,7.271 -0.281,0.759 -1.021,1.768 -1.934,1.377 -2.092,-0.889 -3.188,0.646 -4.571,1.518 -2.622,1.642 -2.268,4.789 -2.979,7.156 -1.019,3.375 -2.946,4.477 -5.969,4.706 -0.922,0.077 -1.473,0.499 -1.79,1.307 -0.504,1.297 -1.585,1.871 -2.71,2.595 -1.475,0.937 -3.861,2.332 -3.189,3.969 1.154,2.871 -0.977,4.34 -2.159,5.316 -2.001,1.64 -3.271,3.392 -4.237,5.722 -1.573,3.825 -3.413,7.495 -0.557,11.491 0.281,0.396 0.288,0.962 0.504,1.415 0.457,0.932 0.096,1.278 -0.8,1.054 -2.558,-0.683 -5.187,-0.142 -7.755,-0.42 -1.18,-0.128 -2.372,-0.813 -2.655,-1.846 -0.252,-0.914 0.631,-1.83 1.687,-2.237 0.592,-0.229 1.359,-0.351 1.432,-1.148 0.149,-1.719 0.36,-3.449 0.293,-5.171 -0.057,-1.186 -0.955,-1.443 -1.814,-0.646 -1.509,1.39 -2.961,2.841 -4.333,4.363 -0.944,1.053 -3.454,1.583 -4.18,0.733 -2.065,-2.383 -3.73,-2.554 -6.332,-0.639 -1.73,1.262 -4.837,1.18 -6.755,0.434 -3.393,-1.306 -6.01,-4.108 -9.674,-4.861 -0.416,-0.074 -0.867,-0.236 -1.176,-0.504 -1.452,-1.281 -2.972,-0.993 -4.384,-0.086 -1.784,1.142 -3.735,1.513 -5.758,1.456 -1.622,-0.039 -2.407,0.826 -3.228,2.024 -1.715,2.497 -3.248,5.112 -6.735,5.766 -2.869,0.536 -3.709,0.504 -4.818,-2.296 -0.612,-1.523 -1.532,-2.337 -3.065,-2.604 l -0.067,-0.036 c -1.661,-0.356 -3.218,-0.715 -4.723,-1.798 -3.804,-2.733 -5.185,-8.628 -2.604,-12.536 0.623,-0.949 0.683,-2.059 0.793,-3.088 0.119,-1.133 -0.726,-1.67 -1.687,-1.081 -0.859,0.536 -1.647,0.342 -2.489,0.339 -5.984,-0.01 -11.959,-0.591 -17.957,-0.463 -5.748,0.135 -5.745,0.049 -5.987,-5.833 -0.148,-3.639 -0.427,-7.217 -3.611,-9.74 -0.347,-0.278 -0.796,-0.665 -0.63,-1.427 0.579,-0.057 1.198,-0.123 1.822,-0.159 0.964,-0.052 1.626,-0.273 1.66,-1.481 0.107,-3.889 -0.642,-7.544 -2.688,-10.898 -0.724,-1.181 -0.755,-2.417 -0.171,-3.701 0.892,-1.954 0.075,-4.163 -1.865,-5.213 -2.173,-1.179 -2.204,-1.236 -0.014,-2.601 1.496,-0.931 2.567,-1.858 3.105,-3.786 0.54,-1.949 1.086,-4.217 3.163,-5.473 0.692,-0.427 0.798,-1.341 0.759,-2.165 -0.117,-2.285 0.514,-4.031 2.84,-5.039 1.457,-0.629 1.616,-2.411 0.562,-3.63 -0.397,-0.459 -0.538,-0.969 -0.726,-1.525 -0.478,-1.399 -0.845,-2.97 -1.723,-4.107 -1.91,-2.462 -2.006,-3.813 0.18,-6.112 0.59,-0.631 1.325,-1.148 1.226,-2.167 -0.309,-3.228 -0.914,-3.828 -4.277,-4.228 -0.358,-0.04 -0.719,-0.102 -1.049,-0.239 -3.024,-1.273 -6.162,-1.694 -9.441,-1.456 -2.227,0.165 -4.475,-0.005 -6.709,0.074 -1.78,0.07 -2.279,-0.361 -2.056,-2.37 0.301,-2.654 1.278,-5.452 -0.654,-8.116 -0.677,-0.948 -0.522,-2.462 -0.193,-3.887 0.642,-2.78 1.55,-5.623 0.206,-8.562 -0.347,-0.759 -1.328,-1.879 -0.551,-2.729 0.8,-0.87 0.618,-1.601 0.512,-2.549 -0.183,-1.513 0.734,-2.862 1.033,-4.309 0.115,-0.598 1.983,-0.231 3.054,-0.239 13.209,-0.063 26.418,-0.107 39.621,-0.183 1.078,-0.008 2.422,0.377 2.906,-1.172 z"
               inkscape:connector-curvature="0" /></defs><clipPath
             id="SVGID_2_"><use
               xlink:href="#SVGID_1_"
               overflow="visible"
               id="use37"
               style="overflow:visible"
               x="0"
               y="0"
               width="654.065"
               height="171.017" /></clipPath><polygon
             clip-path="url(#SVGID_2_)"
             points="614.818,38.605 448.513,108.473 501.259,67.028 500.441,65.986 448.4,106.875 511.475,28.511 510.442,27.681 444.1,110.106 394.058,78.08 393.344,79.194 442.481,110.643 353.145,127.519 353.391,128.819 443.312,111.834 437.542,132.029 438.814,132.394 444.675,111.887 546.078,155.059 546.598,153.841 445.942,110.988 615.33,39.826 "
             id="polygon39"
             style="fill:#0e9ad8" /></g></g><g
         id="g41"><path
           d="m 464.112,70.181 c 0,16.559 -20.845,39.936 -20.845,39.936 0,0 -20.846,-23.766 -20.846,-39.936 0,-11.513 9.332,-20.846 20.846,-20.846 11.512,0 20.845,9.333 20.845,20.846 z"
           id="path43"
           inkscape:connector-curvature="0"
           style="fill:#0e9ad8" /><path
           d="m 443.268,49.335 v 60.781 c 0,0 20.845,-23.376 20.845,-39.936 -10e-4,-11.512 -9.334,-20.845 -20.845,-20.845 z"
           id="path45"
           inkscape:connector-curvature="0"
           style="opacity:0.7;fill:#484848" /><circle
           cx="443.26801"
           cy="70.181"
           r="15.62"
           id="circle47"
           sodipodi:cx="443.26801"
           sodipodi:cy="70.181"
           sodipodi:rx="15.62"
           sodipodi:ry="15.62"
           style="fill:#ffffff"
           d="m 458.88801,70.181 c 0,8.626687 -6.99332,15.62 -15.62,15.62 -8.62669,0 -15.62,-6.993313 -15.62,-15.62 0,-8.626688 6.99331,-15.62 15.62,-15.62 8.62668,0 15.62,6.993312 15.62,15.62 z" /></g></g></g></svg>