<?xml version="1.0" encoding="UTF-8" standalone="no"?>
<!-- Generator: Adobe Illustrator 16.0.0, SVG Export Plug-In . SVG Version: 6.00 Build 0)  -->

<svg
   xmlns:dc="http://purl.org/dc/elements/1.1/"
   xmlns:cc="http://creativecommons.org/ns#"
   xmlns:rdf="http://www.w3.org/1999/02/22-rdf-syntax-ns#"
   xmlns:svg="http://www.w3.org/2000/svg"
   xmlns="http://www.w3.org/2000/svg"
   xmlns:sodipodi="http://sodipodi.sourceforge.net/DTD/sodipodi-0.dtd"
   xmlns:inkscape="http://www.inkscape.org/namespaces/inkscape"
   version="1.1"
   id="Camada_1"
   x="0px"
   y="0px"
   width="300"
   height="75"
   viewBox="7.833 0 300.00001 75"
   enable-background="new 7.833 0 230.333 50"
   xml:space="preserve"
   inkscape:version="0.48.5 r10040"
   sodipodi:docname="mapasculturais_logo-instituicao.svg"><metadata
     id="metadata367"><rdf:RDF><cc:Work
         rdf:about=""><dc:format>image/svg+xml</dc:format><dc:type
           rdf:resource="http://purl.org/dc/dcmitype/StillImage" /><dc:title /></cc:Work></rdf:RDF></metadata><defs
     id="defs365" /><sodipodi:namedview
     pagecolor="#ffffff"
     bordercolor="#666666"
     borderopacity="1"
     objecttolerance="10"
     gridtolerance="10"
     guidetolerance="10"
     inkscape:pageopacity="0"
     inkscape:pageshadow="2"
     inkscape:window-width="1920"
     inkscape:window-height="1041"
     id="namedview363"
     showgrid="false"
     showguides="true"
     inkscape:guide-bbox="true"
     inkscape:zoom="1.7496408"
     inkscape:cx="117.16691"
     inkscape:cy="32.715869"
     inkscape:window-x="1920"
     inkscape:window-y="0"
     inkscape:window-maximized="1"
     inkscape:current-layer="flowRoot3344" /><g
     id="g3"
     transform="matrix(1.2952385,0,0,1.2952385,-6.0413572,4.290892)"><g
       id="g5"><path
         d="m 140.97247,14.103562 c -0.42144,-0.413032 -1.00248,-0.618847 -1.54993,-0.618847 -1.40991,0 -2.13096,1.03748 -2.12816,2.150565 0,1.136887 0.72805,2.112762 2.12816,2.112762 0.51805,0 1.05569,-0.180614 1.46732,-0.554443 v -1.352503 h -1.67593 v -0.323425 h 2.02735 v 1.804738 c -0.50123,0.504038 -1.10188,0.77986 -1.82013,0.77986 -1.63533,0 -2.4838,-1.142487 -2.4838,-2.461388 -0.0112,-1.507917 1.01788,-2.490792 2.4838,-2.490792 0.63424,0 1.27549,0.235218 1.76693,0.723856 l -0.21561,0.229617 z"
         id="path27"
         inkscape:connector-curvature="0"
         style="fill:#00317c" /><path
         d="m 146.89771,15.63388 c -0.008,1.264297 -0.81066,2.48799 -2.42778,2.48799 -1.62132,0 -2.43059,-1.229293 -2.43059,-2.500591 0,-1.2965 0.80506,-2.480991 2.43059,-2.480991 1.62273,0 2.43479,1.191491 2.42778,2.493592 m -4.49854,-0.0056 c 0.0112,1.089283 0.69866,2.146364 2.07076,2.146364 1.37491,0 2.07076,-1.057081 2.07076,-2.146364 0,-1.117286 -0.68606,-2.143565 -2.07076,-2.143565 -1.38751,-0.0014 -2.07636,1.006677 -2.07076,2.143565"
         id="path29"
         inkscape:connector-curvature="0"
         style="fill:#00317c" /><polygon
         points="170.476,17.276 171.749,14.129 172.032,14.129 170.616,17.582 170.333,17.582 168.916,14.129 169.203,14.129 "
         id="polygon31"
         style="fill:#00317c"
         transform="matrix(1.4001076,0,0,1.4001076,-89.308838,-6.5648257)" /><polygon
         points="172.75,17.316 174.924,17.316 174.924,17.57 172.487,17.57 172.487,14.129 174.866,14.129 174.866,14.381 172.75,14.381 172.75,15.719 174.766,15.719 174.766,15.958 172.75,15.958 "
         id="polygon33"
         style="fill:#00317c"
         transform="matrix(1.4001076,0,0,1.4001076,-89.308838,-6.5648257)" /><path
         d="m 160.27155,18.035064 h -0.49144 l -1.66473,-1.82434 h -1.3161 v 1.82434 h -0.36683 v -4.81777 h 2.11976 c 1.04869,0 1.57652,0.750457 1.58213,1.499515 0.0103,0.78546 -0.51245,1.474314 -1.56112,1.474314 l 1.69833,1.843941 z m -3.47367,-2.171566 h 1.70533 c 0.84146,0 1.21529,-0.474637 1.2223,-1.152289 0.0103,-0.564243 -0.37944,-1.148088 -1.18029,-1.148088 h -1.74734 v 2.300377 z"
         id="path35"
         inkscape:connector-curvature="0"
         style="fill:#00317c" /><polygon
         points="178.817,14.129 181.132,16.979 181.132,14.129 181.395,14.129 181.395,17.57 181.29,17.57 178.966,14.729 178.966,17.57 178.705,17.57 178.705,14.129 "
         id="polygon37"
         style="fill:#00317c"
         transform="matrix(1.4001076,0,0,1.4001076,-89.308838,-6.5648257)" /><path
         d="m 170.45733,15.63388 c -0.0103,1.264297 -0.81346,2.48799 -2.42919,2.48799 -1.61852,0 -2.42919,-1.229293 -2.42919,-2.500591 0,-1.2965 0.80087,-2.480991 2.42919,-2.480991 1.62132,0 2.43479,1.191491 2.42919,2.493592 m -4.49995,-0.0056 c 0.007,1.089283 0.69725,2.146364 2.07076,2.146364 1.3749,0 2.06796,-1.057081 2.06796,-2.146364 0,-1.117286 -0.68465,-2.143565 -2.06796,-2.143565 -1.38611,-0.0014 -2.07775,1.006677 -2.07076,2.143565"
         id="path39"
         inkscape:connector-curvature="0"
         style="fill:#00317c" /><path
         d="m 177.26885,15.570875 c 0.028,1.227895 -0.75746,2.46559 -2.44739,2.46559 h -1.62552 v -4.817771 h 1.62552 c 1.63533,-0.0014 2.42079,1.16629 2.44739,2.352181 m -3.70469,-2.000754 v 4.110715 h 1.2573 c 1.43511,0 2.09736,-1.073882 2.07076,-2.108561 -0.0153,-1.003877 -0.67764,-2.002154 -2.07076,-2.002154 h -1.2573 z"
         id="path41"
         inkscape:connector-curvature="0"
         style="fill:#00317c" /><polygon
         points="191.256,17.316 193.43,17.316 193.43,17.57 190.992,17.57 190.992,14.129 193.371,14.129 193.371,14.381 191.256,14.381 191.256,15.719 193.271,15.719 193.271,15.958 191.256,15.958 "
         id="polygon43"
         style="fill:#00317c"
         transform="matrix(1.4001076,0,0,1.4001076,-89.308838,-6.5648257)" /><polygon
         points="162.025,34.707 164.199,34.707 164.199,34.959 161.763,34.959 161.763,31.52 164.14,31.52 164.14,31.769 162.025,31.769 162.025,33.106 164.041,33.106 164.041,33.349 162.025,33.349 "
         id="polygon45"
         style="fill:#00317c"
         transform="matrix(1.4001076,0,0,1.4001076,-89.308838,-6.5648257)" /><path
         d="m 144.67434,38.492037 c -0.35142,-0.561443 -0.91286,-0.64405 -1.4617,-0.65245 -0.56005,0 -1.46172,0.205815 -1.46172,0.975875 0,0.614646 0.66366,0.756057 1.47292,0.911469 0.92967,0.177814 1.89714,0.345827 1.89714,1.383306 -0.0103,1.086485 -1.10188,1.349705 -1.90974,1.349705 -0.75187,0 -1.60453,-0.308024 -1.97416,-1.045881 l 0.32483,-0.166613 c 0.29822,0.582446 1.05848,0.875068 1.64933,0.875068 0.59504,0 1.54012,-0.165213 1.54012,-1.017879 0.001,-0.726656 -0.79387,-0.880668 -1.58773,-1.031879 -0.87927,-0.175013 -1.78234,-0.354227 -1.78234,-1.240496 -0.021,-1.019278 1.03888,-1.335702 1.83274,-1.335702 0.68885,0 1.2923,0.110608 1.76274,0.817662 l -0.30243,0.177815 z"
         id="path47"
         inkscape:connector-curvature="0"
         style="fill:#00317c" /><polygon
         points="168.977,31.76 167.729,31.76 167.729,31.521 170.487,31.521 170.487,31.76 169.241,31.76 169.241,34.959 168.977,34.959 "
         id="polygon49"
         style="fill:#00317c"
         transform="matrix(1.4001076,0,0,1.4001076,-89.308838,-6.5648257)" /><path
         d="m 153.92626,42.381536 -0.52784,-1.183092 h -2.88002 l -0.52645,1.183092 h -0.39903 l 2.16598,-4.81497 h 0.40602 l 2.15897,4.81497 h -0.39763 z m -0.67906,-1.524717 -1.2951,-2.936026 -1.29369,2.936026 h 2.58879 z"
         id="path51"
         inkscape:connector-curvature="0"
         style="fill:#00317c" /><path
         d="m 159.12766,39.917347 c 0.028,1.227894 -0.75746,2.464189 -2.44599,2.464189 h -1.63113 v -4.81497 h 1.63113 c 1.63392,0 2.41658,1.167689 2.44599,2.350781 m -3.70609,-2.002155 v 4.110716 h 1.2601 c 1.43231,0 2.09456,-1.072483 2.07215,-2.107161 -0.0238,-1.003878 -0.67764,-2.003555 -2.07215,-2.003555 h -1.2601 z"
         id="path53"
         inkscape:connector-curvature="0"
         style="fill:#00317c" /><path
         d="m 164.68749,39.978951 c -0.005,1.268497 -0.81066,2.489391 -2.4306,2.489391 -1.61712,0 -2.42778,-1.227894 -2.42778,-2.499192 0,-1.296499 0.80786,-2.48239 2.42778,-2.48239 1.62693,0 2.4404,1.19009 2.4306,2.492191 m -4.49435,-0.0056 c 0.004,1.089283 0.69305,2.143565 2.06375,2.143565 1.37631,0 2.07077,-1.054282 2.07077,-2.143565 0,-1.117286 -0.68465,-2.144965 -2.07077,-2.144965 -1.3833,0 -2.07075,1.010877 -2.06375,2.144965"
         id="path55"
         inkscape:connector-curvature="0"
         style="fill:#00317c" /><path
         d="m 171.50181,39.917347 c 0.0308,1.227894 -0.75746,2.464189 -2.44598,2.464189 h -1.62553 v -4.81497 h 1.62553 c 1.63252,0 2.42358,1.167689 2.44598,2.350781 m -3.70609,-2.002155 v 4.110716 h 1.26011 c 1.4323,0 2.09455,-1.072483 2.07495,-2.107161 -0.021,-1.003878 -0.68326,-2.003555 -2.07495,-2.003555 h -1.26011 z"
         id="path57"
         inkscape:connector-curvature="0"
         style="fill:#00317c" /><polygon
         points="187.137,34.707 189.311,34.707 189.311,34.959 186.876,34.959 186.876,31.52 189.252,31.52 189.252,31.769 187.137,31.769 187.137,33.106 189.151,33.106 189.151,33.349 187.137,33.349 "
         id="polygon59"
         style="fill:#00317c"
         transform="matrix(1.4001076,0,0,1.4001076,-89.308838,-6.5648257)" /><polygon
         points="192.226,31.76 190.982,31.76 190.982,31.521 193.732,31.521 193.732,31.76 192.49,31.76 192.49,34.959 192.226,34.959 "
         id="polygon61"
         style="fill:#00317c"
         transform="matrix(1.4001076,0,0,1.4001076,-89.308838,-6.5648257)" /><path
         d="m 186.48996,42.381536 h -0.49004 l -1.66612,-1.824341 h -1.31191 v 1.824341 h -0.37383 v -4.81497 h 2.12117 c 1.04728,0 1.57792,0.747656 1.58212,1.498114 0.008,0.78406 -0.50824,1.471514 -1.56112,1.471514 l 1.69973,1.845342 z m -3.46667,-2.174367 h 1.70674 c 0.83446,0 1.21248,-0.474637 1.21669,-1.149489 0.007,-0.568444 -0.37943,-1.149488 -1.17749,-1.149488 h -1.74594 v 2.298977 l 0,0 z"
         id="path63"
         inkscape:connector-curvature="0"
         style="fill:#00317c" /><path
         d="m 190.9451,42.381536 -0.53204,-1.183092 h -2.88002 l -0.51804,1.183092 h -0.40463 l 2.16316,-4.81497 h 0.40744 l 2.16176,4.81497 h -0.39763 z m -0.67485,-1.524717 -1.2951,-2.936026 -1.2993,2.936026 h 2.5944 z"
         id="path65"
         inkscape:connector-curvature="0"
         style="fill:#00317c" /><polygon
         points="201.007,31.52 203.324,34.367 203.324,31.52 203.587,31.52 203.587,34.959 203.483,34.959 201.162,32.116 201.162,34.959 200.896,34.959 200.896,31.52 "
         id="polygon67"
         style="fill:#00317c"
         transform="matrix(1.4001076,0,0,1.4001076,-89.308838,-6.5648257)" /><path
         d="m 200.008,38.492037 c -0.35422,-0.561443 -0.91287,-0.64405 -1.45751,-0.65245 -0.56845,0 -1.46592,0.205815 -1.46592,0.975875 0,0.614646 0.66365,0.756057 1.47292,0.911469 0.93107,0.177814 1.89714,0.345827 1.89714,1.383306 -0.0112,1.086485 -1.10468,1.349705 -1.90834,1.349705 -0.75326,0 -1.60733,-0.308024 -1.97836,-1.045881 l 0.33183,-0.166613 c 0.29682,0.582446 1.05428,0.875068 1.64653,0.875068 0.59084,0 1.53731,-0.165213 1.53731,-1.017879 0,-0.726656 -0.79245,-0.880668 -1.58631,-1.031879 -0.88488,-0.175013 -1.78235,-0.354227 -1.78235,-1.240496 -0.021,-1.019278 1.03889,-1.335702 1.83695,-1.335702 0.68465,0 1.28389,0.110608 1.75854,0.817662 l -0.30243,0.177815 z"
         id="path69"
         inkscape:connector-curvature="0"
         style="fill:#00317c" /><polygon
         points="207.781,33.156 209.767,33.156 209.767,33.406 207.781,33.406 207.781,34.967 207.518,34.967 207.518,31.518 209.834,31.518 209.834,31.783 207.781,31.783 "
         id="polygon71"
         style="fill:#00317c"
         transform="matrix(1.4001076,0,0,1.4001076,-89.308838,-6.5648257)" /><path
         d="m 210.09438,39.978951 c -0.008,1.268497 -0.80927,2.489391 -2.4292,2.489391 -1.61992,0 -2.43198,-1.227894 -2.43198,-2.499192 0,-1.296499 0.80926,-2.48239 2.43198,-2.48239 1.62693,0 2.4404,1.19009 2.4292,2.492191 m -4.49715,-0.0056 c 0.0103,1.089283 0.69865,2.143565 2.06516,2.143565 1.3791,0 2.07076,-1.054282 2.07076,-2.143565 0,-1.117286 -0.67906,-2.144965 -2.07076,-2.144965 -1.37771,0 -2.07076,1.010877 -2.06516,2.144965"
         id="path73"
         inkscape:connector-curvature="0"
         style="fill:#00317c" /><path
         d="m 214.82534,42.381536 h -0.49004 l -1.67033,-1.824341 h -1.3133 v 1.824341 h -0.37103 v -4.81497 h 2.12396 c 1.04309,0 1.57513,0.747656 1.58212,1.498114 0.0112,0.78406 -0.51103,1.471514 -1.56251,1.471514 l 1.70113,1.845342 z m -3.47367,-2.174367 h 1.70814 c 0.84006,0 1.21528,-0.474637 1.22089,-1.149489 0.004,-0.568444 -0.38083,-1.149488 -1.1761,-1.149488 h -1.75293 v 2.298977 z"
         id="path75"
         inkscape:connector-curvature="0"
         style="fill:#00317c" /><polygon
         points="219.348,33.919 219.259,33.919 217.932,31.901 217.932,34.959 217.667,34.959 217.667,31.52 217.98,31.52 219.298,33.526 220.603,31.52 220.929,31.52 220.929,34.959 220.665,34.959 220.665,31.901 "
         id="polygon77"
         style="fill:#00317c"
         transform="matrix(1.4001076,0,0,1.4001076,-89.308838,-6.5648257)" /><path
         d="m 224.90612,42.381536 -0.52925,-1.183092 h -2.88001 l -0.52084,1.183092 h -0.39763 l 2.15895,-4.81497 h 0.40744 l 2.16176,4.81497 h -0.40042 z m -0.67766,-1.524717 -1.2923,-2.936026 -1.2937,2.936026 h 2.586 z"
         id="path79"
         inkscape:connector-curvature="0"
         style="fill:#00317c" /><path
         d="m 227.50751,43.011584 0.14142,-0.578245 c -1.48692,-0.09381 -2.26678,-1.190092 -2.26958,-2.434787 -0.0154,-1.285298 0.83027,-2.492192 2.47679,-2.492192 0.63705,0 1.2741,0.243619 1.75714,0.725257 l -0.25483,0.218417 c -0.41023,-0.414433 -0.95627,-0.610447 -1.50231,-0.610447 -1.4015,0 -2.12537,0.988475 -2.11976,2.146365 0.0153,1.132686 0.72945,2.107161 2.11976,2.107161 0.54744,0 1.09348,-0.204415 1.50792,-0.613247 l 0.24922,0.235218 c -0.46203,0.467637 -1.08509,0.709854 -1.69694,0.723856 l -0.0867,0.368228 c 0.56565,-0.03221 0.73786,0.355627 0.65385,0.691654 -0.0882,0.336025 -0.41303,0.497038 -0.71546,0.497038 -0.28001,0 -0.57964,-0.12601 -0.71685,-0.372429 L 227.25,43.426016 c 0.13861,0.197415 0.30942,0.26602 0.51523,0.26602 0.19602,0 0.38503,-0.0798 0.43684,-0.256219 0.0742,-0.261821 -0.14981,-0.50404 -0.65805,-0.396231 l -0.0364,-0.028 z"
         id="path81"
         inkscape:connector-curvature="0"
         style="fill:#00317c" /><path
         d="m 234.10202,42.381536 -0.53344,-1.183092 h -2.87723 l -0.52224,1.183092 h -0.40042 l 2.16316,-4.81497 h 0.40743 l 2.16457,4.81497 h -0.40183 z m -0.67485,-1.524717 -1.2993,-2.936026 -1.2895,2.936026 h 2.5888 z m -2.15197,-3.953904 c 0.0448,-0.414433 0.43543,-0.565644 0.76866,-0.399031 l 0.28143,0.149811 c 0.1652,0.07561 0.36402,0.0504 0.41863,-0.177814 l 0.23662,0.07281 c -0.0406,0.427033 -0.44244,0.564244 -0.77146,0.401831 l -0.28282,-0.151212 c -0.16802,-0.077 -0.36824,-0.049 -0.42284,0.176414 l -0.22822,-0.07281 z"
         id="path83"
         inkscape:connector-curvature="0"
         style="fill:#00317c" /><path
         d="m 239.48124,39.978951 c -0.005,1.268497 -0.81347,2.489391 -2.4292,2.489391 -1.61852,0 -2.42918,-1.227894 -2.42918,-2.499192 0,-1.296499 0.80507,-2.48239 2.42918,-2.48239 1.62553,0 2.4418,1.19009 2.4292,2.492191 m -4.49855,-0.0056 c 0.014,1.089283 0.69585,2.143565 2.06935,2.143565 1.37911,0 2.07217,-1.054282 2.07217,-2.143565 0,-1.117286 -0.68745,-2.144965 -2.07217,-2.144965 -1.3847,0 -2.07496,1.010877 -2.06935,2.144965"
         id="path85"
         inkscape:connector-curvature="0"
         style="fill:#00317c" /><polygon
         points="165.77,25.933 165.508,25.933 163.27,22.876 163.27,27.977 161.952,27.977 161.952,20.961 163.474,20.961 165.666,23.977 167.86,20.961 169.374,20.961 169.374,27.977 168.055,27.977 168.055,22.885 "
         id="polygon87"
         style="fill:#00317c"
         transform="matrix(1.4001076,0,0,1.4001076,-89.308838,-6.5648257)" /><path
         d="m 156.55566,30.738241 h -5.1356 l -0.84426,1.856542 h -2.00915 l 4.40753,-9.825955 h 2.01896 l 4.40474,9.825955 h -2.01756 l -0.82466,-1.856542 z m -2.5664,-5.905655 -1.82574,4.182122 h 3.64869 l -1.82295,-4.182122 z"
         id="path89"
         inkscape:connector-curvature="0"
         style="fill:#00317c" /><polygon
         points="178.901,22.153 176.676,22.153 176.676,20.951 182.448,20.951 182.448,22.153 180.225,22.153 180.225,27.969 178.901,27.969 "
         id="polygon91"
         style="fill:#00317c"
         transform="matrix(1.4001076,0,0,1.4001076,-89.308838,-6.5648257)" /><path
         d="m 176.91882,27.736409 c -0.028,2.542596 -1.58491,5.080991 -5.03618,5.080991 -3.45407,0 -5.05019,-2.482391 -5.05019,-5.066989 0,-2.578999 1.65353,-5.177598 5.05019,-5.177598 3.38126,0 5.06418,2.595799 5.03618,5.163596 m -8.26483,0.0406 c 0.042,1.612924 0.91287,3.342056 3.23005,3.342056 2.31018,0 3.18384,-1.741733 3.21605,-3.354657 0.0238,-1.654927 -0.90448,-3.51007 -3.21605,-3.51007 -2.31718,0.0042 -3.27205,1.869143 -3.23005,3.522671"
         id="path93"
         inkscape:connector-curvature="0"
         style="fill:#00317c" /><path
         d="m 188.4165,25.168612 c -0.66364,-0.628648 -1.64232,-0.982875 -2.49779,-0.982875 -2.10156,0 -3.38266,1.600323 -3.38266,3.620679 0,1.614324 0.94368,3.283252 3.38266,3.283252 0.77006,0 1.44772,-0.170814 2.21638,-0.785461 v -1.740334 h -2.5076 v -1.654927 h 4.20593 v 4.140118 c -0.96468,1.110285 -2.18557,1.768336 -3.91471,1.768336 -3.68927,0 -5.19019,-2.424986 -5.19019,-5.009585 0,-2.765213 1.72073,-5.319009 5.19019,-5.319009 1.32031,0 2.63921,0.505439 3.64729,1.500915 l -1.1495,1.178891 z"
         id="path95"
         inkscape:connector-curvature="0"
         style="fill:#00317c" /><path
         d="m 199.92119,32.594783 h -2.19536 l -2.86463,-3.284652 h -1.78233 v 3.284652 h -1.85374 v -9.838556 c 1.55552,0 3.11663,0.014 4.67356,0.014 2.31577,0.014 3.53247,1.55972 3.53247,3.25525 0,1.351104 -0.61605,2.710609 -2.4824,3.090038 l 2.97243,3.351857 0,0.12741 0,0 z m -6.84372,-8.098222 v 3.143242 h 2.81981 c 1.17749,0 1.68573,-0.786862 1.68573,-1.570922 0,-0.78826 -0.51944,-1.57232 -1.68573,-1.57232 h -2.81981 z"
         id="path97"
         inkscape:connector-curvature="0"
         style="fill:#00317c" /><path
         d="m 210.34359,27.736409 c -0.0308,2.542596 -1.58772,5.080991 -5.04318,5.080991 -3.45127,0 -5.04739,-2.482391 -5.04739,-5.066989 0,-2.578999 1.65772,-5.177598 5.04739,-5.177598 3.38546,0 5.06699,2.595799 5.04318,5.163596 m -8.27044,0.0406 c 0.0434,1.612924 0.91428,3.342056 3.22865,3.342056 2.31439,0 3.18526,-1.741733 3.21326,-3.354657 0.028,-1.654927 -0.89887,-3.51007 -3.21326,-3.51007 -2.31297,0.0042 -3.27065,1.869143 -3.22865,3.522671"
         id="path99"
         inkscape:connector-curvature="0"
         style="fill:#00317c" /><path
         d="m 218.05118,25.14061 c -0.34162,-0.560043 -1.26709,-1.093484 -2.33538,-1.093484 -1.3749,0 -2.03295,0.576845 -2.03295,1.307701 0,0.858265 1.00948,1.093484 2.18837,1.232094 2.04976,0.257621 3.9567,0.789661 3.9567,3.132041 0,2.185568 -1.93915,3.129241 -4.12612,3.129241 -2.00495,0 -3.54646,-0.617448 -4.28012,-2.413786 l 1.54292,-0.800861 c 0.43683,1.076682 1.57372,1.554119 2.77081,1.554119 1.16069,0 2.25557,-0.407431 2.25557,-1.470113 0,-0.929672 -0.96747,-1.306301 -2.26957,-1.444911 -2.01196,-0.243619 -3.8615,-0.772859 -3.8615,-2.975228 0,-2.021756 1.99235,-2.84922 3.80409,-2.863221 1.52892,0 3.11664,0.436834 3.8559,1.95175 l -1.46872,0.754658 z"
         id="path101"
         inkscape:connector-curvature="0"
         style="fill:#00317c" /><path
         d="m 227.3241,25.14061 c -0.33743,-0.560043 -1.2615,-1.093484 -2.32698,-1.093484 -1.3749,0 -2.03295,0.576845 -2.03295,1.307701 0,0.858265 1.00668,1.093484 2.18416,1.232094 2.04976,0.257621 3.9623,0.789661 3.9623,3.132041 0,2.185568 -1.93914,3.129241 -4.13031,3.129241 -2.00355,0 -3.54788,-0.617448 -4.28153,-2.413786 l 1.54712,-0.800861 c 0.43683,1.076682 1.57092,1.554119 2.76661,1.554119 1.16349,0 2.25697,-0.407431 2.25697,-1.470113 0,-0.929672 -0.96887,-1.306301 -2.27097,-1.444911 -2.00775,-0.243619 -3.85869,-0.772859 -3.85869,-2.975228 0,-2.021756 1.99235,-2.84922 3.80269,-2.863221 1.52612,0 3.11383,0.436834 3.85869,1.95175 l -1.47711,0.754658 z"
         id="path103"
         inkscape:connector-curvature="0"
         style="fill:#00317c" /><path
         d="m 240.19949,27.736409 c -0.0336,2.542596 -1.58772,5.080991 -5.04039,5.080991 -3.45406,0 -5.05159,-2.482391 -5.05159,-5.066989 0,-2.578999 1.65633,-5.177598 5.05159,-5.177598 3.38406,0 5.0656,2.595799 5.04039,5.163596 m -8.26764,0.0406 c 0.0393,1.612924 0.90867,3.342056 3.22445,3.342056 2.31578,0 3.18385,-1.741733 3.21464,-3.354657 0.0252,-1.654927 -0.90166,-3.51007 -3.21464,-3.51007 -2.31157,0.0014 -3.26645,1.869143 -3.22445,3.522671"
         id="path105"
         inkscape:connector-curvature="0"
         style="fill:#00317c" /><rect
         x="79.524696"
         y="1.2506073"
         width="52.137482"
         height="49.142509"
         id="rect107"
         style="fill:#00317c" /><path
         d="m 102.2389,18.535328 0.0639,-0.0021 c -0.0196,-0.0031 -0.0361,-0.0072 -0.0515,-0.01339 0,0 -0.005,0.0103 -0.0124,0.01545"
         id="path109"
         inkscape:connector-curvature="0"
         style="fill:#ffffff" /><path
         d="m 117.49503,14.277251 c -5.2018,-4.15402 -7.80939,-4.5990929 -9.12401,-4.5640639 -1.31564,0.034 -0.60991,1.2249819 -0.60991,1.2249819 0.85718,1.443398 0.0639,1.573212 0.0639,1.573212 -0.60167,0.107147 -1.13844,-0.530586 -1.40528,-0.844816 0,0 -0.45537,-0.565614 -0.21223,-1.9255609 0,0 0.93754,0.2915639 1.05087,-0.09066 0.12981,-0.4409529 -0.51925,-0.4162259 -0.51925,-0.4162259 0,0 0.715,-0.07933 0.77578,-0.5048289 0.0701,-0.4821633 0.19678,-0.7263356 0.19678,-0.7263356 -0.33998,0.3667736 -1.05189,0.6583383 -1.38158,0.6511264 -0.33483,-0.00927 -0.0505,-0.7510619 -0.0505,-0.7510619 -0.22151,0.121571 -0.37811,0.2647775 -0.46568,0.3667736 -0.34308,0.3894396 -0.50998,0.3471989 -1.19098,0.2936252 -0.49659,-0.036059 -0.73458,0.3657433 -0.73458,0.3657433 0,0 -0.35441,-0.126722 -0.62125,-0.09272 -0.64701,0.07933 -0.57283,0.4739209 -0.57283,0.4739209 0.13188,-0.09375 0.47289,-0.15454 0.66864,-0.141146 0.37914,0.02885 0.4389,0.110238 0.43478,0.243142 -0.0103,0.2472629 -0.52338,0.1802959 -0.52338,0.1802959 0,0 0.0402,0.06697 0.26787,0.130843 0.2452,0.06697 0.6707,-0.0443 0.72015,0.4007729 0.0474,0.386348 -0.0515,1.190983 -0.21223,1.545394 -0.069,0.159691 -0.22872,0.356471 -0.4358,0.522343 l 0,0 -0.004,0.0021 c -0.033,0.02782 -0.068,0.05048 -0.10406,0.0783 -0.16175,0.129813 -0.54604,0.575917 -0.71088,0.983901 0.0422,-0.262717 0.13496,-0.532646 0.37708,-0.801545 -0.20915,0.101996 -0.31836,0.09994 -0.5378,0.06079 0,0 -0.79639,-0.130844 0.0639,-1.573212 0,0 0.70574,-1.1920139 -0.61094,-1.2260129 -1.31153,-0.034 -3.923237,0.4110749 -9.121946,4.5650949 -1.028202,0.798454 -2.368574,1.834898 -1.375401,1.894654 0,0 0.460528,-0.0031 1.21159,-0.449195 h 0.0041 c 0.232839,-0.23387 2.050223,-2.057435 2.502509,-2.123372 0,0 -0.494527,0.397682 -2.1141,2.147068 0.498647,0.05976 2.098645,0.167933 3.850093,-1.036444 0,0 0.15557,-0.09788 0.695427,-0.349259 -0.0886,0.06388 -0.17411,0.139085 -0.2555,0.219446 l -0.391504,0.398711 0.550164,-0.09375 c 0.13702,-0.0237 0.25138,-0.03503 0.35647,-0.04121 l 0.17617,0.240051 0.0855,0.66452 c 0.0319,0.153509 0.0742,0.330714 0.14012,0.498647 0.26272,0.671731 1.438248,2.316031 2.446868,2.316031 0.069,0 0.13497,0 0.19266,-0.0041 l 0.95609,-0.02164 c -0.11745,-0.0206 -0.26478,-0.06697 -0.42859,-0.155569 -0.64598,-0.35132 0,0 -0.72016,0 -0.75724,0 -1.70714,-1.13432 -2.125428,-1.88126 l -0.002,-0.0062 c -0.0289,-0.05357 -0.0577,-0.100966 -0.0793,-0.146297 0,-0.0062 -0.007,-0.01442 -0.009,-0.02061 -0.0237,-0.05151 -0.0443,-0.09993 -0.0618,-0.146297 -0.0628,-0.150418 -0.0999,-0.31526 -0.13599,-0.472891 0.27817,0.295686 1.051898,0.751062 1.137408,0.05357 0.0587,-0.492466 -0.695428,-0.962265 -1.116808,-1.056019 -0.29053,-0.06697 -0.55325,-0.04739 -0.84275,0.0021 0.90766,-0.923115 2.027558,-0.382227 2.940368,0.728396 0.39974,0.480103 1.50109,0.416226 1.20231,-0.412105 -0.15763,-0.461558 -0.63567,-0.801545 -1.0931,-0.875724 -0.007,0 -0.0206,0 -0.0268,0 0.005,-0.0031 0.0113,-0.0031 0.0124,0 1.18686,0.06285 2.13986,0.11745 2.82704,1.164197 -0.008,-0.200901 -0.0402,-0.400772 -0.0958,-0.58828 -0.21224,-0.736638 -0.15557,-1.588665 0.81185,-1.735993 -0.40284,0.27405 -0.0278,0.824211 0.35338,0.46877 0.21532,-0.19678 0.2792,-0.319382 0.2112,-0.576947 -0.0536,-0.184417 -0.0793,-0.464649 -0.2246,-0.601674 0.66967,0.341017 0.94372,1.011718 0.47186,1.675208 -0.0886,0.129813 -0.32865,0.312169 -0.26787,0.495556 0.0639,0.192659 0.2586,0.176175 0.40696,0.07315 0.20296,-0.139086 0.40901,-0.446104 0.33586,-0.653187 0.2586,0.308049 0.19369,0.723245 0.1123,1.107533 0.54089,-0.380167 1.18377,-0.659368 1.87096,-0.751062 0.37296,-0.05048 0.80567,-0.07727 1.18274,-0.02473 0.2246,0.03297 0.5615,0.07521 0.75725,0.19781 -0.76755,0.15454 -0.71707,0.584159 -0.7284,0.758274 1.15286,0.304958 1.74423,-0.495557 2.04713,-1.05911 0.38017,0.732516 0.1566,1.311524 -0.36883,1.774112 1.08589,-0.94269 2.45614,-0.526464 2.86001,0.203992 -0.57901,-0.111268 -1.15184,0.106117 -1.53406,0.520283 -0.32866,0.356471 -1.1302,1.407339 -1.76897,1.703025 -0.0216,0.0103 -0.0412,0.01751 -0.0628,0.02473 -0.0299,0.01442 -0.0628,0.0237 -0.0927,0.03091 -0.009,0.0041 -0.0206,0.0062 -0.0288,0.0093 -0.035,0.0062 -0.0711,0.01442 -0.10818,0.01442 -0.0433,0.0031 -0.0876,0.0052 -0.1226,0.0052 -0.009,0 -0.0216,0.001 -0.0289,0.001 -0.0299,0.0021 -0.0577,0.0021 -0.0804,0.0021 -0.006,0.0021 -0.008,0.0021 -0.008,0.0021 -0.10715,0.0052 -0.16999,0.0072 -0.21842,0.0072 h -0.0155 c -0.0103,0 -0.0144,0 -0.0216,-0.001 l -0.0155,-10e-4 h -0.0124 c -0.0103,-0.001 -0.0165,-0.0052 -0.0216,-0.0072 l -0.009,-0.0021 c -0.0103,-0.001 -0.0216,-0.0062 -0.0268,-0.0093 -0.004,-0.0021 -0.004,-0.0052 -0.004,-0.0052 -0.0124,-0.0041 -0.0227,-0.0062 -0.0299,-0.01133 0,-0.0031 -0.004,-0.0031 -0.004,-0.0031 -0.0371,-0.01957 -0.0793,-0.04121 -0.1463,-0.07521 -0.0711,-0.03606 -0.17102,-0.08654 -0.31938,-0.150419 -0.44198,-0.190598 -1.2868,0.225628 -1.70508,0 l -2.34179,0.04121 c -0.20296,0.141146 -0.40798,0.244172 -0.62022,0.319381 l 0.25448,-0.0072 c 0.1123,0.01751 0.23593,-0.0072 0.42137,-0.132904 l 2.24701,-0.03812 c 0.10405,0.04327 0.22872,0.068 0.38016,0.068 0.17721,0 0.37296,-0.02988 0.56047,-0.06285 0.1226,-0.02163 0.24829,-0.04018 0.36059,-0.05048 l 0.28023,0.0062 c 0.035,0.0041 0.0628,0.01442 0.0876,0.02164 0.21533,0.09581 0.3266,0.154539 0.39975,0.193689 0.10714,0.05563 0.16278,0.08757 0.2998,0.08757 0.033,0 0.0814,0 0.14733,-0.0062 0.0711,-0.0021 0.17308,-0.0072 0.31011,-0.01236 0.20193,-0.0052 0.41519,-0.100966 0.63773,-0.253445 l 0.51204,0.0093 0.15969,-0.603734 c 0.21121,-0.220476 0.42447,-0.464648 0.63568,-0.715002 0.0958,-0.111269 0.1772,-0.207083 0.24417,-0.277141 0.34823,-0.383258 0.8716,-0.560463 1.36716,-0.465679 l 0.21532,0.04121 0.31835,0.151448 c 0.42344,-0.844815 -0.3132,-1.472245 -0.66143,-1.722599 -0.24623,-0.165872 -0.37707,-0.383258 -0.37707,-0.383258 0.57076,0.263747 0.72942,0.365743 0.72942,0.365743 v 0.0031 c 0.008,-0.0031 0.0124,-0.0031 0.0124,-0.0031 1.7772,1.220862 3.40089,1.09414 3.8676,1.035415 -1.6103,-1.747326 -2.10894,-2.146038 -2.10894,-2.146038 0.48216,0.07212 2.52002,2.140886 2.53135,2.148098 0.72428,0.421378 1.16832,0.423438 1.16832,0.423438 1.00039,-0.0577 -0.33999,-1.094139 -1.36819,-1.892593 M 104.86813,9.0527953 c -0.0659,0.03297 -0.15454,0.05254 -0.27817,0.05151 -0.005,0.06388 -0.0598,0.1174499 -0.12466,0.1174499 -0.0701,0 -0.1257,-0.0546 -0.12776,-0.1205399 -0.0144,0 -0.0237,0.0031 -0.034,0.0062 -0.0319,0.0082 -0.0525,0.0237 -0.0711,0.03194 -0.0103,0.0093 -0.0206,0.01648 -0.033,0.01648 h -0.009 c -0.0113,0 -0.0237,-0.01133 -0.0258,-0.02885 -0.005,-0.02988 0.0237,-0.08963 0.0948,-0.1308438 0.0484,-0.02679 0.11333,-0.03709 0.20709,-0.03709 0.033,0 0.068,0.0021 0.10405,0.0041 0.0186,10e-4 0.0371,10e-4 0.0546,10e-4 0.0896,0 0.15557,-0.0062 0.19987,-0.01957 0.0402,-0.01133 0.0556,-0.02782 0.0659,-0.03812 0.0113,-0.0062 0.0206,-0.01648 0.035,-0.01648 0.0175,0 0.0289,0.01236 0.034,0.02885 0.0113,0.03194 -0.0175,0.09788 -0.0917,0.133934"
         id="path111"
         inkscape:connector-curvature="0"
         style="fill:#ffffff" /><path
         d="m 102.21417,18.512662 c -0.0258,-0.0082 -0.0525,-0.01442 -0.0804,-0.01957 0.0309,0.01442 0.0546,0.01648 0.0804,0.01957"
         id="path113"
         inkscape:connector-curvature="0"
         style="fill:#ffffff" /><path
         d="m 101.82988,18.248915 -0.0927,0.03606 c 0.0886,0.04018 0.19575,0.09787 0.3338,0.174114 -0.0783,-0.06181 -0.16793,-0.185447 -0.24108,-0.210173"
         id="path115"
         inkscape:connector-curvature="0"
         style="fill:#ffffff" /><path
         d="m 102.072,18.460119 c 0.0227,0.01751 0.0402,0.02885 0.0628,0.034 l -0.034,-0.0206 c -0.009,-0.0041 -0.0175,-0.0082 -0.0288,-0.01339"
         id="path117"
         inkscape:connector-curvature="0"
         style="fill:#ffffff" /><path
         d="m 103.49376,18.384909 h -0.6707 c -0.0258,0.0093 -0.38841,0 -0.41829,0 -0.0206,0 -0.0649,0.135995 -0.18957,0.129813 0.0598,0.01649 0.11745,0.03091 0.16484,0.05254 0.44714,0.05975 0.90457,-0.0052 1.34656,-0.180296 -0.067,-0.01133 -0.14424,-0.01236 -0.23284,-0.0021"
         id="path119"
         inkscape:connector-curvature="0"
         style="fill:#ffffff" /><path
         d="m 105.15042,40.119335 0,0 h -0.068 c -0.56458,0 -1.74217,0 -3.05576,-0.542948 -1.57836,-0.656278 -2.90122,-1.895684 -3.925297,-3.687311 -0.1329,-0.199871 -1.001413,-1.614422 -1.001413,-4.969988 V 20.217747 c 0.01958,-0.193689 0,-0.536767 -0.0886,-0.688216 l 0.124662,-0.530585 2.126458,-1.428975 0.14424,-0.105086 c 0.19266,0.192659 0.3132,0.239021 0.3132,0.239021 0,0 0.32865,0.233869 1.36921,0.233869 h 8.05254 c 1.03644,0 1.48358,-0.266838 1.48461,-0.266838 0,0 0.20914,-0.11848 0.32247,-0.240051 l 0.0175,0.140116 2.12647,1.428974 0.12363,0.530586 c -0.0886,0.151448 -0.10509,0.495556 -0.0886,0.689246 l 10e-4,0.03503 v 10.666311 c 0,3.353506 -0.86852,4.771148 -1.00142,4.972049 -2.417,4.226138 -5.72826,4.226138 -6.97694,4.226138 M 97.898365,20.268231 v 10.649827 c 0,3.257692 0.85718,4.516673 0.86645,4.525945 l 0.0237,0.03503 c 2.187245,3.84082 5.172945,3.84082 6.292835,3.84082 h 0.069 c 1.23116,0 4.1056,0 6.29388,-3.84082 l 0.0258,-0.03812 c 0.003,-0.0082 0.86233,-1.265163 0.86233,-4.522855 V 20.26823 c -0.009,-0.112299 -0.0237,-0.451255 0.0556,-0.78403 l -1.58867,-1.069413 c -0.2792,0.176175 -0.77888,0.320412 -1.65769,0.320412 h -8.05151 c -0.87984,0 -1.37849,-0.144237 -1.65769,-0.320412 L 97.839625,19.4842 c 0.0845,0.333805 0.069,0.671731 0.0587,0.78403"
         id="path121"
         inkscape:connector-curvature="0"
         style="fill:#ffffff" /><path
         d="m 98.887453,34.421982 c -0.068,0 -0.12775,-0.02885 -0.16793,-0.08654 -0.067,-0.09066 -0.0484,-0.220476 0.0453,-0.288473 0.0237,-0.01442 2.041977,-1.480488 2.877527,-2.303668 2.53135,-2.482934 3.89027,-1.551576 4.24365,-1.206438 0.0484,0.03503 0.16587,0.09066 0.31114,-0.05769 0.2112,-0.209143 0.41725,-0.289503 0.60991,-0.240051 0.19884,0.05048 0.34308,0.220476 0.43065,0.50792 0.11951,0.397681 0.36884,0.963296 1.15081,1.269284 0.86542,0.342047 1.47533,1.171409 1.55672,1.289889 0.068,0.07006 0.6841,0.687185 1.56703,0.642884 0.11333,-0.0093 0.21018,0.08139 0.21739,0.19575 0.008,0.110238 -0.0804,0.210173 -0.19472,0.215325 -1.13741,0.06388 -1.87302,-0.755183 -1.90496,-0.789182 -0.005,-0.0072 -0.0124,-0.01339 -0.0175,-0.0206 -0.003,-0.0052 -0.58622,-0.837604 -1.37643,-1.146682 -0.71294,-0.281262 -1.16729,-0.78403 -1.39498,-1.539213 -0.0525,-0.163812 -0.10715,-0.220476 -0.13393,-0.227688 -0.0216,-0.0052 -0.0989,0.01545 -0.21842,0.132904 -0.32762,0.332775 -0.70882,0.222536 -0.87984,0.06594 -1.17965,-1.13741 -3.27109,0.801545 -3.67598,1.201287 -0.85821,0.845846 -2.84146,2.282032 -2.92595,2.344878 -0.0361,0.02576 -0.0793,0.04018 -0.119507,0.04018"
         id="path123"
         inkscape:connector-curvature="0"
         style="fill:#ffffff" /><path
         d="m 112.3056,34.872206 c -0.0288,0 -0.0515,-0.0041 -0.0762,-0.01133 -7.81043,-1.533032 -13.948727,-0.01854 -14.009517,-0.0041 -0.21429,0.0546 -0.43168,-0.07315 -0.48525,-0.289504 -0.0546,-0.212235 0.0742,-0.42859 0.2895,-0.483194 0.0628,-0.01442 6.361877,-1.573211 14.355687,-0.0062 0.21429,0.0443 0.35647,0.254475 0.31629,0.468769 -0.0392,0.19266 -0.204,0.325563 -0.39047,0.325563"
         id="path125"
         inkscape:connector-curvature="0"
         style="fill:#ffffff" /><path
         d="m 101.87006,24.57782 1.51243,-3.87688 c 0.18957,0.0082 0.34308,-0.0546 0.3915,-0.180296 0.0216,-0.05666 0.0185,-0.121571 -0.004,-0.184417 v 0.0021 l -0.23284,-0.798454 -0.72428,0.438892 c -0.0103,0.0052 -0.0196,0.0103 -0.0268,0.01854 l -0.004,10e-4 h 10e-4 c -0.0392,0.02782 -0.069,0.06388 -0.0845,0.105087 -0.0484,0.122601 0.0216,0.27508 0.16691,0.398712 l -0.12363,0.319381 c 0,0 -0.11333,0.236961 -0.74591,-0.0082 -0.63156,-0.246233 -0.49556,-0.814938 -0.49556,-0.814938 0,0 -2.36033,0.540888 -1.13226,2.911523 0,0 0.28435,-0.50998 0.91384,-0.265808 0.63258,0.246233 0.54192,0.521313 0.54192,0.521313 l -0.5378,1.37231"
         id="path127"
         inkscape:connector-curvature="0"
         style="fill:#ffffff" /><path
         d="m 100.69144,26.100548 -1.1405,2.911523 c -0.0556,0.140116 0.0165,0.302897 0.15763,0.358532 0.14115,0.05563 0.3029,-0.01545 0.35956,-0.1566 l 1.11063,-2.847647"
         id="path129"
         inkscape:connector-curvature="0"
         style="fill:#ffffff" /><path
         d="m 103.49479,20.940992 -1.29092,3.324658 h 6.21351 l 0.9633,-3.324658 h -5.88589 z m 3.32981,2.442753 -0.68204,-0.401803 0.10715,0.824211 h -1.55673 l 0.69234,-0.824211 -0.96639,0.401803 0.55119,-1.557758 0.68307,0.398712 -0.1123,-0.82421 h 1.55776 l -0.68925,0.82421 0.96639,-0.398712 -0.55119,1.557758 z"
         id="path131"
         inkscape:connector-curvature="0"
         style="fill:#ffffff" /><path
         d="m 109.05821,27.120508 1.7875,-0.792272 -1.26001,-2.121311 -1.72363,1.33213 c 0.14527,0.261687 0.67482,1.1745 1.19614,1.581453"
         id="path133"
         inkscape:connector-curvature="0"
         style="fill:#ffffff" /><path
         d="m 101.31475,26.192242 c 0.005,0.01339 0.0917,0.31629 0.7181,0.222536 l 0.56561,-0.522343 c -0.0721,-0.126722 -0.20708,-0.388409 -0.26684,-0.657308 -0.0979,-0.415196 -0.21017,-0.555311 -0.45331,-0.560463 -0.0999,-0.0052 -0.20297,-0.01133 -0.30908,-0.01957 -0.21327,-0.01442 -0.50277,-0.03194 -0.57283,0.01957 -0.0721,0.05254 -0.0855,0.08242 -0.0855,0.08757 0,0 0.006,0.01133 0.0278,0.02885 0.0371,0.02782 0.21429,0.06491 0.32453,0.0886 0.28847,0.06181 0.44816,0.09787 0.49968,0.193689 0.0216,0.034 0.0258,0.07624 0.0124,0.114359 l -0.005,0.02061 c -0.0443,0.135994 -0.18133,0.542948 0.1329,0.964326 l -0.16896,0.129813 c -0.0515,-0.06594 -0.0886,-0.129813 -0.1226,-0.19369 -0.10715,0.03503 -0.20709,0.06079 -0.29981,0.07521 0,0 0,0.0072 0,0.01236 h 0.003 v -0.0041 z"
         id="path135"
         inkscape:connector-curvature="0"
         style="fill:#ffffff" /><path
         d="m 105.66349,27.667578 c 0.34617,-0.133934 1.45473,-0.608885 2.33046,-1.48873 -0.13909,-0.212234 -0.24315,-0.396651 -0.30393,-0.504829 l -0.54192,0.413136 c -0.12569,0.08551 -0.98184,0.654217 -1.60824,0.932388 0.007,0.06182 0.034,0.326593 0.12363,0.648035"
         id="path137"
         inkscape:connector-curvature="0"
         style="fill:#ffffff" /><path
         d="m 106.1982,29.015162 c -0.66452,-0.563554 -0.83142,-1.60515 -0.86851,-1.910107 -0.0886,0.03297 -0.17,0.05563 -0.23593,0.06594 -0.0299,0.150419 -0.0752,0.300837 -0.1257,0.439923 -0.18544,0.621248 -0.51307,1.078685 -0.75209,1.348614 0.15042,0.11848 0.51101,0.35544 1.00451,0.35544 0.31938,0 0.64906,-0.104056 0.97772,-0.299806"
         id="path139"
         inkscape:connector-curvature="0"
         style="fill:#ffffff" /><path
         d="m 108.11655,26.363265 c -0.92209,0.910753 -2.04301,1.384674 -2.38712,1.513456 0.12569,0.365744 0.32865,0.757244 0.66143,1.013779 0.004,-0.0052 0.009,-0.0072 0.0196,-0.0103 1.1199,-0.814937 2.10174,-1.433095 2.44894,-1.64739 -0.27405,-0.229749 -0.53265,-0.564584 -0.74282,-0.869542"
         id="path141"
         inkscape:connector-curvature="0"
         style="fill:#ffffff" /><path
         d="m 103.86362,29.012071 c 0.0319,-0.034 0.0793,-0.0783 0.13188,-0.137025 0.0834,-0.09994 0.52234,-0.647005 0.77063,-1.338311 0.0495,-0.175145 0.0907,-0.363683 0.10715,-0.566645 -0.32041,-0.06182 -1.35274,-0.288474 -2.12955,-0.915904 l -0.53574,0.493496 c 0.11539,0.315261 0.66967,1.687571 1.65563,2.464389"
         id="path143"
         inkscape:connector-curvature="0"
         style="fill:#ffffff" /><path
         d="m 101.50638,25.802802 c -0.006,-0.03503 -0.0124,-0.06697 -0.0124,-0.103026 -0.0556,0.01751 -0.12672,0.02473 -0.20296,0.02473 -0.22666,0 -0.5275,-0.068 -0.68925,-0.161751 0,0.05048 0.006,0.107147 0.0412,0.144237 0.18133,0.185447 0.63979,0.145267 0.86336,0.09581"
         id="path145"
         inkscape:connector-curvature="0"
         style="fill:#ffffff" /><path
         d="m 100.82435,26.010915 c 0.0968,0.07212 0.31011,0.122602 0.7387,-0.01751 -0.0113,-0.02473 -0.0186,-0.04739 -0.0289,-0.07418 -0.0907,0.02163 -0.24314,0.04533 -0.40799,0.04533 -0.1329,0 -0.27096,-0.01751 -0.38944,-0.06388 0.0185,0.03812 0.0422,0.07727 0.0876,0.110238"
         id="path147"
         inkscape:connector-curvature="0"
         style="fill:#ffffff" /><path
         d="m 100.81507,24.967259 c -0.0278,-0.02061 -0.0546,-0.0443 -0.0742,-0.068 -0.0237,0.0082 -0.0443,0.02163 -0.0649,0.04121 -0.0206,0.02679 -0.0206,0.068 -0.001,0.121571 0.0412,0.142176 0.58622,0.262717 0.83348,0.278171 0.0175,-0.06594 0.0309,-0.122601 0.0443,-0.164842 -0.0731,-0.02885 -0.22975,-0.06491 -0.32968,-0.08551 -0.20811,-0.0443 -0.33896,-0.07315 -0.40799,-0.122601"
         id="path149"
         inkscape:connector-curvature="0"
         style="fill:#ffffff" /><path
         d="m 101.48372,25.575114 v 0.0031 c 0,-0.04224 0.006,-0.08448 0.0103,-0.119511 -0.20709,-0.01854 -0.68719,-0.09478 -0.87057,-0.265807 -0.0319,0.07521 -0.0628,0.171023 -0.0186,0.224597 0.11436,0.135995 0.71809,0.245202 0.87882,0.15763"
         id="path151"
         inkscape:connector-curvature="0"
         style="fill:#ffffff" /><path
         d="m 98.476383,41.58746 -0.55531,0.661429 c 0.38738,0.185447 0.613,0.27611 0.613,0.27611 l 0.35441,-0.769606 c -0.14835,-0.06079 -0.28847,-0.11642 -0.4121,-0.167933"
         id="path153"
         inkscape:connector-curvature="0"
         style="fill:#ffffff" /><path
         d="m 97.552233,41.167113 c -0.0196,-0.01133 -0.034,-0.02782 -0.0402,-0.04842 -0.004,-0.0206 -0.004,-0.04327 0.006,-0.06388 l 0.62228,-1.084867 -1.693749,1.480488 c 0.521313,0.310109 0.974629,0.551191 1.326979,0.725305 l 0.54707,-0.653187 c -0.47701,-0.208113 -0.76034,-0.351319 -0.76858,-0.35544"
         id="path155"
         inkscape:connector-curvature="0"
         style="fill:#ffffff" /><path
         d="m 97.552233,41.167113 c -0.0196,-0.01133 -0.034,-0.02782 -0.0402,-0.04842 -0.004,-0.0206 -0.004,-0.04327 0.006,-0.06388 l 0.62228,-1.084867 -2.573594,2.244943 -0.301868,1.504184 1.552607,-0.403863 1.504185,-1.795748 c -0.47804,-0.205023 -0.76137,-0.348229 -0.76961,-0.35235"
         id="path157"
         inkscape:connector-curvature="0"
         style="fill:#ffffff" /><path
         d="m 114.77617,42.21489 -2.57463,-2.244943 0.62125,1.084867 c 0.0124,0.0206 0.0155,0.04018 0.007,0.06388 -0.005,0.02164 -0.0206,0.03709 -0.0402,0.04842 -0.008,0.0052 -0.28641,0.150418 -0.76652,0.357501 l 1.50316,1.791627 1.55466,0.405924 -0.30495,-1.507275 z"
         id="path159"
         inkscape:connector-curvature="0"
         style="fill:#ffffff" /><path
         d="m 111.53393,41.727576 0.31629,0.691306 c 0.0907,-0.03915 0.27199,-0.11848 0.51822,-0.23593 l -0.49761,-0.594462 c -0.10303,0.04739 -0.21636,0.09478 -0.3369,0.139086"
         id="path161"
         inkscape:connector-curvature="0"
         style="fill:#ffffff" /><path
         d="m 99.9239,38.416311 -0.55943,0.488344 c 0.20193,0.107148 0.48216,0.243142 0.8242,0.3915 l 0.34205,-0.407984 -0.60682,-0.47186 z"
         id="path163"
         inkscape:connector-curvature="0"
         style="fill:#ffffff" /><path
         d="m 110.38519,38.386433 -0.60271,0.465679 0.38017,0.447134 c 0.33999,-0.148358 0.61404,-0.283322 0.81906,-0.3915 l -0.59652,-0.521313 z"
         id="path165"
         inkscape:connector-curvature="0"
         style="fill:#ffffff" /><path
         d="m 92.761512,35.859198 -0.249323,-0.299806 -0.334836,0.27611 0.251384,0.296716 c 0.100966,0.129813 0.228719,0.111268 0.315261,0.04121 0.08139,-0.06697 0.11745,-0.19266 0.01751,-0.314231"
         id="path167"
         inkscape:connector-curvature="0"
         style="fill:#ffffff" /><path
         d="m 91.372718,32.049286 -1.902896,2.30985 c 1.831808,3.507014 4.795874,5.768441 6.831675,7.002696 l 2.085256,-1.817383 0.18235,-0.319382 c -4.532125,-2.153249 -7.196385,-7.175781 -7.196385,-7.175781 m -0.724275,2.867222 0.792272,-1.232195 0.163812,0.2349 -0.631551,0.932388 1.095169,-0.263747 0.160721,0.23593 -1.433095,0.31217 -0.147328,-0.219446 z m 0.565614,0.783 1.073534,-0.819059 0.15351,0.202961 -1.071474,0.818029 -0.15557,-0.201931 z m 1.051899,1.284737 -0.0103,0.0093 -0.194719,-0.23284 0.09478,-0.58931 -0.151449,-0.190599 -0.350289,0.286413 -0.163812,-0.194719 1.043656,-0.86027 c 0.139086,0.163812 0.27199,0.331745 0.407984,0.494526 0.203992,0.248294 0.144237,0.509981 -0.03709,0.661429 -0.140116,0.11539 -0.339987,0.171024 -0.542949,0.0072 l -0.09581,0.608885 z m 0.329684,0.379137 0.816999,-0.764455 -0.289504,-0.31217 0.169993,-0.155569 c 0.262717,0.281261 0.490405,0.524404 0.754152,0.811847 l -0.171023,0.15557 -0.288474,-0.316291 -0.819059,0.764455 -0.173084,-0.183387 z m 1.015839,1.069413 c -0.23593,-0.221506 -0.302897,-0.554281 -0.02576,-0.847906 l 0.532646,-0.561494 0.183386,0.173085 -0.528524,0.562523 c -0.167933,0.176175 -0.1566,0.364713 -0.0041,0.50792 0.152479,0.145267 0.335866,0.127752 0.496587,-0.0443 l 0.528525,-0.559432 0.186478,0.173084 -0.528525,0.558402 c -0.279201,0.291565 -0.595492,0.268899 -0.840695,0.03812 m 0.897359,0.759304 0.707791,-0.864391 -0.329684,-0.268898 0.146297,-0.180296 c 0.303929,0.245202 0.556343,0.453315 0.861301,0.701609 l -0.149388,0.182356 -0.328654,-0.271989 -0.706762,0.865421 -0.200901,-0.163812 z m 2.11101,0.203992 -0.622279,-0.436832 -0.177205,0.255506 0.596522,0.419317 -0.135995,0.192659 -0.599613,-0.421378 -0.173084,0.250354 0.617128,0.438892 -0.145267,0.203992 -0.826272,-0.581068 c 0.258597,-0.365743 0.519253,-0.730457 0.77888,-1.100321 l 0.82421,0.580038 -0.137025,0.198841 z"
         id="path169"
         inkscape:connector-curvature="0"
         style="fill:#ffffff" /><path
         d="m 100.53587,40.495381 -0.3575,-0.137025 -0.16999,0.445074 0.35647,0.139085 c 0.3029,0.11642 0.47392,-0.328653 0.17102,-0.447134"
         id="path171"
         inkscape:connector-curvature="0"
         style="fill:#ffffff" /><path
         d="m 105.14939,41.295896 c -0.31938,0 -0.44816,0.251384 -0.44816,0.480102 0.001,0.222537 0.14526,0.458467 0.43786,0.462588 0.30393,0.001 0.45434,-0.254475 0.44919,-0.484223 -0.009,-0.216356 -0.12157,-0.454346 -0.43889,-0.458467"
         id="path173"
         inkscape:connector-curvature="0"
         style="fill:#ffffff" /><polygon
         points="131.927,40.467 132.408,40.379 132.067,39.875 "
         id="polygon175"
         style="fill:#ffffff"
         transform="matrix(1.0302629,0,0,1.0302629,-28.181049,0.06580514)" /><path
         d="m 111.38248,38.859324 c -0.44095,0.270959 -2.85383,1.631936 -6.21145,1.631936 -3.31127,0 -5.76226,-1.365098 -6.21043,-1.631936 l -1.260007,2.199611 c 0.5481,0.267868 3.965477,1.871988 7.469407,1.871988 3.57089,0 6.93263,-1.60412 7.47455,-1.871988 l -1.26207,-2.199611 z m -11.10314,2.299547 -0.35441,-0.132904 -0.14218,0.368834 -0.23593,-0.09169 0.48113,-1.25692 c 0.19678,0.07521 0.39562,0.148358 0.5955,0.224597 0.61506,0.232839 0.27611,1.128138 -0.34411,0.888087 m 1.41661,0.86336 -0.90869,-0.259626 0.3678,-1.299162 0.24314,0.07006 -0.30186,1.072504 0.66864,0.189568 -0.069,0.226658 z m 0.68718,0.174114 c -0.31938,-0.06491 -0.5481,-0.309078 -0.47186,-0.70882 l 0.14836,-0.757244 0.24933,0.04842 -0.14939,0.756213 c -0.0484,0.239021 0.0639,0.39253 0.2689,0.43271 0.20296,0.04018 0.35132,-0.07521 0.39562,-0.303928 l 0.14732,-0.756212 0.24933,0.05048 -0.14836,0.754153 c -0.0783,0.395621 -0.35853,0.547069 -0.68925,0.484223 m 1.45371,-0.645974 c 0.27405,0.06285 0.53367,0.15969 0.5007,0.482163 -0.0309,0.299806 -0.31217,0.399742 -0.60991,0.369864 -0.27611,-0.02782 -0.47804,-0.134964 -0.55222,-0.388409 l 0.22253,-0.08654 c 0.0412,0.151448 0.19266,0.232839 0.35338,0.251384 0.16072,0.01648 0.31629,-0.02679 0.33072,-0.171024 0.0134,-0.127752 -0.11539,-0.192659 -0.28951,-0.228718 -0.27199,-0.06079 -0.51719,-0.158661 -0.48834,-0.457437 0.0299,-0.281262 0.31526,-0.365743 0.55943,-0.341017 0.21018,0.02267 0.41932,0.09994 0.50174,0.320412 l -0.21532,0.08345 c -0.0361,-0.08139 -0.15454,-0.165872 -0.3029,-0.184417 -0.18545,-0.02061 -0.28538,0.05151 -0.29363,0.151449 -0.0113,0.11642 0.12466,0.161751 0.28333,0.198841 m 1.84623,0.989052 -0.16072,-0.164842 c -0.10406,0.06388 -0.23181,0.09787 -0.38429,0.09684 -0.47598,-0.0062 -0.68719,-0.355441 -0.68719,-0.706761 0,-0.350289 0.22769,-0.701609 0.69955,-0.698518 0.47598,0.0041 0.68616,0.349259 0.68616,0.696458 0,0.151448 -0.0381,0.3132 -0.12879,0.436831 l 0.15866,0.159691 -0.18338,0.180296 z m 0.95402,-0.121571 c -0.31938,0.02885 -0.61301,-0.140116 -0.6501,-0.54707 l -0.068,-0.767546 0.24932,-0.02473 0.069,0.767546 c 0.0227,0.244172 0.17102,0.360592 0.37913,0.339987 0.20915,-0.01958 0.31836,-0.169994 0.29363,-0.397682 l -0.0659,-0.769606 0.25139,-0.02267 0.069,0.768576 c 0.034,0.400772 -0.18956,0.6264 -0.52749,0.653187 m 1.89671,-0.305988 -0.15969,-0.228719 -0.6913,0.127753 -0.068,0.267868 -0.2689,0.05357 0.34823,-1.436186 0.27508,-0.04842 0.8376,1.21262 -0.27302,0.05151 z m 1.51861,-0.401803 -0.27405,-0.94166 -0.25756,0.686155 -0.0515,0.01442 -0.57591,-0.445074 0.27714,0.9396 -0.24521,0.07212 -0.37604,-1.29607 0.28023,-0.08139 0.56458,0.439922 0.24315,-0.674822 0.28023,-0.07933 0.37398,1.29504 -0.23902,0.07109 z"
         id="path177"
         inkscape:connector-curvature="0"
         style="fill:#ffffff" /><path
         d="m 117.56406,35.656237 c -0.20502,0.239021 -0.10303,0.506889 0.0711,0.652156 0.17205,0.140116 0.42859,0.207083 0.63567,-0.03297 0.21017,-0.237991 0.11127,-0.486285 -0.0515,-0.633612 -0.17412,-0.1566 -0.44714,-0.225628 -0.65525,0.01442"
         id="path179"
         inkscape:connector-curvature="0"
         style="fill:#ffffff" /><polygon
         points="139.286,37.461 138.755,37.166 138.902,37.759 "
         id="polygon181"
         style="fill:#ffffff"
         transform="matrix(1.0302629,0,0,1.0302629,-28.181049,0.06580514)" /><path
         d="m 116.76457,36.555656 -0.27611,0.271989 0.3029,0.308049 0.27611,-0.270959 c 0.11333,-0.11539 0.0886,-0.240051 0.0134,-0.318351 -0.0773,-0.07727 -0.20708,-0.09891 -0.31629,0.0093"
         id="path183"
         inkscape:connector-curvature="0"
         style="fill:#ffffff" /><path
         d="m 118.98067,32.191462 c -0.41623,0.739729 -3.06503,5.193556 -7.2582,7.147964 l 2.25112,1.960591 c 2.02241,-1.222922 4.97514,-3.471986 6.80386,-6.9347 l -1.79678,-2.173855 z m -3.18866,6.727617 -0.2483,-0.132904 -0.5584,0.42962 0.0649,0.270959 -0.21842,0.167933 -0.34205,-1.438247 0.22254,-0.169994 1.30019,0.7047 -0.22047,0.167933 z m 0.6913,-0.547069 c -0.24108,0.211203 -0.58004,0.246232 -0.84584,-0.06079 l -0.50792,-0.582099 0.19266,-0.165872 0.50689,0.584159 c 0.15866,0.180296 0.35132,0.185448 0.50688,0.04945 0.15764,-0.138055 0.15557,-0.323503 0.006,-0.496587 l -0.50792,-0.580038 0.19163,-0.165872 0.50792,0.583129 c 0.25756,0.298776 0.20708,0.613006 -0.0505,0.834513 m 1.24044,-1.203348 -0.59652,-0.04121 -0.17412,0.168963 0.31938,0.322472 -0.18441,0.178236 -0.94888,-0.962266 c 0.15042,-0.148358 0.30599,-0.299806 0.45538,-0.448164 0.22872,-0.223567 0.49659,-0.192659 0.6604,-0.02576 0.13187,0.133935 0.20193,0.325563 0.0577,0.542949 l 0.61507,0.03812 0.0124,0.01339 -0.21635,0.213264 z m 0.72427,-0.740759 c -0.31217,0.359562 -0.71294,0.299807 -0.97978,0.06491 -0.26786,-0.230779 -0.38325,-0.636702 -0.0762,-0.988022 0.30084,-0.35132 0.72428,-0.289504 0.987,-0.05563 0.25756,0.231809 0.38119,0.620218 0.069,0.978749"
         id="path185"
         inkscape:connector-curvature="0"
         style="fill:#ffffff" /><path
         d="m 112.80527,33.283541 0,0 c 0.77991,-0.101996 1.8246,-0.869542 3.56265,-2.305728 1.67315,-1.382613 1.76484,-5.769472 1.33728,-7.634248 -0.4358,-1.923501 -0.76445,-3.960331 -0.76754,-3.978876 l 0.15557,-0.03297 c 0.14733,0.579008 1.21674,3.876879 1.22704,3.913969 0.64186,2.62614 0.1669,5.504694 0.0319,6.196001 0.2586,-0.108178 0.53162,-0.168963 0.81185,-0.229749 0.2112,-0.04224 0.42343,-0.0886 0.64597,-0.1566 0.47392,-0.149388 1.10032,-0.386348 1.72054,-0.880875 0.49968,-0.395621 1.12814,-0.775788 1.13226,-0.780939 l 0.42859,-0.257566 -0.32659,0.377077 c -1.39807,1.638118 -2.52827,2.04095 -3.25667,2.203732 -0.66864,0.150418 -1.7432,1.103412 -3.88615,3.010428 l -0.29156,0.262717 c -1.84829,1.641209 -2.9754,1.721569 -2.83322,1.13741 0.0721,-0.302897 0.33174,-0.453315 0.33174,-0.453315 l 0.0515,-0.111269 -0.0752,-0.279201 z"
         id="path187"
         inkscape:connector-curvature="0"
         style="fill:#ffffff" /><path
         d="m 117.75569,33.076458 c -0.0536,-0.140116 -0.17618,-0.35441 -0.41932,-0.449194 v -0.0021 c -0.12981,-0.04945 -0.25551,-0.04842 -0.34411,-0.02885 0.0361,-0.148358 0.0484,-0.337926 -0.0402,-0.498648 0.21739,-0.11848 0.49453,-0.108177 0.70058,0.05151 0.28641,0.216355 0.33793,0.62743 0.11127,0.921055 -10e-4,-10e-4 -0.007,0.0041 -0.008,0.0062"
         id="path189"
         inkscape:connector-curvature="0"
         style="fill:#ffffff" /><path
         d="m 116.87996,32.791075 0.0206,-0.0103 c 0.001,0 0.18545,-0.09272 0.37914,-0.01236 h 0.004 c 0.25241,0.100965 0.34926,0.289504 0.3575,0.449194 -0.0175,0.147328 -0.0752,0.302898 -0.1803,0.439923 -0.25344,0.328653 -0.66761,0.439922 -0.92723,0.239021 -0.15248,-0.119511 -0.21636,-0.324533 -0.18751,-0.539858 0.0505,-0.187508 0.27817,-0.446104 0.53367,-0.565615"
         id="path191"
         inkscape:connector-curvature="0"
         style="fill:#ffffff" /><path
         d="m 115.90843,32.279035 c 0.21532,-0.281262 0.58415,-0.360592 0.84687,-0.188538 0.19575,0.186477 0.0886,0.480102 0.0494,0.562523 -0.28126,0.138055 -0.51204,0.490405 -0.58518,0.616097 -0.0886,-0.01442 -0.17309,-0.05048 -0.24727,-0.106117 -0.25859,-0.194719 -0.28744,-0.592401 -0.0639,-0.883965"
         id="path193"
         inkscape:connector-curvature="0"
         style="fill:#ffffff" /><path
         d="m 116.35247,22.825342 c 0.033,-0.08654 0.10715,-0.223567 0.25963,-0.282292 h 0.001 c 0.0824,-0.03297 0.15763,-0.03091 0.21635,-0.0206 -0.0247,-0.09169 -0.0299,-0.212234 0.0258,-0.31526 -0.14012,-0.07418 -0.31114,-0.068 -0.43992,0.03091 -0.1803,0.137025 -0.21121,0.39459 -0.0701,0.577977 0.002,0.0052 0.003,0.0082 0.007,0.0093"
         id="path195"
         inkscape:connector-curvature="0"
         style="fill:#ffffff" /><path
         d="m 116.90057,22.645046 -0.0124,-0.0082 c 0,0 -0.11745,-0.0546 -0.24006,-0.0062 h -0.004 c -0.15557,0.06388 -0.21326,0.182356 -0.22356,0.281262 0.0144,0.09169 0.0505,0.189568 0.11642,0.27611 0.15454,0.203992 0.41725,0.277141 0.579,0.151449 0.102,-0.07727 0.13909,-0.203992 0.11951,-0.339987 -0.0288,-0.11539 -0.17205,-0.281262 -0.33483,-0.354411"
         id="path197"
         inkscape:connector-curvature="0"
         style="fill:#ffffff" /><path
         d="m 117.50945,22.324635 c -0.13702,-0.176175 -0.36883,-0.226658 -0.52852,-0.118481 -0.12775,0.11745 -0.0598,0.300837 -0.0371,0.353381 0.17721,0.08757 0.32144,0.311139 0.36883,0.386348 0.0556,-0.01133 0.10921,-0.02885 0.15454,-0.06594 0.16485,-0.123631 0.18339,-0.372955 0.0422,-0.555311"
         id="path199"
         inkscape:connector-curvature="0"
         style="fill:#ffffff" /><path
         d="m 117.2488,17.60191 c 0.44404,-0.296716 0.59034,-0.675853 0.59034,-0.675853 0,0 -0.0443,0.403863 0.2112,0.871603 0.32041,0.579007 0.30908,1.218801 -0.22769,1.60721 0,0 -0.33998,0.225627 -0.62743,0.154539 -0.28332,-0.068 -0.48319,-0.424468 -0.48319,-0.424468 -0.29981,-0.593432 -0.0113,-1.166258 0.53677,-1.533031"
         id="path201"
         inkscape:connector-curvature="0"
         style="fill:#ffffff" /><path
         d="m 119.25369,19.386325 c 0.78712,-0.182357 1.19304,-0.642884 1.19304,-0.642884 0,0 -0.27714,0.543979 -0.15866,1.344493 0.14012,0.985962 -0.21017,1.883321 -1.17553,2.149128 0,0 -0.60064,0.139086 -0.96741,-0.109208 -0.36575,-0.251384 -0.45744,-0.860269 -0.45744,-0.860269 -0.10818,-0.994204 0.59446,-1.653572 1.566,-1.88126"
         id="path203"
         inkscape:connector-curvature="0"
         style="fill:#ffffff" /><path
         d="m 120.26644,22.704802 c 0.67791,0.06594 1.12401,-0.191629 1.12401,-0.191629 0,0 -0.36574,0.361622 -0.48834,1.029232 -0.14424,0.826271 -0.66555,1.44752 -1.50727,1.399097 0,0 -0.51823,-0.04945 -0.74385,-0.346168 -0.22872,-0.299806 -0.14012,-0.810817 -0.14012,-0.810817 0.1803,-0.82215 0.92002,-1.159046 1.75557,-1.079715"
         id="path205"
         inkscape:connector-curvature="0"
         style="fill:#ffffff" /><path
         d="m 115.78376,20.953355 c -0.0402,-0.434771 -0.26065,-0.685125 -0.26065,-0.685125 0,0 0.27199,0.185447 0.71191,0.180296 0.53883,-0.0062 0.99729,0.246233 1.07147,0.78506 0,0 0.0319,0.329684 -0.13084,0.511011 -0.15763,0.180296 -0.49453,0.182356 -0.49453,0.182356 -0.53779,-0.01648 -0.84172,-0.439922 -0.89736,-0.973598"
         id="path207"
         inkscape:connector-curvature="0"
         style="fill:#ffffff" /><path
         d="m 115.3459,24.444916 c -0.0752,-0.736638 -0.44507,-1.165228 -0.44507,-1.165228 0,0 0.46568,0.320412 1.2085,0.31114 0.91693,-0.01236 1.69272,0.418287 1.81841,1.330069 0,0 0.0567,0.562524 -0.21429,0.867482 -0.27302,0.303927 -0.83967,0.312169 -0.83967,0.312169 -0.9262,-0.0206 -1.44031,-0.74694 -1.52788,-1.655632"
         id="path209"
         inkscape:connector-curvature="0"
         style="fill:#ffffff" /><path
         d="m 120.04081,26.151031 c 0.70779,-0.308049 1.00863,-0.808756 1.00863,-0.808756 0,0 -0.16278,0.561493 0.0865,1.29298 0.30702,0.900449 0.13084,1.80399 -0.72943,2.219186 0,0 -0.54294,0.2349 -0.93238,0.06078 -0.39047,-0.169993 -0.5821,-0.725305 -0.5821,-0.725305 -0.27302,-0.918994 0.27611,-1.656662 1.14874,-2.03889"
         id="path211"
         inkscape:connector-curvature="0"
         style="fill:#ffffff" /><path
         d="m 122.55877,26.002673 c 0.31629,-0.210173 0.42035,-0.478042 0.42035,-0.478042 0,0 -0.0361,0.283323 0.14424,0.616097 0.22975,0.407985 0.2215,0.8613 -0.15557,1.137411 0,0 -0.24314,0.160721 -0.44714,0.111268 -0.20193,-0.05048 -0.34101,-0.303927 -0.34101,-0.303927 -0.20915,-0.418287 -0.006,-0.823181 0.37913,-1.082807"
         id="path213"
         inkscape:connector-curvature="0"
         style="fill:#ffffff" /><path
         d="m 124.0712,28.274403 c 0.29671,0.439922 0.67585,0.583129 0.67585,0.583129 0,0 -0.40386,-0.04224 -0.86748,0.216355 -0.57695,0.320412 -1.21262,0.31526 -1.60412,-0.219446 0,0 -0.22563,-0.337926 -0.16072,-0.622279 0.068,-0.284352 0.42344,-0.484223 0.42344,-0.484223 0.5924,-0.299807 1.16522,-0.01854 1.53303,0.526464"
         id="path215"
         inkscape:connector-curvature="0"
         style="fill:#ffffff" /><path
         d="m 120.89181,30.696551 c 0.31526,0.58725 0.76342,0.810817 0.76342,0.810817 0,0 -0.49246,-0.106117 -1.10444,0.1566 -0.75106,0.320412 -1.54436,0.227688 -1.95853,-0.488345 0,0 -0.23696,-0.446104 -0.11745,-0.791242 0.12569,-0.345138 0.59034,-0.547069 0.59034,-0.547069 0.77064,-0.290534 1.44237,0.134964 1.82666,0.859239"
         id="path217"
         inkscape:connector-curvature="0"
         style="fill:#ffffff" /><path
         d="m 116.06503,27.326561 c -0.15557,-0.463618 -0.45744,-0.682034 -0.45744,-0.682034 0,0 0.34617,0.135995 0.82421,0.01957 0.58519,-0.144237 1.14874,0.0206 1.36407,0.585189 0,0 0.12054,0.354411 -0.0124,0.58725 -0.12981,0.240051 -0.49143,0.326593 -0.49143,0.326593 -0.59549,0.124662 -1.03129,-0.266838 -1.22704,-0.836573"
         id="path219"
         inkscape:connector-curvature="0"
         style="fill:#ffffff" /><path
         d="m 114.81223,29.609624 c 0.46361,-0.396652 0.57797,-0.844816 0.57797,-0.844816 0,0 0,0.461558 0.35441,0.959175 0.43993,0.609915 0.50895,1.33213 -0.0433,1.84417 0,0 -0.35235,0.300837 -0.68306,0.259627 -0.33175,-0.04018 -0.60477,-0.418287 -0.60477,-0.418287 -0.41416,-0.631551 -0.17308,-1.315646 0.39872,-1.799869"
         id="path221"
         inkscape:connector-curvature="0"
         style="fill:#ffffff" /><path
         d="m 115.22948,34.717667 c 0.36369,0.535737 0.82009,0.70676 0.82009,0.70676 0,0 -0.48628,-0.05254 -1.04984,0.263748 -0.69233,0.385318 -1.46297,0.379136 -1.93998,-0.266838 0,0 -0.27199,-0.407985 -0.19266,-0.751062 0.0845,-0.345138 0.50895,-0.584159 0.50895,-0.584159 0.72015,-0.364713 1.40837,-0.02679 1.85344,0.631551"
         id="path223"
         inkscape:connector-curvature="0"
         style="fill:#ffffff" /><path
         d="m 88.110906,27.389407 c 0.0072,0.0072 0.634642,0.383258 1.133289,0.783 0.621248,0.494526 1.244557,0.730456 1.721569,0.879844 0.218416,0.068 0.434771,0.11436 0.639793,0.158661 0.284353,0.05975 0.555312,0.11848 0.815969,0.227688 -0.132904,-0.693367 -0.611977,-3.569861 0.03297,-6.199092 0.01133,-0.034 1.081776,-3.32981 1.227043,-3.910878 l 0.153509,0.034 c -0.0031,0.01957 -0.329684,2.055374 -0.771667,3.977845 -0.421377,1.866836 -0.335865,6.251635 1.339342,7.636308 1.739085,1.434126 2.976432,2.345909 3.759432,2.447905 l 0.0196,0.0021 0.55325,0.695427 0.0639,0.230779 c 0,0 -0.0804,-0.143207 -0.28023,-0.143207 -0.60064,0 -1.223953,0.416227 -3.068123,-1.223952 L 95.154813,32.722048 C 93.011866,30.816061 91.936272,29.861008 91.267631,29.71368 90.543356,29.550899 89.412128,29.148066 88.012,27.506857 l -0.326593,-0.377076 0.425499,0.259626 z"
         id="path225"
         inkscape:connector-curvature="0"
         style="fill:#ffffff" /><path
         d="m 94.20079,32.396485 c -0.171024,-0.253445 -0.511011,-0.417257 -0.758274,-0.362653 -0.09685,0.01957 -0.210173,0.08139 -0.244172,0.258596 -0.01648,0.11848 0,0.218416 0.06388,0.309079 0.151449,0.227688 0.355441,0.349259 0.517192,0.302897 0.126722,-0.06285 0.51101,-0.04945 0.528525,-0.245202 -0.01752,-0.09272 -0.05357,-0.179266 -0.107147,-0.262717"
         id="path227"
         inkscape:connector-curvature="0"
         style="fill:#ffffff" /><path
         d="m 94.709739,33.316509 c 0.0443,0.05151 0.19472,0.179266 0.307019,0.150419 0.03606,-0.01133 0.128783,-0.04224 0.176175,-0.146297 0.05254,-0.123632 0.0237,-0.296716 -0.08757,-0.503799 -0.01545,-0.03297 -0.02885,-0.05976 -0.04842,-0.0886 -0.09066,-0.132904 -0.19575,-0.202961 -0.311139,-0.202961 -0.108178,0 -0.226658,0.07006 -0.310109,0.183386 0.01854,0.08139 0.08139,0.333806 0.203992,0.519253 0.02164,0.03503 0.0443,0.06491 0.07006,0.0886"
         id="path229"
         inkscape:connector-curvature="0"
         style="fill:#ffffff" /><path
         d="m 94.432599,34.513675 c 0.03194,0.04842 0.08036,0.08654 0.144237,0.111268 0.217385,0.08448 0.347198,0.107148 0.43271,0.068 0.07418,-0.03297 0.126722,-0.11745 0.186478,-0.281262 0.03812,-0.122601 -0.02164,-0.310109 -0.179266,-0.54707 -0.09272,-0.141146 -0.202962,-0.266838 -0.27199,-0.339986 -0.04739,0.100965 -0.143206,0.265807 -0.290534,0.371925 -0.034,0.07418 -0.154539,0.418286 -0.02164,0.617127"
         id="path231"
         inkscape:connector-curvature="0"
         style="fill:#ffffff" /><path
         d="m 93.852561,33.578196 c 0.132904,0.203992 0.395621,0.270959 0.576947,0.150419 0.183387,-0.123632 0.221507,-0.386349 0.08757,-0.589311 -0.140115,-0.203992 -0.398711,-0.269929 -0.580038,-0.147327 -0.184417,0.11951 -0.221506,0.384288 -0.08448,0.586219"
         id="path233"
         inkscape:connector-curvature="0"
         style="fill:#ffffff" /><path
         d="m 93.752625,33.649284 c -0.131873,-0.193689 -0.137025,-0.43168 -0.02988,-0.605794 -0.235931,0.05151 -0.58519,0.181326 -0.601674,0.502768 -0.0021,0.04636 0.0072,0.0886 0.03606,0.125692 0.122602,0.184417 0.537798,0.206053 0.856149,0.19472 -0.09787,-0.04121 -0.19472,-0.11848 -0.260657,-0.217386"
         id="path235"
         inkscape:connector-curvature="0"
         style="fill:#ffffff" /><path
         d="m 93.788684,33.184636 c -0.03606,0.124662 -0.0237,0.270959 0.06388,0.394591 0.0886,0.138055 0.233869,0.211203 0.376046,0.207082 -0.120541,-0.07109 -0.279202,-0.186477 -0.371925,-0.321442 -0.06388,-0.09684 -0.08654,-0.188538 -0.068,-0.280231"
         id="path237"
         inkscape:connector-curvature="0"
         style="fill:#ffffff" /><path
         d="m 92.076388,23.234357 c 0.07212,-0.254475 -0.0082,-0.567675 -0.175145,-0.702639 -0.06697,-0.05357 -0.172054,-0.09479 -0.307018,-0.01854 -0.0886,0.0546 -0.144237,0.122601 -0.172054,0.214294 -0.06491,0.223568 -0.03297,0.424469 0.08654,0.50895 0.107147,0.04533 0.31423,0.308049 0.455376,0.209144 0.04842,-0.0546 0.08654,-0.129813 0.112299,-0.211204"
         id="path239"
         inkscape:connector-curvature="0"
         style="fill:#ffffff" /><path
         d="m 91.745673,24.083293 c -0.0072,0.06285 -0.0082,0.230779 0.068,0.287444 0.02782,0.01957 0.101997,0.05975 0.19472,0.03091 0.109208,-0.02885 0.210174,-0.147328 0.288474,-0.332775 0.01133,-0.02885 0.02164,-0.05666 0.02885,-0.08036 0.03709,-0.135994 0.02679,-0.244172 -0.03709,-0.321442 -0.05976,-0.07109 -0.171024,-0.110238 -0.291565,-0.101996 -0.04018,0.0546 -0.177205,0.239021 -0.228718,0.422408 -0.01133,0.03297 -0.01855,0.06491 -0.02267,0.09581"
         id="path241"
         inkscape:connector-curvature="0"
         style="fill:#ffffff" /><path
         d="m 90.805043,24.563396 c -0.01545,0.04842 -0.01545,0.0989 0.0052,0.154539 0.06388,0.19369 0.118481,0.289504 0.19266,0.322473 0.06388,0.03194 0.148357,0.02163 0.291564,-0.03194 0.09994,-0.03812 0.192659,-0.186478 0.262717,-0.420348 0.04018,-0.143206 0.06388,-0.281262 0.07315,-0.366773 -0.09272,0.02473 -0.250354,0.05151 -0.405924,0.01236 -0.07006,0.02163 -0.362652,0.131873 -0.419317,0.329684"
         id="path243"
         inkscape:connector-curvature="0"
         style="fill:#ffffff" /><path
         d="m 91.098668,23.658825 c -0.05666,0.202962 0.04224,0.412105 0.222537,0.464649 0.183387,0.05666 0.377076,-0.06491 0.435801,-0.267869 0.05976,-0.205022 -0.03915,-0.412105 -0.222537,-0.467739 -0.178235,-0.05357 -0.377076,0.068 -0.435801,0.270959"
         id="path245"
         inkscape:connector-curvature="0"
         style="fill:#ffffff" /><path
         d="m 90.998733,23.631008 c 0.05975,-0.192659 0.211203,-0.325563 0.384288,-0.35338 -0.163812,-0.127753 -0.441983,-0.284353 -0.658338,-0.119511 -0.03503,0.02576 -0.05769,0.05769 -0.06903,0.09478 -0.05254,0.181326 0.162782,0.47083 0.344108,0.674822 -0.02679,-0.09478 -0.02679,-0.19575 -0.001,-0.296716"
         id="path247"
         inkscape:connector-curvature="0"
         style="fill:#ffffff" /><path
         d="m 91.329447,23.400229 c -0.104057,0.04327 -0.189568,0.135995 -0.228718,0.259626 -0.03915,0.138056 -0.0072,0.27302 0.06903,0.365744 -0.01648,-0.120541 -0.02885,-0.289504 0.0103,-0.427559 0.02988,-0.09169 0.07727,-0.160721 0.149388,-0.197811"
         id="path249"
         inkscape:connector-curvature="0"
         style="fill:#ffffff" /><path
         d="m 92.428737,18.519874 c -0.05975,-0.124662 0.08139,-0.07212 0.05563,-0.224598 -0.0072,-0.04945 -0.01133,-0.104056 -0.01545,-0.15763 -0.0072,-0.113329 -0.131874,-0.184417 -0.111269,-0.312169 0.0062,-0.03297 0.141146,-0.119511 0.148358,-0.15351 0.02267,-0.133934 -0.04121,-0.356471 0.01855,-0.503798 0.02782,-0.068 0.159691,-0.05872 0.192659,-0.127753 0.0443,-0.08757 0.140116,-0.188538 0.19472,-0.27611 0.08551,0.05254 0.173084,0.107147 0.249323,0.162781 0.06697,0.04636 0.181327,-0.02679 0.235931,0.02164 0.12054,0.103026 0.167932,0.327623 0.257565,0.434771 0.02061,0.02885 0.182357,0.03915 0.202962,0.06594 0.07418,0.103026 0,0.223567 0.04739,0.324532 0.0237,0.05048 0.0443,0.09891 0.06182,0.150419 0.05254,0.142176 0.148358,0.02988 0.15866,0.167933 0.0041,0.05254 -0.05976,0.356471 -0.05976,0.406954 0,0.169993 0.138055,0.134964 0.09891,0.281261 -0.01648,0.05254 -0.194719,0.301867 -0.212234,0.35132 -0.05151,0.152479 0.08139,0.203992 0.02473,0.307018 -0.08036,0.144237 -0.335866,0.304958 -0.335866,0.304958 0,0 -0.303928,-0.02164 -0.439922,-0.108177 -0.09581,-0.06491 -0.0072,-0.168964 -0.124662,-0.280232 -0.03915,-0.03503 -0.316291,-0.167933 -0.355441,-0.208113 -0.104056,-0.109208 0.03709,-0.145267 -0.0443,-0.294655 -0.02885,-0.04739 -0.228719,-0.285383 -0.248294,-0.332775"
         id="path251"
         inkscape:connector-curvature="0"
         style="fill:#ffffff" /><path
         d="m 90.174522,21.251101 c -0.173084,-0.137025 0.05975,-0.165873 -0.08551,-0.364713 -0.05563,-0.06491 -0.100965,-0.137025 -0.149388,-0.209144 -0.09581,-0.15763 -0.323502,-0.160721 -0.398711,-0.356471 -0.01752,-0.04945 0.107147,-0.273019 0.08963,-0.326593 -0.06594,-0.210174 -0.327623,-0.474951 -0.359561,-0.728396 -0.01545,-0.11642 0.183386,-0.203992 0.177205,-0.329684 -0.0072,-0.152479 0.05048,-0.369864 0.05563,-0.537797 0.166903,0.0103 0.328654,0.02163 0.484224,0.04224 0.122601,0.01854 0.227688,-0.174115 0.343077,-0.151449 0.248294,0.0546 0.493496,0.333805 0.696458,0.415196 0.05151,0.02163 0.280231,-0.08345 0.331745,-0.05976 0.188538,0.08757 0.173084,0.31423 0.321442,0.421377 0.07006,0.05151 0.140115,0.106117 0.202961,0.161751 0.182357,0.161752 0.23284,-0.06903 0.35132,0.11745 0.04739,0.06594 0.191629,0.5481 0.228718,0.619188 0.126723,0.239021 0.295686,0.08139 0.35235,0.317321 0.02267,0.0886 -0.04224,0.576948 -0.02679,0.660399 0.0443,0.256535 0.265808,0.228718 0.265808,0.412105 -0.001,0.263747 -0.240051,0.689246 -0.240051,0.689246 0,0 -0.439922,0.202962 -0.701609,0.184417 -0.185447,-0.01339 -0.141146,-0.2349 -0.3915,-0.298776 -0.08345,-0.01957 -0.577977,0.0052 -0.662459,-0.0237 -0.227688,-0.07727 -0.05975,-0.23284 -0.288474,-0.378107 -0.06182,-0.04636 -0.530585,-0.224597 -0.596522,-0.27611"
         id="path253"
         inkscape:connector-curvature="0"
         style="fill:#ffffff" /><path
         d="m 94.385207,19.828308 c 0.116419,-0.09581 0.09891,0.06491 0.255505,0 0.05151,-0.0237 0.108177,-0.04533 0.163812,-0.06491 0.12054,-0.03606 0.160721,-0.190599 0.299806,-0.203992 0.03915,-0.0031 0.166903,0.11539 0.203993,0.111268 0.151449,-0.0082 0.369865,-0.139085 0.543979,-0.11951 0.07933,0.0103 0.105087,0.15557 0.190599,0.172054 0.104056,0.02163 0.23696,0.09478 0.351319,0.126722 -0.03709,0.111269 -0.07212,0.215325 -0.110238,0.315261 -0.03091,0.08139 0.07727,0.180296 0.0443,0.253444 -0.07727,0.158661 -0.303928,0.27405 -0.393561,0.394591 -0.02163,0.02988 0.01339,0.206053 -0.01133,0.23387 -0.09169,0.110238 -0.237991,0.06491 -0.334835,0.146297 -0.0443,0.03709 -0.09272,0.07418 -0.140116,0.105087 -0.140116,0.09478 0.0072,0.164842 -0.137025,0.218416 -0.05563,0.0206 -0.395622,0.03297 -0.448165,0.04739 -0.180296,0.04636 -0.104057,0.185447 -0.268899,0.185447 -0.06388,0 -0.379137,-0.122601 -0.433741,-0.126722 -0.177205,-0.01442 -0.19781,0.141146 -0.321442,0.107147 -0.176175,-0.04121 -0.417256,-0.271989 -0.417256,-0.271989 0,0 -0.06182,-0.327624 -0.0072,-0.498648 0.04018,-0.12054 0.177205,-0.0546 0.263747,-0.210173 0.02473,-0.05048 0.08963,-0.381198 0.123632,-0.434771 0.0886,-0.142177 0.164842,-0.0031 0.300837,-0.129813 0.04121,-0.04121 0.23696,-0.322473 0.282292,-0.356471"
         id="path255"
         inkscape:connector-curvature="0"
         style="fill:#ffffff" /><path
         d="m 93.630024,23.033456 c 0.144237,-0.147328 0.147328,0.07109 0.342047,-0.04636 0.07006,-0.03812 0.138055,-0.07624 0.212234,-0.111269 0.150419,-0.07624 0.177206,-0.284352 0.365744,-0.328654 0.04739,-0.01339 0.239021,0.122602 0.291564,0.111269 0.198841,-0.04018 0.46671,-0.254475 0.703671,-0.258596 0.110238,-0.0031 0.172054,0.191629 0.286413,0.19575 0.145267,0.0082 0.336896,0.08345 0.492465,0.105087 -0.02473,0.153509 -0.05151,0.300836 -0.0886,0.439922 -0.02576,0.112299 0.137025,0.228718 0.107147,0.330714 -0.07521,0.225628 -0.359562,0.422408 -0.454346,0.600644 -0.02679,0.04739 0.04945,0.271989 0.0237,0.318351 -0.0989,0.160721 -0.309079,0.128783 -0.419317,0.254475 -0.05666,0.06078 -0.112298,0.115389 -0.172054,0.167933 -0.166903,0.153509 0.03915,0.221506 -0.144237,0.318351 -0.06491,0.03194 -0.524404,0.11642 -0.591371,0.146297 -0.235931,0.09478 -0.107148,0.265808 -0.327624,0.297746 -0.08139,0.0103 -0.524404,-0.09684 -0.604764,-0.09169 -0.240051,0.01545 -0.23593,0.225627 -0.407984,0.205022 -0.240052,-0.02885 -0.608886,-0.288474 -0.608886,-0.288474 0,0 -0.144237,-0.43168 -0.09994,-0.66864 0.03297,-0.171024 0.231809,-0.106117 0.31629,-0.332775 0.02782,-0.07212 0.05151,-0.529555 0.08654,-0.606825 0.09581,-0.203992 0.221506,-0.02988 0.380167,-0.231809 0.04945,-0.05873 0.259626,-0.471861 0.311139,-0.526464"
         id="path257"
         inkscape:connector-curvature="0"
         style="fill:#ffffff" /><path
         d="m 93.61354,26.545622 c 0.09891,-0.104057 0.101996,0.04842 0.2349,-0.02988 0.0443,-0.02885 0.09684,-0.05563 0.146297,-0.08036 0.104057,-0.05151 0.123632,-0.19369 0.251384,-0.228719 0.03091,-0.0062 0.166903,0.08551 0.206053,0.0783 0.133934,-0.02679 0.321442,-0.173084 0.482163,-0.176175 0.07521,-0.0021 0.11745,0.130844 0.199871,0.135995 0.09478,0.0052 0.227689,0.05666 0.332776,0.07006 -0.01752,0.108177 -0.03503,0.209143 -0.05975,0.304958 -0.01855,0.0783 0.09375,0.155569 0.07212,0.227688 -0.04842,0.155569 -0.246234,0.290534 -0.315262,0.416226 -0.01236,0.03091 0.03709,0.186478 0.02061,0.216355 -0.06903,0.111269 -0.209144,0.08551 -0.291565,0.175145 -0.03606,0.04018 -0.07624,0.08139 -0.113329,0.114359 -0.115389,0.107147 0.02473,0.152479 -0.09891,0.217386 -0.04945,0.02576 -0.361622,0.08139 -0.407984,0.09994 -0.15866,0.06491 -0.07212,0.186478 -0.224597,0.206053 -0.05872,0.0082 -0.363683,-0.06697 -0.415196,-0.06491 -0.166903,0.0093 -0.164842,0.153509 -0.280232,0.142176 -0.165872,-0.0206 -0.420347,-0.200901 -0.420347,-0.200901 0,0 -0.09994,-0.293625 -0.068,-0.457437 0.02061,-0.116419 0.15763,-0.07315 0.213264,-0.229748 0.0206,-0.04945 0.03915,-0.364713 0.06079,-0.417257 0.06697,-0.140116 0.151448,-0.0237 0.262717,-0.154539 0.02988,-0.04327 0.173084,-0.329684 0.212234,-0.364713"
         id="path259"
         inkscape:connector-curvature="0"
         style="fill:#ffffff" /><path
         d="m 94.47793,30.540981 c -0.05769,-0.161751 0.109208,-0.08242 0.09891,-0.27405 -0.0062,-0.068 -0.0062,-0.132904 -0.0031,-0.201931 0.0072,-0.144237 -0.141146,-0.246233 -0.106117,-0.403863 0.0103,-0.04018 0.185447,-0.132904 0.201931,-0.175145 0.04533,-0.164842 -0.0093,-0.450225 0.07933,-0.62846 0.04018,-0.08242 0.209144,-0.05357 0.262718,-0.140116 0.06181,-0.101996 0.192659,-0.218416 0.265807,-0.326593 0.11127,0.08036 0.206054,0.15866 0.299808,0.240051 0.07418,0.06491 0.226658,-0.01958 0.291564,0.04739 0.140116,0.145267 0.178236,0.43271 0.27508,0.572826 0.02782,0.03709 0.223568,0.07006 0.247264,0.107147 0.08448,0.137025 -0.0237,0.277141 0.02576,0.414166 0.02473,0.06491 0.04533,0.128783 0.06285,0.191629 0.05151,0.189568 0.183387,0.05872 0.183387,0.229749 0,0.06491 -0.11848,0.438892 -0.121571,0.498647 -0.02164,0.214295 0.15866,0.184417 0.09169,0.365743 -0.02164,0.06491 -0.27611,0.354411 -0.300836,0.415196 -0.08551,0.186478 0.07315,0.265808 -0.0082,0.382228 -0.112298,0.172054 -0.454345,0.347198 -0.454345,0.347198 0,0 -0.378107,-0.06182 -0.542949,-0.185447 -0.11333,-0.09169 0.01133,-0.216355 -0.125693,-0.368834 -0.04636,-0.04533 -0.378107,-0.243142 -0.420347,-0.298776 -0.118481,-0.148358 0.05872,-0.178236 -0.02782,-0.377077 -0.02473,-0.05048 -0.253445,-0.371924 -0.275081,-0.43168"
         id="path261"
         inkscape:connector-curvature="0"
         style="fill:#ffffff" /><path
         d="m 89.404916,27.382195 c -0.07212,-0.174114 0.11642,-0.09375 0.08963,-0.302897 -0.0072,-0.06903 -0.01442,-0.148358 -0.01442,-0.221507 -0.0062,-0.155569 -0.171024,-0.257565 -0.140116,-0.43374 0.0062,-0.0443 0.191629,-0.15454 0.201932,-0.203992 0.04121,-0.182357 -0.03709,-0.491436 0.04842,-0.693367 0.04224,-0.09066 0.226658,-0.07109 0.27508,-0.165873 0.06079,-0.11848 0.19472,-0.252414 0.27199,-0.373985 0.11951,0.07727 0.232839,0.15866 0.335865,0.237991 0.08448,0.06491 0.244173,-0.02885 0.322473,0.03606 0.161751,0.146297 0.220476,0.458467 0.333805,0.607855 0.03194,0.03915 0.250354,0.06182 0.27405,0.09994 0.100966,0.146297 -0.0062,0.305988 0.05666,0.450224 0.02885,0.06903 0.05563,0.135995 0.07727,0.203992 0.06697,0.201932 0.201932,0.05151 0.212234,0.239021 0.0062,0.07212 -0.09685,0.489375 -0.100966,0.553252 -0.0072,0.2349 0.184417,0.192659 0.125693,0.388409 -0.01752,0.07727 -0.278171,0.409014 -0.301868,0.475981 -0.0783,0.209144 0.09582,0.286413 0.01752,0.421378 -0.113329,0.192659 -0.472891,0.406954 -0.472891,0.406954 0,0 -0.417256,-0.04018 -0.599613,-0.165873 -0.131873,-0.09066 -0.0062,-0.2349 -0.161751,-0.390469 -0.05151,-0.04945 -0.428589,-0.243142 -0.479072,-0.300837 -0.139086,-0.15454 0.05666,-0.198841 -0.04945,-0.406954 -0.02988,-0.06079 -0.294655,-0.39356 -0.322472,-0.461558"
         id="path263"
         inkscape:connector-curvature="0"
         style="fill:#ffffff" /><path
         d="m 97.013408,35.801504 c -0.142176,0.05151 -0.07212,-0.09375 -0.23593,-0.08139 -0.0577,0.0031 -0.11642,0.0072 -0.176175,0.0072 -0.123631,-0.0062 -0.209143,0.122601 -0.348229,0.09272 -0.03606,-0.0082 -0.116419,-0.162781 -0.151448,-0.172054 -0.146298,-0.03915 -0.38944,0.0103 -0.5481,-0.06491 -0.07109,-0.034 -0.04842,-0.181326 -0.122601,-0.221507 -0.0886,-0.05563 -0.1906,-0.166902 -0.285384,-0.23593 0.068,-0.09169 0.133934,-0.177205 0.203993,-0.257566 0.05357,-0.068 -0.01648,-0.19781 0.03915,-0.253444 0.123631,-0.125692 0.372955,-0.158661 0.495556,-0.244173 0.02988,-0.02473 0.05667,-0.194719 0.08963,-0.213264 0.11539,-0.07418 0.240051,0.01854 0.355441,-0.02988 0.05975,-0.02163 0.112298,-0.03915 0.168963,-0.05563 0.15763,-0.0443 0.0443,-0.154539 0.19575,-0.15866 0.05563,0 0.381197,0.09684 0.435801,0.101996 0.186478,0.01339 0.15557,-0.141146 0.315265,-0.08448 0.0577,0.0206 0.31113,0.23593 0.36471,0.259626 0.16175,0.07109 0.22666,-0.06491 0.3338,0 0.14836,0.09685 0.30187,0.392531 0.30187,0.392531 0,0 -0.0494,0.327623 -0.15351,0.47289 -0.0783,0.09891 -0.18648,-0.0093 -0.31938,0.110238 -0.0402,0.04018 -0.2112,0.328654 -0.25654,0.368835 -0.12775,0.104056 -0.15453,-0.05048 -0.32247,0.02576 -0.05048,0.0237 -0.325561,0.224597 -0.380165,0.241082"
         id="path265"
         inkscape:connector-curvature="0"
         style="fill:#ffffff" /><path
         d="m 87.38251,26.674405 c -0.04224,-0.100966 0.06491,-0.05769 0.04739,-0.177206 -0.0082,-0.04121 -0.01236,-0.08448 -0.01648,-0.125692 -0.0041,-0.09169 -0.09994,-0.147327 -0.08551,-0.247263 0.0041,-0.02679 0.107147,-0.09581 0.115389,-0.122601 0.02061,-0.106117 -0.02988,-0.281262 0.01752,-0.398712 0.01958,-0.0546 0.126722,-0.0443 0.151448,-0.100966 0.03091,-0.07006 0.107148,-0.149388 0.149389,-0.221506 0.07212,0.04121 0.139085,0.08757 0.201931,0.132904 0.04842,0.03606 0.140116,-0.02164 0.183387,0.01545 0.09375,0.08345 0.133934,0.262717 0.205022,0.343077 0.01442,0.02576 0.140116,0.034 0.159691,0.05357 0.05872,0.08448 0,0.177205 0.03709,0.260657 0.02061,0.03812 0.03297,0.07624 0.04739,0.115389 0.04121,0.113329 0.11745,0.02782 0.127753,0.135995 0.0041,0.03709 -0.04636,0.280231 -0.05048,0.320411 0,0.137025 0.110238,0.108178 0.08242,0.222537 -0.01133,0.0443 -0.154539,0.241082 -0.166902,0.280232 -0.0443,0.11951 0.06388,0.160721 0.01648,0.239021 -0.06388,0.114359 -0.263747,0.244172 -0.263747,0.244172 0,0 -0.243142,-0.01957 -0.35132,-0.08654 -0.07727,-0.05048 -10e-4,-0.135995 -0.09685,-0.224597 -0.02988,-0.02885 -0.250354,-0.131874 -0.279201,-0.165873 -0.08139,-0.08654 0.02885,-0.113329 -0.03709,-0.233869 -0.01854,-0.03091 -0.177205,-0.219446 -0.194719,-0.258596"
         id="path267"
         inkscape:connector-curvature="0"
         style="fill:#ffffff" /><path
         d="m 87.22488,28.904924 c -0.142177,0.02679 -0.05151,-0.09891 -0.214295,-0.111269 -0.05254,-0.0041 -0.106117,-0.01133 -0.163812,-0.02163 -0.11745,-0.01854 -0.212234,0.0886 -0.339987,0.03812 -0.03194,-0.0103 -0.08551,-0.165873 -0.12054,-0.178236 -0.128783,-0.05975 -0.367804,-0.04842 -0.501738,-0.141146 -0.06697,-0.04327 -0.02267,-0.175145 -0.08654,-0.225627 -0.08036,-0.06388 -0.152478,-0.181327 -0.23593,-0.257566 0.07933,-0.07418 0.152479,-0.146298 0.229749,-0.212234 0.05976,-0.05151 0.01133,-0.184417 0.07418,-0.227688 0.128783,-0.09787 0.371925,-0.09375 0.499677,-0.15557 0.02885,-0.01545 0.08036,-0.169994 0.109208,-0.185447 0.126723,-0.05151 0.229749,0.05151 0.344108,0.02473 0.05563,-0.0103 0.110238,-0.02164 0.166903,-0.02473 0.155569,-0.01957 0.06697,-0.141146 0.207082,-0.121571 0.05151,0.01133 0.341017,0.146297 0.3915,0.154539 0.168963,0.04018 0.168963,-0.104057 0.305988,-0.03297 0.05151,0.02885 0.259627,0.266838 0.309079,0.294655 0.144237,0.08963 0.222537,-0.02782 0.3132,0.05048 0.127753,0.109207 0.227688,0.405923 0.227688,0.405923 0,0 -0.09272,0.298776 -0.211204,0.416226 -0.08448,0.08345 -0.173084,-0.03297 -0.3132,0.05976 -0.0443,0.02988 -0.244172,0.27611 -0.294655,0.304957 -0.139085,0.07521 -0.139085,-0.07006 -0.308048,-0.0237 -0.05048,0.01442 -0.335866,0.159691 -0.388409,0.169994"
         id="path269"
         inkscape:connector-curvature="0"
         style="fill:#ffffff" /><path
         d="m 91.405686,31.834991 c -0.154539,0.05564 -0.07933,-0.104056 -0.262717,-0.08654 -0.06181,0.0031 -0.125692,0.0031 -0.192659,0.0031 -0.133934,-10e-4 -0.228718,0.139086 -0.377076,0.104057 -0.04018,-0.0093 -0.128783,-0.174115 -0.172054,-0.183387 -0.1566,-0.04327 -0.427559,0.01133 -0.596522,-0.06903 -0.07933,-0.03503 -0.05563,-0.193689 -0.134965,-0.242111 -0.09994,-0.05769 -0.208113,-0.177206 -0.312169,-0.247264 0.07418,-0.104056 0.144237,-0.19781 0.219446,-0.284352 0.06078,-0.068 -0.01648,-0.208113 0.04636,-0.27199 0.131873,-0.134964 0.405923,-0.173084 0.541918,-0.265807 0.03091,-0.02576 0.06285,-0.211204 0.09788,-0.23387 0.128783,-0.08139 0.263747,0.01854 0.390469,-0.02885 0.06388,-0.0237 0.121572,-0.0443 0.182357,-0.06388 0.177205,-0.04739 0.05563,-0.169993 0.217385,-0.173084 0.06182,0 0.416227,0.106117 0.479073,0.108178 0.200901,0.01751 0.172054,-0.152479 0.339986,-0.09478 0.06079,0.02266 0.341018,0.257565 0.400773,0.281261 0.178235,0.07315 0.250354,-0.07624 0.366773,0 0.160721,0.104057 0.332775,0.421378 0.332775,0.421378 0,0 -0.05563,0.358531 -0.174114,0.51101 -0.08448,0.108178 -0.201932,-0.0072 -0.346169,0.123632 -0.04533,0.0443 -0.227688,0.360592 -0.282292,0.399742 -0.141146,0.113329 -0.165872,-0.05254 -0.35338,0.02885 -0.05254,0.0237 -0.35235,0.241082 -0.411075,0.263747"
         id="path271"
         inkscape:connector-curvature="0"
         style="fill:#ffffff" /><g
         transform="matrix(0.47626456,0,0,0.47626456,21.793042,27.174473)"
         style="font-size:40px;font-style:normal;font-weight:normal;text-align:end;line-height:125%;letter-spacing:0px;word-spacing:0px;text-anchor:end;fill:#00317c;fill-opacity:1;stroke:none;font-family:Sans"
         id="flowRoot3344"><path
           d="m 57.736875,-29.2125 c -2.119998,-4.319996 -6.640004,-5.56 -11,-5.56 -5.159995,0.04 -10.84,2.400006 -10.84,8.16 0,6.279994 5.280006,7.800001 11,8.48 3.719996,0.4 6.48,1.480003 6.48,4.12 0,3.039997 -3.120003,4.2 -6.44,4.2 -3.399997,0 -6.640001,-1.360003 -7.88,-4.44 l -4.4,2.28 c 2.079998,5.1199949 6.480006,6.88 12.2,6.88 6.239994,0 11.76,-2.6800062 11.76,-8.92 0,-6.679993 -5.440006,-8.200001 -11.28,-8.92 -3.359997,-0.4 -6.24,-1.080002 -6.24,-3.52 0,-2.079998 1.880004,-3.72 5.8,-3.72 3.039997,0 5.680001,1.520002 6.64,3.12 l 4.2,-2.16"
           style="fill:#00317c;font-family:Nexa Bold;-inkscape-font-specification:Nexa Bold"
           id="path3113" /><path
           d="m 83.543125,-11.0125 -15.72,0 0,-6.32 15.16,0 0,-4.92 -15.16,0 0,-6.44 15.72,0 0,-5.12 -20.96,0 c 0,9.319991 0,18.680009 0,28 l 20.96,0 0,-5.2"
           style="fill:#00317c;font-family:Nexa Bold;-inkscape-font-specification:Nexa Bold"
           id="path3115" /><path
           d="m 108.665,-12.9725 c -1.84,1.839998 -4.6,2.84 -7.04,2.84 -6.919993,0 -9.6,-4.840005 -9.64,-9.48 -0.04,-4.679995 2.880007,-9.72 9.64,-9.72 2.44,0 4.92,0.840002 6.76,2.64 l 3.52,-3.4 c -2.88,-2.839997 -6.48,-4.28 -10.28,-4.28 -10.11999,0 -14.88,7.440007 -14.84,14.76 0.04,7.279993 4.44001,14.44 14.84,14.44 4.04,0 7.76,-1.3200028 10.64,-4.16 l -3.6,-3.64"
           style="fill:#00317c;font-family:Nexa Bold;-inkscape-font-specification:Nexa Bold"
           id="path3117" /><path
           d="m 24.328875,10.9175 c -0.635999,-1.2959987 -1.992001,-1.668 -3.3,-1.668 -1.547998,0.012 -3.252,0.7200017 -3.252,2.448 0,1.883998 1.584002,2.34 3.3,2.544 1.115999,0.12 1.944,0.444001 1.944,1.236 0,0.911999 -0.936001,1.26 -1.932,1.26 -1.019999,0 -1.992,-0.408001 -2.364,-1.332 l -1.32,0.684 c 0.623999,1.535998 1.944002,2.064 3.66,2.064 1.871998,0 3.528,-0.804002 3.528,-2.676 0,-2.003998 -1.632002,-2.46 -3.384,-2.676 -1.007999,-0.12 -1.872,-0.324001 -1.872,-1.056 0,-0.623999 0.564001,-1.116 1.74,-1.116 0.911999,0 1.704,0.456 1.992,0.936 l 1.26,-0.648"
           style="font-size:12px;fill:#00317c;font-family:Nexa Bold;-inkscape-font-specification:Nexa Bold"
           id="path3119" /><path
           d="m 32.07075,16.3775 -4.716,0 0,-1.896 4.548,0 0,-1.476 -4.548,0 0,-1.932 4.716,0 0,-1.536 -6.288,0 c 0,2.795997 0,5.604003 0,8.4 l 6.288,0 0,-1.56"
           style="font-size:12px;fill:#00317c;font-family:Nexa Bold;-inkscape-font-specification:Nexa Bold"
           id="path3121" /><path
           d="m 39.607312,15.7895 c -0.551999,0.551999 -1.38,0.852 -2.112,0.852 -2.075997,0 -2.88,-1.452001 -2.892,-2.844 -0.012,-1.403999 0.864003,-2.916 2.892,-2.916 0.732,0 1.476001,0.252001 2.028001,0.792 l 1.055999,-1.02 c -0.863999,-0.8519991 -1.944001,-1.284 -3.084,-1.284 -3.035996,0 -4.463999,2.232002 -4.452,4.428 0.012,2.183998 1.332004,4.332 4.452,4.332 1.211999,0 2.328001,-0.396001 3.192001,-1.248 l -1.080001,-1.092"
           style="font-size:12px;fill:#00317c;font-family:Nexa Bold;-inkscape-font-specification:Nexa Bold"
           id="path3123" /><path
           d="m 49.032187,17.8295 -2.543999,-2.868 c 1.595998,-0.324 2.123999,-1.488001 2.123999,-2.64 0,-1.451999 -1.044001,-2.772 -3.023999,-2.784 -1.331999,0 -2.664002,-0.012 -3.996,-0.012 l 0,8.412 1.583999,0 0,-2.808 1.524,0 2.448,2.808 1.884,0 0,-0.108 m -3.443999,-6.816 c 0.995999,0 1.44,0.672001 1.44,1.344 0,0.671999 -0.432002,1.344 -1.44,1.344 l -2.412001,0 0,-2.688 2.412001,0"
           style="font-size:12px;fill:#00317c;font-family:Nexa Bold;-inkscape-font-specification:Nexa Bold"
           id="path3125" /><path
           d="m 55.953563,16.3775 -4.716,0 0,-1.896 4.547999,0 0,-1.476 -4.547999,0 0,-1.932 4.716,0 0,-1.536 -6.288001,0 c 0,2.795997 0,5.604003 0,8.4 l 6.288001,0 0,-1.56"
           style="font-size:12px;fill:#00317c;font-family:Nexa Bold;-inkscape-font-specification:Nexa Bold"
           id="path3127" /><path
           d="m 59.830312,17.9375 1.584,0 0,-6.96 2.664,0 0,-1.44 c -2.435997,0 -4.488002,0 -6.912,0 l 0,1.44 2.664,0 0,6.96"
           style="font-size:12px;fill:#00317c;font-family:Nexa Bold;-inkscape-font-specification:Nexa Bold"
           id="path3129" /><path
           d="m 71.713125,17.9375 1.728,0 -3.768,-8.4 -1.728,0 -3.768,8.4 1.716,0 0.72,-1.584 4.392,0 0.708,1.584 m -1.344,-3.06 -3.12,0 1.56,-3.576 1.56,3.576"
           style="font-size:12px;fill:#00317c;font-family:Nexa Bold;-inkscape-font-specification:Nexa Bold"
           id="path3131" /><path
           d="m 81.586875,17.8295 -2.544,-2.868 c 1.595998,-0.324 2.124,-1.488001 2.124,-2.64 0,-1.451999 -1.044002,-2.772 -3.024,-2.784 -1.331999,0 -2.664001,-0.012 -3.996,-0.012 l 0,8.412 1.584,0 0,-2.808 1.524,0 2.448,2.808 1.884,0 0,-0.108 m -3.444,-6.816 c 0.995999,0 1.44,0.672001 1.44,1.344 0,0.671999 -0.432001,1.344 -1.44,1.344 l -2.412,0 0,-2.688 2.412,0"
           style="font-size:12px;fill:#00317c;font-family:Nexa Bold;-inkscape-font-specification:Nexa Bold"
           id="path3133" /><path
           d="m 83.82825,17.9375 0,-8.4 -1.572,0 0,8.4 1.572,0"
           style="font-size:12px;fill:#00317c;font-family:Nexa Bold;-inkscape-font-specification:Nexa Bold"
           id="path3135" /><path
           d="m 91.986563,17.9375 1.727999,0 -3.768,-8.4 -1.727999,0 -3.768,8.4 1.715999,0 0.72,-1.584 4.392001,0 0.708,1.584 m -1.344001,-3.06 -3.119999,0 1.559999,-3.576 1.56,3.576"
           style="font-size:12px;fill:#00317c;font-family:Nexa Bold;-inkscape-font-specification:Nexa Bold"
           id="path3137" /><path
           d="m 99.897187,9.5375 c -1.031998,0 -2.268001,0 -3.299999,0 l 0,8.4 c 1.031998,0 2.268001,0 3.299999,0 2.939993,0 4.236003,-2.148002 4.200003,-4.272 -0.036,-2.075998 -1.32001,-4.128 -4.200003,-4.128 m -1.727999,1.5 1.727999,0 c 1.824003,0 2.592003,1.308001 2.628003,2.616 0.036,1.367999 -0.72,2.76 -2.628003,2.76 l -1.727999,0 0,-5.376"
           style="font-size:12px;fill:#00317c;font-family:Nexa Bold;-inkscape-font-specification:Nexa Bold"
           id="path3139" /><path
           d="m 111.40669,16.3775 -4.716,0 0,-1.896 4.548,0 0,-1.476 -4.548,0 0,-1.932 4.716,0 0,-1.536 -6.288,0 c 0,2.795997 0,5.604003 0,8.4 l 6.288,0 0,-1.56"
           style="font-size:12px;fill:#00317c;font-family:Nexa Bold;-inkscape-font-specification:Nexa Bold"
           id="path3141" /><path
           d="m -10.233938,31.3775 -4.716,0 0,-1.896 4.548001,0 0,-1.476 -4.548001,0 0,-1.932 4.716,0 0,-1.536 -6.287999,0 c 0,2.795997 0,5.604003 0,8.4 l 6.287999,0 0,-1.56"
           style="font-size:12px;fill:#00317c;font-family:Nexa Bold;-inkscape-font-specification:Nexa Bold"
           id="path3143" /><path
           d="m -2.3195625,25.9175 c -0.6359994,-1.295999 -1.9920013,-1.668 -3.3,-1.668 -1.5479985,0.012 -3.252,0.720002 -3.252,2.448 0,1.883998 1.5840017,2.34 3.3,2.544 1.1159989,0.12 1.944,0.444001 1.944,1.236 0,0.911999 -0.936001,1.26 -1.932,1.26 -1.019999,0 -1.9920004,-0.408001 -2.364,-1.332 l -1.32,0.684 c 0.6239994,1.535998 1.9440017,2.064 3.66,2.064 1.8719981,0 3.528,-0.804002 3.528,-2.676 0,-2.003998 -1.6320018,-2.46 -3.384,-2.676 -1.007999,-0.12 -1.872,-0.324001 -1.872,-1.056 0,-0.623999 0.5640012,-1.116 1.74,-1.116 0.9119991,0 1.7040003,0.456 1.992,0.936 l 1.26,-0.648"
           style="font-size:12px;fill:#00317c;font-family:Nexa Bold;-inkscape-font-specification:Nexa Bold"
           id="path3145" /><path
           d="m 1.3303125,32.9375 1.584,0 0,-6.96 2.664,0 0,-1.44 c -2.4359976,0 -4.4880024,0 -6.912,0 l 0,1.44 2.664,0 0,6.96"
           style="font-size:12px;fill:#00317c;font-family:Nexa Bold;-inkscape-font-specification:Nexa Bold"
           id="path3147" /><path
           d="m 13.213125,32.9375 1.728,0 -3.768,-8.4 -1.728,0 -3.768,8.4 1.716,0 0.72,-1.584 4.392,0 0.708,1.584 m -1.344,-3.06 -3.12,0 1.56,-3.576 1.56,3.576"
           style="font-size:12px;fill:#00317c;font-family:Nexa Bold;-inkscape-font-specification:Nexa Bold"
           id="path3149" /><path
           d="m 19.084687,24.5375 c -1.031998,0 -2.268001,0 -3.299999,0 l 0,8.4 c 1.031998,0 2.268001,0 3.299999,0 2.939998,0 4.236,-2.148002 4.2,-4.272 -0.036,-2.075998 -1.320002,-4.128 -4.2,-4.128 m -1.728,1.5 1.728,0 c 1.823999,0 2.592001,1.308001 2.628,2.616 0.036,1.367999 -0.720001,2.76 -2.628,2.76 l -1.728,0 0,-5.376"
           style="font-size:12px;fill:#00317c;font-family:Nexa Bold;-inkscape-font-specification:Nexa Bold"
           id="path3151" /><path
           d="m 28.395375,24.3695 c -2.903997,0 -4.32,2.220002 -4.32,4.428 0,2.207998 1.368003,4.332 4.32,4.332 2.951997,0 4.284,-2.172002 4.308,-4.344 0.024,-2.195998 -1.416003,-4.416 -4.308,-4.416 m 0,1.44 c 1.979998,0 2.772,1.584001 2.748,3 -0.024,1.379999 -0.768002,2.868 -2.748,2.868 -1.979998,0 -2.724,-1.476001 -2.76,-2.856 -0.036,-1.415999 0.780002,-3.012 2.76,-3.012"
           style="font-size:12px;fill:#00317c;font-family:Nexa Bold;-inkscape-font-specification:Nexa Bold"
           id="path3153" /><path
           d="m 39.475312,24.5375 c -1.031998,0 -2.268001,0 -3.3,0 l 0,8.4 c 1.031999,0 2.268002,0 3.3,0 2.939998,0 4.236,-2.148002 4.200001,-4.272 -0.036,-2.075998 -1.320003,-4.128 -4.200001,-4.128 m -1.728,1.5 1.728,0 c 1.823999,0 2.592001,1.308001 2.628,2.616 0.036,1.367999 -0.720001,2.76 -2.628,2.76 l -1.728,0 0,-5.376"
           style="font-size:12px;fill:#00317c;font-family:Nexa Bold;-inkscape-font-specification:Nexa Bold"
           id="path3155" /><path
           d="m 51.392812,32.9375 1.728,0 -3.768,-8.4 -1.728,0 -3.768,8.4 1.716,0 0.72,-1.584 4.392,0 0.708,1.584 m -1.344,-3.06 -3.12,0 1.560001,-3.576 1.559999,3.576"
           style="font-size:12px;fill:#00317c;font-family:Nexa Bold;-inkscape-font-specification:Nexa Bold"
           id="path3157" /><path
           d="m 62.435437,30.7895 c -0.551999,0.551999 -1.38,0.852 -2.112,0.852 -2.075997,0 -2.88,-1.452001 -2.892,-2.844 -0.012,-1.403999 0.864003,-2.916 2.892,-2.916 0.732,0 1.476001,0.252001 2.028001,0.792 l 1.055999,-1.02 c -0.863999,-0.851999 -1.944001,-1.284 -3.084,-1.284 -3.035996,0 -4.463999,2.232002 -4.452,4.428 0.012,2.183998 1.332004,4.332 4.452,4.332 1.211999,0 2.328001,-0.396001 3.192001,-1.248 l -1.080001,-1.092"
           style="font-size:12px;fill:#00317c;font-family:Nexa Bold;-inkscape-font-specification:Nexa Bold"
           id="path3159" /><path
           d="m 70.087125,24.5495 0,4.812 c 0,1.439999 -0.744001,2.316 -2.052,2.316 -1.307999,0 -2.172,-0.804002 -2.172,-2.316 l 0,-4.812 -1.572,0 0,4.812 c 0,2.531997 1.716002,3.756 3.732,3.756 2.111998,0 3.636,-1.272002 3.636,-3.756 l 0,-4.812 -1.572,0"
           style="font-size:12px;fill:#00317c;font-family:Nexa Bold;-inkscape-font-specification:Nexa Bold"
           id="path3161" /><path
           d="m 73.197375,24.5375 0,8.4 5.904,0 0,-1.464 -4.32,0 0,-6.936 -1.584,0"
           style="font-size:12px;fill:#00317c;font-family:Nexa Bold;-inkscape-font-specification:Nexa Bold"
           id="path3163" /><path
           d="m 81.158438,32.9375 1.583999,0 0,-6.96 2.664,0 0,-1.44 c -2.435997,0 -4.488002,0 -6.911999,0 l 0,1.44 2.664,0 0,6.96"
           style="font-size:12px;fill:#00317c;font-family:Nexa Bold;-inkscape-font-specification:Nexa Bold"
           id="path3165" /><path
           d="m 92.423062,24.5495 0,4.812 c 0,1.439999 -0.744001,2.316 -2.052,2.316 -1.307998,0 -2.172,-0.804002 -2.172,-2.316 l 0,-4.812 -1.572,0 0,4.812 c 0,2.531997 1.716003,3.756 3.732,3.756 2.111998,0 3.636001,-1.272002 3.636001,-3.756 l 0,-4.812 -1.572001,0"
           style="font-size:12px;fill:#00317c;font-family:Nexa Bold;-inkscape-font-specification:Nexa Bold"
           id="path3167" /><path
           d="m 102.98531,32.8295 -2.544,-2.868 c 1.596,-0.324 2.124,-1.488001 2.124,-2.64 0,-1.451999 -1.044,-2.772 -3.023997,-2.784 -1.331999,0 -2.664002,-0.012 -3.996001,-0.012 l 0,8.412 1.584,0 0,-2.808 1.524,0 2.447998,2.808 1.884,0 0,-0.108 m -3.443997,-6.816 c 0.995997,0 1.439997,0.672001 1.439997,1.344 0,0.671999 -0.432,1.344 -1.439997,1.344 l -2.412001,0 0,-2.688 2.412001,0"
           style="font-size:12px;fill:#00317c;font-family:Nexa Bold;-inkscape-font-specification:Nexa Bold"
           id="path3169" /><path
           d="m 110.31469,32.9375 1.728,0 -3.768,-8.4 -1.728,0 -3.768,8.4 1.716,0 0.72,-1.584 4.392,0 0.708,1.584 m -1.344,-3.06 -3.12,0 1.56,-3.576 1.56,3.576"
           style="font-size:12px;fill:#00317c;font-family:Nexa Bold;-inkscape-font-specification:Nexa Bold"
           id="path3171" /></g></g></g></svg>