<?xml version="1.0" encoding="utf-8"?>
<!-- Generator: Adobe Illustrator 16.0.0, SVG Export Plug-In . SVG Version: 6.00 Build 0)  -->
<!DOCTYPE svg PUBLIC "-//W3C//DTD SVG 1.1//EN" "http://www.w3.org/Graphics/SVG/1.1/DTD/svg11.dtd">
<svg version="1.1" xmlns="http://www.w3.org/2000/svg" xmlns:xlink="http://www.w3.org/1999/xlink" x="0px" y="0px"
	 width="566.667px" height="169.333px" viewBox="0 0 566.667 169.333" enable-background="new 0 0 566.667 169.333"
	 xml:space="preserve">
<g id="Guias_para_prancheta">
</g>
<g id="Camada_1">
	<g>
		<g>
			<path fill="#0E9AD8" d="M503.689,73.365l-17.635,23.512h-2.009l-17.25-23.59v39.368h-10.21V58.515h11.756l16.942,23.28
				l16.937-23.28h11.677v54.141h-10.208V73.365z"/>
			<path fill="#0E9AD8" d="M533.609,67.719h-17.174v-9.281c15.627,0,28.851,0,44.55,0v9.281h-17.168v44.858h-10.208V67.719z"/>
		</g>
		<g>
			<g>
				<path fill-rule="evenodd" clip-rule="evenodd" fill="#00317B" d="M326.813,23.456c-0.774-1.513-0.592-3.104-0.08-4.569
					c0.942-2.691,1.738-5.327,0.438-8.117c-0.212-0.453-0.319-1.009,0-1.451c1.273-1.771,2.126-3.666,2.427-5.884
					c0.173-1.288,1.087-1.35,2-0.388c1.948,2.109,2.43,4.866,3.276,7.433c0.319,0.964,0.686,1.88,1.249,2.715
					c-0.098,1.128,0.976,1.853,0.892,3.057c-0.366,5.612,1.391,8.289,6.494,10.045c0.655,0.226,1.234,0.569,1.552,1.102
					c1.106,1.871,1.723,4.231,4.623,4.031c0.044-0.01,0.137,0.087,0.147,0.139c0.352,2.222,1.986,1.58,3.431,1.678
					c7.197,0.489,14.371,1.076,21.565,1.637c11.71,0.912,23.414,1.931,35.137,2.724c11.801,0.816,23.61,1.439,35.413,2.069
					c1.866,0.104,2.03,1.125,1.261,2.208c-1.717,2.421-1.747,5.417-3.076,7.966c-0.463,0.892-1.266,1.652-1.313,2.877
					c-0.057,2.128-0.128,4.355-0.798,6.338c-1.148,3.388-0.925,6.767-0.787,10.198c0.18,4.202,1.801,8.372,0.247,12.608
					c-0.117,0.325,0.166,0.816,0.319,1.21c0.784,2.012,3.034,3.758,1.109,6.255c-0.104,0.146-0.034,0.428-0.016,0.643
					c0.221,2.135-0.829,3.789-1.784,5.607c-0.941,1.787-2.404,3.488-1.869,5.951c0.202,0.901,0.507,2.245-0.299,3.223
					c-1.237,1.509-1.78,3.264-1.668,5.165c0.158,2.63-0.957,4.922-1.819,7.271c-0.281,0.759-1.021,1.768-1.934,1.377
					c-2.092-0.889-3.188,0.646-4.571,1.518c-2.622,1.642-2.268,4.789-2.979,7.156c-1.019,3.375-2.946,4.477-5.969,4.706
					c-0.922,0.077-1.473,0.499-1.79,1.307c-0.504,1.297-1.585,1.871-2.71,2.595c-1.475,0.937-3.861,2.332-3.189,3.969
					c1.154,2.871-0.977,4.34-2.159,5.316c-2.001,1.64-3.271,3.392-4.237,5.722c-1.573,3.825-3.413,7.495-0.557,11.491
					c0.281,0.396,0.288,0.962,0.504,1.415c0.457,0.932,0.096,1.278-0.8,1.054c-2.558-0.683-5.187-0.142-7.755-0.42
					c-1.18-0.128-2.372-0.813-2.655-1.846c-0.252-0.914,0.631-1.83,1.687-2.237c0.592-0.229,1.359-0.351,1.432-1.148
					c0.149-1.719,0.36-3.449,0.293-5.171c-0.057-1.186-0.955-1.443-1.814-0.646c-1.509,1.39-2.961,2.841-4.333,4.363
					c-0.944,1.053-3.454,1.583-4.18,0.733c-2.065-2.383-3.73-2.554-6.332-0.639c-1.73,1.262-4.837,1.18-6.755,0.434
					c-3.393-1.306-6.01-4.108-9.674-4.861c-0.416-0.074-0.867-0.236-1.176-0.504c-1.452-1.281-2.972-0.993-4.384-0.086
					c-1.784,1.142-3.735,1.513-5.758,1.456c-1.622-0.039-2.407,0.826-3.228,2.024c-1.715,2.497-3.248,5.112-6.735,5.766
					c-2.869,0.536-3.709,0.504-4.818-2.296c-0.612-1.523-1.532-2.337-3.065-2.604l-0.067-0.036
					c-1.661-0.356-3.218-0.715-4.723-1.798c-3.804-2.733-5.185-8.628-2.604-12.536c0.623-0.949,0.683-2.059,0.793-3.088
					c0.119-1.133-0.726-1.67-1.687-1.081c-0.859,0.536-1.647,0.342-2.489,0.339c-5.984-0.01-11.959-0.591-17.957-0.463
					c-5.748,0.135-5.745,0.049-5.987-5.833c-0.148-3.639-0.427-7.217-3.611-9.74c-0.347-0.278-0.796-0.665-0.63-1.427
					c0.579-0.057,1.198-0.123,1.822-0.159c0.964-0.052,1.626-0.273,1.66-1.481c0.107-3.889-0.642-7.544-2.688-10.898
					c-0.724-1.181-0.755-2.417-0.171-3.701c0.892-1.954,0.075-4.163-1.865-5.213c-2.173-1.179-2.204-1.236-0.014-2.601
					c1.496-0.931,2.567-1.858,3.105-3.786c0.54-1.949,1.086-4.217,3.163-5.473c0.692-0.427,0.798-1.341,0.759-2.165
					c-0.117-2.285,0.514-4.031,2.84-5.039c1.457-0.629,1.616-2.411,0.562-3.63c-0.397-0.459-0.538-0.969-0.726-1.525
					c-0.478-1.399-0.845-2.97-1.723-4.107c-1.91-2.462-2.006-3.813,0.18-6.112c0.59-0.631,1.325-1.148,1.226-2.167
					c-0.309-3.228-0.914-3.828-4.277-4.228c-0.358-0.04-0.719-0.102-1.049-0.239c-3.024-1.273-6.162-1.694-9.441-1.456
					c-2.227,0.165-4.475-0.005-6.709,0.074c-1.78,0.07-2.279-0.361-2.056-2.37c0.301-2.654,1.278-5.452-0.654-8.116
					c-0.677-0.948-0.522-2.462-0.193-3.887c0.642-2.78,1.55-5.623,0.206-8.562c-0.347-0.759-1.328-1.879-0.551-2.729
					c0.8-0.87,0.618-1.601,0.512-2.549c-0.183-1.513,0.734-2.862,1.033-4.309c0.115-0.598,1.983-0.231,3.054-0.239
					c13.209-0.063,26.418-0.107,39.621-0.183C324.986,24.62,326.33,25.005,326.813,23.456z"/>
			</g>
		</g>
	</g>
	<g>
		<path fill="#00317B" d="M55.468,72.789L38.554,95.341h-1.93L20.082,72.715v37.76h-9.793v-51.93h11.275l16.247,22.33l16.246-22.33
			H65.26v51.93h-9.792V72.789z"/>
		<path fill="#00317B" d="M111.324,100.608H84.173l-4.451,9.792H69.113l23.294-51.929h10.684l23.293,51.929h-10.683L111.324,100.608
			z M97.749,69.376l-9.645,22.107h19.288L97.749,69.376z"/>
		<path fill="#00317B" d="M154.496,95.119h-14.688v15.282h-9.793V58.472c8.161,0,16.321-0.075,24.481-0.075
			C179.867,58.397,179.941,95.119,154.496,95.119z M139.808,86.143h14.688c12.537,0,12.463-18.398,0-18.398h-14.688V86.143z"/>
		<path fill="#00317B" d="M217.029,100.608h-27.152l-4.45,9.792h-10.608l23.294-51.929h10.683l23.294,51.929h-10.683
			L217.029,100.608z M203.454,69.376l-9.645,22.107h19.288L203.454,69.376z"/>
		<path fill="#00317B" d="M267.769,71.009c-1.781-2.968-6.677-5.786-12.315-5.786c-7.27,0-10.757,3.042-10.757,6.898
			c0,4.526,5.342,5.787,11.573,6.529c10.83,1.335,20.92,4.154,20.92,16.543c0,11.573-10.237,16.543-21.81,16.543
			c-10.609,0-18.77-3.265-22.628-12.76l8.162-4.229c2.299,5.712,8.308,8.234,14.613,8.234c6.158,0,11.944-2.151,11.944-7.789
			c0-4.896-5.119-6.899-12.019-7.641c-10.607-1.261-20.4-4.08-20.4-15.728c0-10.682,10.534-15.059,20.104-15.133
			c8.086,0,16.468,2.3,20.399,10.312L267.769,71.009z"/>
	</g>
</g>
</svg>
