<?xml version="1.0" encoding="UTF-8" standalone="no"?>
<!-- Created with Inkscape (http://www.inkscape.org/) -->

<svg
   xmlns:dc="http://purl.org/dc/elements/1.1/"
   xmlns:cc="http://creativecommons.org/ns#"
   xmlns:rdf="http://www.w3.org/1999/02/22-rdf-syntax-ns#"
   xmlns:svg="http://www.w3.org/2000/svg"
   xmlns="http://www.w3.org/2000/svg"
   xmlns:xlink="http://www.w3.org/1999/xlink"
   xmlns:sodipodi="http://sodipodi.sourceforge.net/DTD/sodipodi-0.dtd"
   xmlns:inkscape="http://www.inkscape.org/namespaces/inkscape"
   width="680"
   height="680"
   id="svg2"
   version="1.1"
   inkscape:version="0.48.5 r10040"
   sodipodi:docname="mapasculturais_fundo.svg"
   inkscape:export-filename="/home/system/mapasculturais_documentos/mapasculturais_mato_grosso/mapasculturaisThemeMatoGrosso/assets/img/fundo.png"
   inkscape:export-xdpi="92.650002"
   inkscape:export-ydpi="92.650002">
  <defs
     id="defs4">
    <clipPath
       id="SVGID_2_">
      <use
         xlink:href="#SVGID_1_"
         overflow="visible"
         id="use37"
         style="overflow:visible"
         x="0"
         y="0"
         width="654.065"
         height="171.017" />
    </clipPath>
  </defs>
  <sodipodi:namedview
     id="base"
     pagecolor="#ffffff"
     bordercolor="#666666"
     borderopacity="1.0"
     inkscape:pageopacity="0"
     inkscape:pageshadow="2"
     inkscape:zoom="0.9601051"
     inkscape:cx="98.813431"
     inkscape:cy="515.85785"
     inkscape:document-units="px"
     inkscape:current-layer="g25"
     showgrid="false"
     inkscape:window-width="1920"
     inkscape:window-height="1041"
     inkscape:window-x="1920"
     inkscape:window-y="0"
     inkscape:window-maximized="1"
     showguides="true"
     inkscape:guide-bbox="true" />
  <metadata
     id="metadata7">
    <rdf:RDF>
      <cc:Work
         rdf:about="">
        <dc:format>image/svg+xml</dc:format>
        <dc:type
           rdf:resource="http://purl.org/dc/dcmitype/StillImage" />
        <dc:title></dc:title>
      </cc:Work>
    </rdf:RDF>
  </metadata>
  <g
     inkscape:label="Camada 1"
     inkscape:groupmode="layer"
     id="layer1"
     transform="translate(0,-372.36218)">
    <g
       id="g3001"
       transform="matrix(1.4231317,0,0,1.4437367,-396.70922,-505.00841)"
       style="opacity:0.3;fill:#333333"
       inkscape:export-filename="/home/system/mapasculturaisThemeEstadoSP/assets/img/fundo.png"
       inkscape:export-xdpi="90"
       inkscape:export-ydpi="90" />
    <g
       id="g25"
       transform="matrix(3.9950177,0,0,3.9950177,-1408.6876,368.98775)">
      <g
         id="g27"
         style="opacity:0.5"
         transform="matrix(0.88067101,0,0,0.88067101,51.367808,-0.95809868)">
        <path
           clip-rule="evenodd"
           d="m 401.269,25.324 c -0.774,-1.513 -0.592,-3.104 -0.08,-4.569 0.942,-2.691 1.738,-5.327 0.438,-8.117 -0.212,-0.453 -0.319,-1.009 0,-1.451 1.273,-1.771 2.126,-3.666 2.427,-5.884 0.173,-1.288 1.087,-1.35 2,-0.388 1.948,2.109 2.43,4.866 3.276,7.433 0.319,0.964 0.686,1.88 1.249,2.715 -0.098,1.128 0.976,1.853 0.892,3.057 -0.366,5.612 1.391,8.289 6.494,10.045 0.655,0.226 1.234,0.569 1.552,1.102 1.106,1.871 1.723,4.231 4.623,4.031 0.044,-0.01 0.137,0.087 0.147,0.139 0.352,2.222 1.986,1.58 3.431,1.678 7.197,0.489 14.371,1.076 21.565,1.637 11.71,0.912 23.414,1.931 35.137,2.724 11.801,0.816 23.61,1.439 35.413,2.069 1.866,0.104 2.03,1.125 1.261,2.208 -1.717,2.421 -1.747,5.417 -3.076,7.966 -0.463,0.892 -1.266,1.652 -1.313,2.877 -0.057,2.128 -0.128,4.355 -0.798,6.338 -1.148,3.388 -0.925,6.767 -0.787,10.198 0.18,4.202 1.801,8.372 0.247,12.608 -0.117,0.325 0.166,0.816 0.319,1.21 0.784,2.012 3.034,3.758 1.109,6.255 -0.104,0.146 -0.034,0.428 -0.016,0.643 0.221,2.135 -0.829,3.789 -1.784,5.607 -0.941,1.787 -2.404,3.488 -1.869,5.951 0.202,0.901 0.507,2.245 -0.299,3.223 -1.237,1.509 -1.78,3.264 -1.668,5.165 0.158,2.63 -0.957,4.922 -1.819,7.271 -0.281,0.759 -1.021,1.768 -1.934,1.377 -2.092,-0.889 -3.188,0.646 -4.571,1.518 -2.622,1.642 -2.268,4.789 -2.979,7.156 -1.019,3.375 -2.946,4.477 -5.969,4.706 -0.922,0.077 -1.473,0.499 -1.79,1.307 -0.504,1.297 -1.585,1.871 -2.71,2.595 -1.475,0.937 -3.861,2.332 -3.189,3.969 1.154,2.871 -0.977,4.34 -2.159,5.316 -2.001,1.64 -3.271,3.392 -4.237,5.722 -1.573,3.825 -3.413,7.495 -0.557,11.491 0.281,0.396 0.288,0.962 0.504,1.415 0.457,0.932 0.096,1.278 -0.8,1.054 -2.558,-0.683 -5.187,-0.142 -7.755,-0.42 -1.18,-0.128 -2.372,-0.813 -2.655,-1.846 -0.252,-0.914 0.631,-1.83 1.687,-2.237 0.592,-0.229 1.359,-0.351 1.432,-1.148 0.149,-1.719 0.36,-3.449 0.293,-5.171 -0.057,-1.186 -0.955,-1.443 -1.814,-0.646 -1.509,1.39 -2.961,2.841 -4.333,4.363 -0.944,1.053 -3.454,1.583 -4.18,0.733 -2.065,-2.383 -3.73,-2.554 -6.332,-0.639 -1.73,1.262 -4.837,1.18 -6.755,0.434 -3.393,-1.306 -6.01,-4.108 -9.674,-4.861 -0.416,-0.074 -0.867,-0.236 -1.176,-0.504 -1.452,-1.281 -2.972,-0.993 -4.384,-0.086 -1.784,1.142 -3.735,1.513 -5.758,1.456 -1.622,-0.039 -2.407,0.826 -3.228,2.024 -1.715,2.497 -3.248,5.112 -6.735,5.766 -2.869,0.536 -3.709,0.504 -4.818,-2.296 -0.612,-1.523 -1.532,-2.337 -3.065,-2.604 l -0.067,-0.036 c -1.661,-0.356 -3.218,-0.715 -4.723,-1.798 -3.804,-2.733 -5.185,-8.628 -2.604,-12.536 0.623,-0.949 0.683,-2.059 0.793,-3.088 0.119,-1.133 -0.726,-1.67 -1.687,-1.081 -0.859,0.536 -1.647,0.342 -2.489,0.339 -5.984,-0.01 -11.959,-0.591 -17.957,-0.463 -5.748,0.135 -5.745,0.049 -5.987,-5.833 -0.148,-3.639 -0.427,-7.217 -3.611,-9.74 -0.347,-0.278 -0.796,-0.665 -0.63,-1.427 0.579,-0.057 1.198,-0.123 1.822,-0.159 0.964,-0.052 1.626,-0.273 1.66,-1.481 0.107,-3.889 -0.642,-7.544 -2.688,-10.898 -0.724,-1.181 -0.755,-2.417 -0.171,-3.701 0.892,-1.954 0.075,-4.163 -1.865,-5.213 -2.173,-1.179 -2.204,-1.236 -0.014,-2.601 1.496,-0.931 2.567,-1.858 3.105,-3.786 0.54,-1.949 1.086,-4.217 3.163,-5.473 0.692,-0.427 0.798,-1.341 0.759,-2.165 -0.117,-2.285 0.514,-4.031 2.84,-5.039 1.457,-0.629 1.616,-2.411 0.562,-3.63 -0.397,-0.459 -0.538,-0.969 -0.726,-1.525 -0.478,-1.399 -0.845,-2.97 -1.723,-4.107 -1.91,-2.462 -2.006,-3.813 0.18,-6.112 0.59,-0.631 1.325,-1.148 1.226,-2.167 -0.309,-3.228 -0.914,-3.828 -4.277,-4.228 -0.358,-0.04 -0.719,-0.102 -1.049,-0.239 -3.024,-1.273 -6.162,-1.694 -9.441,-1.456 -2.227,0.165 -4.475,-0.005 -6.709,0.074 -1.78,0.07 -2.279,-0.361 -2.056,-2.37 0.301,-2.654 1.278,-5.452 -0.654,-8.116 -0.677,-0.948 -0.522,-2.462 -0.193,-3.887 0.642,-2.78 1.55,-5.623 0.206,-8.562 -0.347,-0.759 -1.328,-1.879 -0.551,-2.729 0.8,-0.87 0.618,-1.601 0.512,-2.549 -0.183,-1.513 0.734,-2.862 1.033,-4.309 0.115,-0.598 1.983,-0.231 3.054,-0.239 13.209,-0.063 26.418,-0.107 39.621,-0.183 1.078,-0.008 2.422,0.377 2.906,-1.172 z"
           id="path29"
           inkscape:connector-curvature="0"
           style="fill:#ffffff;fill-rule:evenodd;opacity:0.4" />
        <g
           id="g31"
           style="fill:#e6e6e6;opacity:0.25">
          <defs
             id="defs33">
            <path
               id="SVGID_1_"
               d="m 401.269,25.324 c -0.774,-1.513 -0.592,-3.104 -0.08,-4.569 0.942,-2.691 1.738,-5.327 0.438,-8.117 -0.212,-0.453 -0.319,-1.009 0,-1.451 1.273,-1.771 2.126,-3.666 2.427,-5.884 0.173,-1.288 1.087,-1.35 2,-0.388 1.948,2.109 2.43,4.866 3.276,7.433 0.319,0.964 0.686,1.88 1.249,2.715 -0.098,1.128 0.976,1.853 0.892,3.057 -0.366,5.612 1.391,8.289 6.494,10.045 0.655,0.226 1.234,0.569 1.552,1.102 1.106,1.871 1.723,4.231 4.623,4.031 0.044,-0.01 0.137,0.087 0.147,0.139 0.352,2.222 1.986,1.58 3.431,1.678 7.197,0.489 14.371,1.076 21.565,1.637 11.71,0.912 23.414,1.931 35.137,2.724 11.801,0.816 23.61,1.439 35.413,2.069 1.866,0.104 2.03,1.125 1.261,2.208 -1.717,2.421 -1.747,5.417 -3.076,7.966 -0.463,0.892 -1.266,1.652 -1.313,2.877 -0.057,2.128 -0.128,4.355 -0.798,6.338 -1.148,3.388 -0.925,6.767 -0.787,10.198 0.18,4.202 1.801,8.372 0.247,12.608 -0.117,0.325 0.166,0.816 0.319,1.21 0.784,2.012 3.034,3.758 1.109,6.255 -0.104,0.146 -0.034,0.428 -0.016,0.643 0.221,2.135 -0.829,3.789 -1.784,5.607 -0.941,1.787 -2.404,3.488 -1.869,5.951 0.202,0.901 0.507,2.245 -0.299,3.223 -1.237,1.509 -1.78,3.264 -1.668,5.165 0.158,2.63 -0.957,4.922 -1.819,7.271 -0.281,0.759 -1.021,1.768 -1.934,1.377 -2.092,-0.889 -3.188,0.646 -4.571,1.518 -2.622,1.642 -2.268,4.789 -2.979,7.156 -1.019,3.375 -2.946,4.477 -5.969,4.706 -0.922,0.077 -1.473,0.499 -1.79,1.307 -0.504,1.297 -1.585,1.871 -2.71,2.595 -1.475,0.937 -3.861,2.332 -3.189,3.969 1.154,2.871 -0.977,4.34 -2.159,5.316 -2.001,1.64 -3.271,3.392 -4.237,5.722 -1.573,3.825 -3.413,7.495 -0.557,11.491 0.281,0.396 0.288,0.962 0.504,1.415 0.457,0.932 0.096,1.278 -0.8,1.054 -2.558,-0.683 -5.187,-0.142 -7.755,-0.42 -1.18,-0.128 -2.372,-0.813 -2.655,-1.846 -0.252,-0.914 0.631,-1.83 1.687,-2.237 0.592,-0.229 1.359,-0.351 1.432,-1.148 0.149,-1.719 0.36,-3.449 0.293,-5.171 -0.057,-1.186 -0.955,-1.443 -1.814,-0.646 -1.509,1.39 -2.961,2.841 -4.333,4.363 -0.944,1.053 -3.454,1.583 -4.18,0.733 -2.065,-2.383 -3.73,-2.554 -6.332,-0.639 -1.73,1.262 -4.837,1.18 -6.755,0.434 -3.393,-1.306 -6.01,-4.108 -9.674,-4.861 -0.416,-0.074 -0.867,-0.236 -1.176,-0.504 -1.452,-1.281 -2.972,-0.993 -4.384,-0.086 -1.784,1.142 -3.735,1.513 -5.758,1.456 -1.622,-0.039 -2.407,0.826 -3.228,2.024 -1.715,2.497 -3.248,5.112 -6.735,5.766 -2.869,0.536 -3.709,0.504 -4.818,-2.296 -0.612,-1.523 -1.532,-2.337 -3.065,-2.604 l -0.067,-0.036 c -1.661,-0.356 -3.218,-0.715 -4.723,-1.798 -3.804,-2.733 -5.185,-8.628 -2.604,-12.536 0.623,-0.949 0.683,-2.059 0.793,-3.088 0.119,-1.133 -0.726,-1.67 -1.687,-1.081 -0.859,0.536 -1.647,0.342 -2.489,0.339 -5.984,-0.01 -11.959,-0.591 -17.957,-0.463 -5.748,0.135 -5.745,0.049 -5.987,-5.833 -0.148,-3.639 -0.427,-7.217 -3.611,-9.74 -0.347,-0.278 -0.796,-0.665 -0.63,-1.427 0.579,-0.057 1.198,-0.123 1.822,-0.159 0.964,-0.052 1.626,-0.273 1.66,-1.481 0.107,-3.889 -0.642,-7.544 -2.688,-10.898 -0.724,-1.181 -0.755,-2.417 -0.171,-3.701 0.892,-1.954 0.075,-4.163 -1.865,-5.213 -2.173,-1.179 -2.204,-1.236 -0.014,-2.601 1.496,-0.931 2.567,-1.858 3.105,-3.786 0.54,-1.949 1.086,-4.217 3.163,-5.473 0.692,-0.427 0.798,-1.341 0.759,-2.165 -0.117,-2.285 0.514,-4.031 2.84,-5.039 1.457,-0.629 1.616,-2.411 0.562,-3.63 -0.397,-0.459 -0.538,-0.969 -0.726,-1.525 -0.478,-1.399 -0.845,-2.97 -1.723,-4.107 -1.91,-2.462 -2.006,-3.813 0.18,-6.112 0.59,-0.631 1.325,-1.148 1.226,-2.167 -0.309,-3.228 -0.914,-3.828 -4.277,-4.228 -0.358,-0.04 -0.719,-0.102 -1.049,-0.239 -3.024,-1.273 -6.162,-1.694 -9.441,-1.456 -2.227,0.165 -4.475,-0.005 -6.709,0.074 -1.78,0.07 -2.279,-0.361 -2.056,-2.37 0.301,-2.654 1.278,-5.452 -0.654,-8.116 -0.677,-0.948 -0.522,-2.462 -0.193,-3.887 0.642,-2.78 1.55,-5.623 0.206,-8.562 -0.347,-0.759 -1.328,-1.879 -0.551,-2.729 0.8,-0.87 0.618,-1.601 0.512,-2.549 -0.183,-1.513 0.734,-2.862 1.033,-4.309 0.115,-0.598 1.983,-0.231 3.054,-0.239 13.209,-0.063 26.418,-0.107 39.621,-0.183 1.078,-0.008 2.422,0.377 2.906,-1.172 z"
               inkscape:connector-curvature="0" />
          </defs>
          <clipPath
             id="clipPath3023">
            <use
               xlink:href="#SVGID_1_"
               overflow="visible"
               id="use3025"
               style="overflow:visible"
               x="0"
               y="0"
               width="654.065"
               height="171.017" />
          </clipPath>
          <path
             style="opacity:0.50000000000000000;fill:#e6e6e6;fill-opacity:1"
             clip-path="url(#SVGID_2_)"
             d="m 442.481,110.643 -89.336,16.876 0.246,1.3 89.921,-16.985 -5.77,20.195 1.272,0.365 5.861,-20.507 101.403,43.172 0.52,-1.218 -100.656,-42.853 169.388,-71.162 -0.512,-1.221 -166.305,69.868 52.746,-41.445 -0.818,-1.042 -52.041,40.889 63.075,-78.364 -1.033,-0.83 -66.342,82.425 -50.042,-32.026 -0.714,1.114 z"
             id="polygon39"
             inkscape:connector-curvature="0" />
        </g>
      </g>
      <path
         inkscape:connector-curvature="0"
         id="path43"
         d="m 441.73774,42.490282 c -10.14005,0 -18.35881,8.219638 -18.35881,18.358805 0,14.24045 18.35881,35.168805 18.35881,35.168805 0,0 18.3588,-20.585776 18.3588,-35.168805 0,-10.139167 -8.22052,-18.358805 -18.3588,-18.358805 z m 0,4.599479 c 7.59727,0 13.75932,6.162053 13.75932,13.759326 0,7.597273 -6.16205,13.751503 -13.75932,13.751503 -7.59727,0 -13.75151,-6.15423 -13.75151,-13.751503 0,-7.597273 6.15424,-13.759326 13.75151,-13.759326 z"
         style="opacity:0.12000002;fill:#ffffff" />
      <g
         id="flowRoot2997"
         style="font-size:40px;font-style:normal;font-weight:normal;line-height:125%;letter-spacing:0px;word-spacing:0px;opacity:0.25;fill:#ffffff;fill-opacity:1;stroke:none;font-family:Sans"
         transform="matrix(0.51418328,0,0,0.51418328,498.01533,-78.455064)">
        <path
           inkscape:connector-curvature="0"
           id="path3775"
           style="fill:#ffffff;font-family:Nexa Bold;-inkscape-font-specification:Nexa Bold"
           d="m -219.6475,472.87125 c -1.84,1.84 -4.6,2.84 -7.04,2.84 -6.91999,0 -9.6,-4.84 -9.64,-9.48 -0.04,-4.68 2.88001,-9.72 9.64,-9.72 2.44,0 4.92,0.84 6.76,2.64 l 3.52,-3.4 c -2.88,-2.84 -6.48,-4.28 -10.28,-4.28 -10.11999,0 -14.88,7.44001 -14.84,14.76 0.04,7.27999 4.44001,14.44 14.84,14.44 4.04,0 7.76,-1.32 10.64,-4.16 l -3.6,-3.64" />
        <path
           inkscape:connector-curvature="0"
           id="path3777"
           style="fill:#ffffff;font-family:Nexa Bold;-inkscape-font-specification:Nexa Bold"
           d="m -194.14187,452.07125 0,16.04 c 0,4.8 -2.48001,7.72 -6.84,7.72 -4.36,0 -7.24,-2.68001 -7.24,-7.72 l 0,-16.04 -5.24,0 0,16.04 c 0,8.43999 5.72,12.52 12.44,12.52 7.03999,0 12.12,-4.24001 12.12,-12.52 l 0,-16.04 -5.24,0" />
        <path
           inkscape:connector-curvature="0"
           id="path3779"
           style="fill:#ffffff;font-family:Nexa Bold;-inkscape-font-specification:Nexa Bold"
           d="m -183.77437,452.03125 0,28 19.67999,0 0,-4.88 -14.39999,0 0,-23.12 -5.28,0" />
        <path
           inkscape:connector-curvature="0"
           id="path3781"
           style="fill:#ffffff;font-family:Nexa Bold;-inkscape-font-specification:Nexa Bold"
           d="m -157.2375,480.03125 5.28,0 0,-23.2 8.88,0 0,-4.8 c -8.11999,0 -14.96001,0 -23.04,0 l 0,4.8 8.88,0 0,23.2" />
        <path
           inkscape:connector-curvature="0"
           id="path3783"
           style="fill:#ffffff;font-family:Nexa Bold;-inkscape-font-specification:Nexa Bold"
           d="m -119.68875,452.07125 0,16.04 c 0,4.8 -2.48,7.72 -6.84,7.72 -4.36,0 -7.24,-2.68001 -7.24,-7.72 l 0,-16.04 -5.24,0 0,16.04 c 0,8.43999 5.72001,12.52 12.44,12.52 7.03999,0 12.12,-4.24001 12.12,-12.52 l 0,-16.04 -5.24,0" />
        <path
           inkscape:connector-curvature="0"
           id="path3785"
           style="fill:#ffffff;font-family:Nexa Bold;-inkscape-font-specification:Nexa Bold"
           d="m -84.48125,479.67125 -8.48,-9.56 c 5.319995,-1.08 7.08,-4.96 7.08,-8.8 0,-4.84 -3.480007,-9.24 -10.08,-9.28 -4.44,0 -8.88,-0.04 -13.32,-0.04 l 0,28.04 5.28,0 0,-9.36 5.08,0 8.16,9.36 6.28,0 0,-0.36 m -11.48,-22.72 c 3.319997,0 4.8,2.24 4.8,4.48 0,2.24 -1.440003,4.48 -4.8,4.48 l -8.04,0 0,-8.96 8.04,0" />
        <path
           inkscape:connector-curvature="0"
           id="path3787"
           style="fill:#ffffff;font-family:Nexa Bold;-inkscape-font-specification:Nexa Bold"
           d="m -60.05,480.03125 5.76,0 -12.56,-28 -5.76,0 -12.56,28 5.72,0 2.4,-5.28 14.64,0 2.36,5.28 m -4.48,-10.2 -10.4,0 5.2,-11.92 5.2,11.92" />
        <path
           inkscape:connector-curvature="0"
           id="path3789"
           style="fill:#ffffff;font-family:Nexa Bold;-inkscape-font-specification:Nexa Bold"
           d="m -19.92125,480.07125 5.28,0 0,-28 -6.04,0 -8.76,12.04 -8.76,-12.04 -6.08,0 0,28 5.28,0 0,-20.36 8.92,12.2 1.04,0 9.12,-12.16 0,20.32" />
        <path
           inkscape:connector-curvature="0"
           id="path3791"
           style="fill:#ffffff;font-family:Nexa Bold;-inkscape-font-specification:Nexa Bold"
           d="m -2.471875,480.03125 5.28,0 0,-23.2 8.88,0 0,-4.8 c -8.1199919,0 -14.9600081,0 -23.04,0 l 0,4.8 8.88,0 0,23.2" />
      </g>
    </g>
  </g>
</svg>
